<?xml version='1.0' encoding='utf-8'?>
<svg xmlns="http://www.w3.org/2000/svg" enable-background="new 0 0 1920 934" version="1.1" viewBox="0 0 1920 934">
	<path d="m660.39 54.37c8.53-3.81 18.16-3.22 27.14-1.72 21.08 3.76 39.79 15.31 56.24 28.55 16.54 13.39 31.18 28.95 44.84 45.23 22.34 26.83 42.12 55.68 60.66 85.24 21.13 33.77 40.68 68.51 59.44 103.66 25.49 47.89 49.61 96.49 73.13 145.38 10.46-9.46 20.86-18.98 31.09-28.68 2.65-44.9 5.24-89.8 8.01-134.69-2.12-0.78-4.4-1.68-5.57-3.75-2.35-3.76-0.44-9.24 3.77-10.68 4.97-2.22 10.96 2.84 9.77 8.12-0.4401 3.53-3.73 5.63-6.9301 6.36 0.79 8.08 0.93 16.2 1.2 24.31 8.83 0.16 17.9 0.57 26.22 3.83 1.89 0.67 3.41 2.01 4.8199 3.41 0.05 7.15 7.37 10.51 13.22 12.31 13.67 3.64 28.33 4.78 42.21 1.71-8.67 10.38-22.64 14.19-35.64 15.04-5.9301 0.11-12.25 0.32-17.72-2.3-2.4301-0.88-1.5601-4.17-3.41-5.56-1.99-1.47-4.61-1.43-6.95-1.6-7.2301 0.08-14.4 1.18-21.54 2.16 1.09 27.16 2.28 54.31 3.4299 81.46 25.95 28.57 54.64 54.71 85.51 77.92 12.13-24.35 24.8-48.47 39.34-71.48 9.23-14.33 19.18-28.46 31.88-39.96 7.4299-6.56 16.36-12.4 26.55-12.93 6.52-0.11 12.95 1.38 19.23 3 19.52 5.78 37.82 14.9 55.92 24.08 19.03 9.83 37.81 20.13 56.53 30.54 1.5399-27.3 3.34-54.59 4.71-81.9-5.47-0.9-7.62-8.64-2.87-11.79 4.28-3.63 11.32 1.15 10.09 6.38-0.6 2.86-3.0699 4.68-5.75 5.45 0.16 7.02 0.2201 14.06 0.79 21.06 7.03 0.32 14.18 0.63 20.96 2.73 2.02 0.75 4.26 1.59 5.5701 3.43 0.89 2.3 1.1799 5.06 3.35 6.62 4.3099 3.41 9.83 4.81 15.13 5.84 10.26 1.66 20.87 2.27 31.11 0.11-6.08 7.49-15.73 10.82-24.94 12.35-7.12 0.93-14.61 1.4-21.51-0.9-3.51-0.6-2.0901-5.83-5.8-6.15-7.55-1.58-15.2 0.83-22.78 1.17 0.3301 13.62 1.05 27.22 1.5801 40.83 13.58 7.46 27.2 14.83 40.93 22.01 36.69 18.96 74.1 37.44 114.18 48.08 20.37 5.0699 42.21 8.16 62.75 2.2599-33.54-16.5-64.79-38.37-89.88-66.23-24.01-26.58-41.71-59-50.12-93.88-12.36-50.23-5.9601-104.07 14.21-151.4 13.78-32.07 33.74-61.96 60.49-84.63 15.16-12.75 32.84-23.13 52.38-27.25 20.26-3.77 41.41-0.65 60.55 6.65 17.71 6.8 33.82 17.38 47.88 30.06 25.25 22.97 44.11 52.38 56.85 83.91 17.75 44.2 23.78 93.41 15.07 140.37-6.95 38.04-24.37 74.22-50.42 102.87-23.98 26.8-54.87 46.64-87.76 60.75 30.84 12.62 62.92 22.05 95.51 28.87 48.06 10.14 97.09 15.13 146.12 17.22 26.26 1.29 52.56 0.98 78.84 0.9301v36.66c-8.12 19.17-15.39 38.71-23.15 58.04-8.71 22.04-17.44 44.08-26.1 66.14 16.41-0.11 32.83 0.07 49.25-0.1v204.11h-1917.7c-0.14-68.02 0.09-136.03-0.11-204.05 24.8 0.02 49.61 0.01 74.42 0.01 20.88-33 41.95-65.87 62.92-98.8-5.41-4.77-10.5-9.9-15.34-15.24-8.65 3.76-17.47 7.11-26.18 10.72-10.34-4.14-20.67-8.29-31.01-12.44-0.44-8.18-1.13-16.35-1.72-24.51 0-1.39 1.7-2.23 1.38-3.71 0.04-6.96-0.03-13.92 0-20.88-1.44 0.15-2.89 0.29-4.34 0.44 1.48-3.44 3.22-6.77 5.05-10.02 5.36-2.61 10.78-5.11 15.79-8.39-14.49-39.94-15.47-84.39-3.89-125.2-4.79-1.92-9.74-3.58-14.34-5.87-0.93-8.44-0.96-16.97-1.92-25.42 0.4-0.23 1.19-0.69 1.59-0.92-0.14-7.58-0.01-15.15-0.08-22.73-1.09 0.16-3.28 0.47-4.38 0.62 1.27-3.48 3.43-6.53 4.71-10 10.93-4.68 21.27-11.02 29.62-19.56 0.2-3.98 0.45-7.96 0.72-11.93-0.4-0.59-1.18-1.78-1.58-2.37 0.77-0.79 1.61-1.49 2.52-2.1 0.98 0.54 1.81 1.26 2.52 2.15-0.64 1.11-1.27 2.23-1.9 3.36 2.33 0.11 4.67 0.29 6.96 0.77 0.05 0.75 0.15 2.27 0.19 3.03 2.83 1.43 5.99 0.88 9 0.53-2.08 2.87-5.35 4.34-8.79 4.75-0.34-0.58-1.01-1.75-1.35-2.34-1.64 0.08-3.27 0.19-4.9 0.3 0.1 1.29 0.2 2.57 0.3 3.87 4.99 5.51 10.89 10.11 17.29 13.87 30.83-39.08 76.27-66.43 125.42-74.68-0.07-4.41-0.07-8.82 0.01-13.23-1.46 0.11-2.92 0.23-4.38 0.37 1.4-3.4 3.51-6.45 4.78-9.91 10.94-4.67 21.38-10.95 29.63-19.62 0.06-3.92 0.37-7.82 0.77-11.72-0.42-0.59-1.25-1.77-1.67-2.36 0.7-0.71 1.42-1.41 2.15-2.08 1.35 0.04 2.08 1.19 2.85 2.12-0.68 1.07-1.36 2.14-2.03 3.21 2.43 0.05 4.86 0.3 7.23 0.89 0.03 0.75 0.1 2.25 0.13 3 2.89 1.44 6.12 0.92 9.19 0.46-2.32 2.69-5.43 4.52-9.01 4.75-0.29-0.55-0.88-1.67-1.18-2.23-1.68 0.01-3.37 0.04-5.05 0.08 0.13 1.37 0.26 2.75 0.39 4.13 7.95 8.77 18.21 15.31 29.41 19.11 1.19 3.31 2.53 6.57 3.78 9.86-1.52 0.1-3.04 0.21-4.56 0.35 0.03 3.85 0.02 7.71 0.03 11.57 51.65 6.66 100.02 34.22 132.49 74.87 36.22-61.38 73.72-122.08 114.87-180.3 21.81-30.42 44.39-60.51 70.79-87.14 11.64-11.26 23.88-22.59 38.94-29.07m17.32 8.56c0.13 31.68-0.01 63.36 0.08 95.05 0.33 110.99 0.23 221.99 0.2401 332.99 4.6299-3.77 8.67-8.18 13.21-12.05 1.51-19.94 2.31-39.94 3.65-59.9 1.06-19.24 2.53-38.47 3.17-57.72-3.32-0.69-6.04-3.89-5.28-7.38 0.27-5.45 8.24-7.51 11.25-3 3.27 3.71 0.42 9.9-4.35 10.41 0.07 7.09 0.37 14.18 0.74 21.26 8.26 0.41 17.08 0.39 24.59 4.3 3.57 1.66 2.11 6.65 5.45 8.65 7.5 5.71 17.39 6.64 26.47 7.53 19.99-73.66 39.94-147.34 59.93-221-5.13-7.47-10.35-14.88-15.72-22.17-20.33-27.31-42.33-53.98-69.62-74.65-15.69-11.62-33.89-21.51-53.81-22.32m-46.41 24.39c-29.28 28.59-53.17 62.06-76.54 95.49-1.61 1.48-0.75 3.59-0.38 5.4 16.46 72.21 32.79 144.45 49.26 216.66 9.4 42.16 19.34 84.2 28.53 126.4 12.02-9.6 23.5-19.87 34.92-30.17-0.4301-145.78-0.44-291.56-0.42-437.34-13.84 4.13-24.94 14-35.37 23.56m902.11 31.09c-16.88 9.37-31.33 22.63-43.62 37.41-13.49 16.26-24.47 34.51-33.1 53.77-18.49 41.55-26.13 88.44-18.54 133.49 6.7999 42.45 28.06 82.06 58.44 112.32 25.2 25.64 56.01 45.16 88.47 60.29 39.03-14.78 75.54-38.19 101.68-71.12 28.15-34.98 43.04-79.83 43.49-124.56 1.05-45.91-11.34-91.99-34.78-131.44-16.75-27.91-39.68-52.98-68.81-68.14-17.69-9.17-37.73-14.27-57.71-13.17-12.52 0.84-24.59 5.14-35.52 11.15m-1070 209.49c1.5 0.4 4.53-0.45 4.7 1.9 0.62 4.26 6.34 2.65 9.2 1.96-1.78 3.18-5.38 4.68-8.86 5-0.28-0.52-0.85-1.58-1.14-2.11-1.71-0.06-3.42-0.02-5.12 0.09 0.06 1.28 0.13 2.57 0.2 3.86 7.94 8.92 18.36 15.37 29.56 19.34 1.04 3.41 3.15 6.52 3.47 10.12-1.38-0.02-2.75-0.06-4.12-0.12 0 7.02 0.02 14.05-0.02 21.07-0.63 1.74 2.07 2.07 1.42 3.78-0.75 8-1.2 16.02-1.98 24.02-5.81 2.45-11.7 4.7-17.5 7.17 4.34 14.48 6.27 29.55 7.41 44.59 18.33-86.08 37.09-172.07 55.57-258.11-25.3 38.49-49.46 77.73-72.79 117.44m375.15-111.83c7.91 25.86 14.93 51.98 22.54 77.93 20.48 71.92 41.21 143.77 61.64 215.71 0.14 0.02 0.43 0.05 0.57 0.07 17.19-13.02 33.55-27.08 49.86-41.17-12.54-26.25-25.44-52.32-38.41-78.36-29.71-59.14-60.6-117.76-95.51-174.02-0.18-0.04-0.52-0.12-0.69-0.16m-9.74 7.6c-0.12 114.92-0.04 229.93 0 344.89 29.68-14.24 57.64-31.77 84.33-50.96-6.77-24.93-14.18-49.69-21.17-74.56-10.9-37.97-21.72-75.96-32.63-113.93-9.98-35.47-20.5-70.79-30.21-106.32l-0.32 0.88m-60.12 179.41c2.21-0.22 4.39-0.68 6.58-1.17-2.18 2.99-5.41 4.86-8.2 7.15-9.39 34.83-19.15 69.59-28.16 104.51 24.29 22.12 50.54 42.14 78.74 59.04-0.21-9.19-0.05-18.37-0.1-27.55 0.05-107.16-0.04-214.31-0.35-321.46-15.96 59.88-32.43 119.63-48.51 179.48m-215.25-168.59c-0.48 4.5-0.14 9.03-0.21 13.54-0.33 56-0.17 112-0.21 168.01 0.08 56.8-0.28 113.61-0.51 170.41 24.69-13.74 48.16-29.66 70.13-47.43-3.7-15.29-6.97-30.69-10.56-46.01-19.49-86.19-39.23-172.32-58.64-258.52m-11.51 3.74c-5.64 24.14-10.49 48.47-15.87 72.68-9.68 45.05-19.45 90.08-29.12 135.14-8.36 38-16.2 76.12-24.8 114.06 3.25 1.88 6.8 3.15 10.26 4.57 1.72 3.18 3.15 6.69 3.84 10.29-1.41-0.03-2.82-0.05-4.22-0.0699 0.2 7.56-0.15 15.14 0.17 22.69l1.4 0.68c-0.82 8.44-1.39 16.92-2.03 25.39-8.46 3.42-16.97 6.7401-25.36 10.33-3.18 16.42-6.9 32.74-10.49 49.09 8.22 12.83 16.4 25.7 24.6 38.55 1.02 1.52 1.75 3.34 3.31 4.44 2.9-17.68 5.85-35.36 8.68-53.06-7.39 2.02-15.08 2.54-22.7 2.82 10.87-18.3 24.7-36.76 25.05-58.96 19.46-6.93 38.53-15.04 56.84-24.62-0.18-65.4 0-130.8 0.25-196.21 0.23-50.67-0.05-101.34 0.17-152.01-0.49-1.9601 1.19-4.0201 0.02-5.8001m-299.15 25.15c0 7.94 0.03 15.88-0.04 23.82 19.59-0.14 39.18-0.06 58.77-0.04-0.2-7.91 0.19-15.83-0.15-23.73-0.71-0.47-2.13-1.42-2.84-1.89-0.91 0.84-1.83 1.68-2.74 2.52-1.12-0.01-2.24-0.03-3.35-0.04-0.87-0.81-1.75-1.61-2.63-2.4-1.02 0.82-2.04 1.65-3.05 2.48-2.23 0.3-3.98-1.02-5.65-2.27-1.36 0.76-2.54 1.93-4.12 2.24-1.62-0.3-2.85-1.44-4.05-2.45-1.55 0.94-2.9 2.74-4.9 2.41-1.75 0.12-2.89-1.48-4.19-2.36-1.4 1.12-2.81 2.8-4.82 2.36-1.6-0.05-2.64-1.55-3.85-2.39-1.45 1.15-2.87 2.63-4.86 2.68-1.78-0.21-2.95-1.65-4.27-2.68-1.09 0.58-2.17 1.16-3.26 1.74m60.31 49.55c-7.65 3.47-15.62 6.19-23.26 9.69 0.19 41.05 0.07 82.11 0.06 123.17 3.18 0.42 6.29 1.27 9.28 2.43 24.59-42.41 48.91-84.97 73.66-127.27-18.31-10.08-38.39-16.94-59.06-20.11-0.22 4.03-0.73 8.05-0.68 12.09m-113.78 8.04c24.66 42.35 49.04 84.86 73.61 127.26 2.95-1.23 6.05-2.01 9.23-2.38 0-40.08-0.07-80.16 0.03-120.23-10.34-4.29-20.79-8.3-31.13-12.6-0.09-3.6-0.26-7.2-0.62-10.78-17.85 3.6-35.22 9.83-51.12 18.73m-62.03 56.25c-0.52 3.62-0.04 7.34-0.26 11 40.7 23.63 81.53 47.03 122.24 70.63 2.14-2.43 4.43-4.72 6.94-6.76-24.72-42.34-49.07-84.9-73.66-127.31-21.8 13.38-40.89 31.26-55.26 52.44m242.21-52.43c-24.49 42.46-48.96 84.93-73.58 127.31 2.54 2.03 4.79 4.37 6.99 6.76 41.73-24.33 83.69-48.27 125.46-72.52 0.91-0.93 0.49-2.73-0.03-3.82-14.81-23.44-35.16-43.31-58.84-57.73m85.32 17.38c2.29-1.53 4.91-3.47 4.38-6.62-1.7 2.04-3.11 4.29-4.38 6.62m-388.51 24.44c0.05 7.87 0.1 15.73-0.03 23.6 19.62 0.13 39.24-0.02 58.86 0.08-0.27-7.79 0.11-15.57-0.08-23.35-0.8-0.98-1.94-1.58-2.9-2.37-1.43 1.27-2.99 3.37-5.2 2.61-1.54-0.18-2.44-1.52-3.49-2.47-1.37 0.96-2.58 2.5-4.39 2.52-1.87 0.06-3.06-1.54-4.4-2.56-1.15 0.79-2.12 2.18-3.61 2.32-1.96 0.39-3.23-1.37-4.65-2.35-1.36 1.03-2.57 2.59-4.44 2.58-1.9 0.19-3.19-1.53-4.6-2.49-1.26 1.04-2.47 2.62-4.29 2.49-1.87 0.01-3.08-1.59-4.49-2.54-1.22 1.25-2.56 2.6-4.43 2.68-1.97 0-3.22-1.61-4.61-2.74-1.08 0.67-2.16 1.33-3.25 1.99m406.55 1.11c-1.63-0.12-2.7-1.51-3.9-2.41-1.19 1.16-2.64 1.98-4.15 2.65-1.45-0.73-2.8-1.64-4.01-2.7-2.28 2.93-6.67 3.4-8.88 0.12-1.52 1.07-3.01 2.76-5.06 2.33-1.6-0.16-2.63-1.58-3.8-2.48-2.26 1.58-3.84 3.78-5.31 6.07-1.27-2.04-2.62-4.02-4.07-5.92-0.76 0.46-2.27 1.39-3.03 1.86 0.1 7.91-0.03 15.82 0.06 23.74 19.55-0.16 39.1-0.13 58.64-0.02 0.04-7.83-0.02-15.66 0.03-23.49-0.96-0.76-1.91-1.53-2.86-2.3-1.29 1.16-2.57 2.87-4.5 2.74-1.87 0.08-3.03-1.63-4.32-2.68-1.38 1.19-2.82 2.89-4.84 2.49m-165.94 97.71c2.11 3.13 4.06 6.36 6.16 9.51 47.69-0.07 95.38-0.09 143.06 0.01-0.27-17.17-3.1-34.29-8.33-50.64-6.19-2.52-12.44-4.89-18.57-7.54-0.7-6.98-1.08-14.03-1.32-21.04-40.39 23.13-80.61 46.57-121 69.7m913.1-67.75c15.87 48.21 31.82 96.4 47.84 144.55 18.2-13.86 35.26-29.17 52.3-44.42 0.24-17.97 0.14-35.94 0.29-53.91-14.07-7.78-28.22-15.41-42.52-22.75-18.64-9.25-37.45-18.9-57.91-23.47m-1093.6 18.59c-7.52 2.88-14.9 6.12-22.45 8.95-5.02 16.05-7.87 32.87-7.98 49.7 47.7-0.05 95.39-0.03 143.09-0.01 2-3.19 4.1-6.33 6.08-9.53-39.2-22.35-78.22-45.02-117.28-67.6-0.59 6.16-0.79 12.34-1.46 18.49m1055.8 0.03c-12.21 14.31-21.97 30.48-31.37 46.71-9.98 17.63-19.41 35.57-28.33 53.76 14.34 10.13 29.08 19.7 44.32 28.42 12.36-48.94 24.93-97.83 37.37-146.75-8.78 3.88-15.77 10.73-21.99 17.86m-480.83-8.53c0.85 23.69 2.04 47.38 2.73 71.08 8.3 8.74 16.62 17.49 25.42 25.73 7.84-30.44 16.35-60.71 24.55-91.05-8.08 1.13-16.75 2.01-24.53-0.94-3.13-0.62-1.53-5.11-4.54-5.76-7.76-2.13-15.79 0.59-23.63 0.94m509.98 8.26c-11.48 44.96-22.82 89.95-34.45 134.87 15.02 8.31 30.44 15.87 46.04 23.01 11.8-7.36 23.29-15.24 34.39-23.62 1.5599-0.72 0.1899-2.28 0.0299-3.37-14.83-44.97-29.88-89.88-44.55-134.9-1.06 1.0601-1 2.6801-1.4599 4.0101m120.34 33.87c0.04 12.4 0.04 24.8 0 37.2 2.23-2.24 4.62-4.31 6.9399-6.47 0.9701-0.99 2.3-1.97 2.16-3.54 0.26-7.09 0.71-14.17 1.29-21.23-3.4399-2.04-7.0399-3.78-10.39-5.96m20.98 11.72c0.59 5.78 0.22 11.65 1.0601 17.4 14.49 15.89 30.04 30.8 46.16 45.04 4.23-10.31 7.78-20.9 12.14-31.16-19.93-10.14-39.75-20.52-59.36-31.28m-1256.8 21.18c0.05 14.3 2.3 28.55 5.85 42.39 1.38 0.26 2.77 0.56 4.15 0.86 0.01 0.7 0.02 2.12 0.03 2.82 2.73 1.53 5.93 1.15 8.84 0.43-1.61 3.1-5.09 4.56-8.42 4.82-0.64-1.18-1.56-1.98-2.76-2.4 1.25 3.79 2.41 7.64 4.05 11.28 6.39 5.69 14.28 9.38 22.19 12.46 0.29 0.91 0.57 1.84 0.86 2.77 28.87-17.09 58.13-33.55 87.09-50.48 5.89-7.96 10.57-16.87 16.37-24.94-46.08 0.01-92.17 0.02-138.25-0.01m221.77-0.01c5.83 8.04 10.56 16.86 16.34 24.92 30.95 17.95 61.94 35.89 93.01 53.64 4.53-1.7599 8.79-4.59 12.67-7.59 10.39-22.13 15.8-46.54 16.38-70.97-46.14 0.04-92.27 0.04-138.4 0m-74.94 20.1c-25.41 39.66-50.61 79.46-76.02 119.13 5.02 3.89 10.36 7.34 15.69 10.8 25.14-43.5 50.26-87.01 75.4-130.51-1.95-1.67-3.78-3.48-5.43-5.46-3.14 2.12-6.89 3.45-9.64 6.04m56.73-6.01c-1.69 1.98-3.54 3.82-5.53 5.5 25.47 43.32 50.17 87.11 75.65 130.43 5.19-3.58 10.57-6.91 15.56-10.79-25.35-39.73-50.61-79.52-76.04-119.19-2.8-2.51-6.5-3.88-9.64-5.95m1131.9 5.13c11.11 22.03 22.13 44.1 33.2 66.15 0.97 1.71 1.41 3.95 3.28 4.98 3.36 2.13 6.88 4.01 10.28 6.11 5.88-17.42 11.84-34.82 17.65-52.27-22.15-6.41-43.5-15.31-64.41-24.97m-1242.1 134.69c17.02 9.23 35.45 15.92 54.53 19.26 0.03-2.93 0.03-5.85-0.01-8.77-1.43 0.23-2.86 0.46-4.28 0.69 1.11-3.65 3.33-6.94 5-10.27 10.05-4.36 19.61-10.06 27.55-17.67 0.07-37.26-0.02-74.52 0.04-111.78-2.57-0.32-5.05-1.09-7.47-1.98-25.04 43.55-50.24 87.01-75.36 130.52m90.57-128.5c0.05 33.03 0.08 66.06-0.02 99.08 1.04 0.35 2.09 0.6899 3.15 1.03 0.05 0.62 0.14 1.88 0.19 2.51 2.53 2.16 5.97 1.14 8.93 0.73-1.72 3.04-5.31 4.59-8.7 4.71-0.75-1.44-1.71-2.73-3.53-2.38-0.01 2.35 0 4.69 0.04 7.04 7.64 7.38 16.86 13.15 26.96 16.49 1.23 3.3701 2.91 6.59 3.7 10.12-1.44 0.16-2.88 0.21-4.33 0.16 0.16 2.82 0.15 5.65 0.04 8.48 19.79-3.01 38.9-9.96 56.44-19.53-25.23-43.43-50.25-86.98-75.42-130.44-2.43 0.8599-4.9 1.6299-7.45 1.9999m1144.8 5.8c0.1599 10 0.1 20 0.0499 29.99 7.73 5.81 15.51 11.63 23.73 16.74-8.2199-15.42-15.49-31.39-23.78-46.73m-15.54 17.68c1.45 1.23 2.92 2.45 4.42 3.65-0.12-4.92 0.0599-9.83-0.02-14.74-1.7099 3.59-2.7001 7.48-4.4 11.09m-1280.1 36.48c0.01 4.89 0.04 9.79-0.01 14.69 7.01 9.91 15.02 19.12 23.91 27.38 18.65-29.5 37.51-58.87 56.24-88.32-26.72 15.39-53.44 30.82-80.14 46.25m214.01-46.24c18.65 29.46 37.56 58.76 56.15 88.26 7.37-6.84 14.23-14.31 20.19-22.42 0.26-4.42-0.05-8.85 0.15-13.26-1.06 0.14-3.17 0.41-4.23 0.55 0.84-3.24 3.03-5.86 4.29-8.91-25.51-14.76-51.06-29.44-76.55-44.22m1227.5 10.67c0.62 40.86 0.74 81.75 1.65 122.6 3.0399 6.62 5.84 13.39 7.6799 20.46-2.58 0.04-5.13 0.0099-7.67-0.08 0.4601 14.78 0.1801 29.57 0.76 44.35 8.1801-16.57 15.74-33.6 23.71-50.34 18.34-39.22 36.59-78.48 55.03-117.65-21.67-6.29-43.09-13.55-63.73-22.71-1.33-0.43-2.58-1.61-4.02-1.0699-4.4699 1.5199-8.9199 3.0599-13.41 4.4399m-62.83-2.37c8.3201 25.18 16.46 50.43 24.49 75.7 8.8701 3.9 17.87 7.53 26.93 10.97 0.1 3.15 0.6 6.28 1.4401 9.33-0.5-14.4-0.3301-28.81-0.65-43.21 0.2799-16.12-0.8401-32.23-0.42-48.35-17.37 2-34.88-0.47-51.79-4.44m-6.8 16.66c-4.03 12.66-8.39 25.22-12.71 37.78 9.92 5.31 19.91 10.57 30.27 14.98-5.6699-17.17-11.17-34.4-16.72-51.6-0.2099-0.29-0.6299-0.87-0.8399-1.16m162.99 8.36c3.76 8.28 6.9299 16.82 10.42 25.22 17.11 41.75 33.8 83.69 51.12 125.34-0.28-18.6-0.02-37.21-0.13-55.82-0.1001-27.29-0.3401-54.58-0.3-81.87-20.52-3.55-40.94-7.7-61.11-12.87m-1595.5 9.31c-0.05 7.88 0.09 15.77-0.07 23.65 19.65 0.17 39.3-0.01 58.94 0.08-0.05-7.82-0.08-15.64 0.02-23.46-1.01-0.75-2.01-1.48-3.01-2.22-1.44 1.27-3 3.31-5.21 2.59-1.5-0.21-2.4-1.62-3.51-2.47-1.84 2.1-5.12 3.69-7.32 1.1-1.59-2.33-3.15 1.15-5.05 1.18-1.94 0.35-3.2-1.39-4.64-2.31-1.35 1.08-2.67 2.57-4.56 2.55-1.86 0.07-3.04-1.51-4.34-2.56-1.18 0.98-2.27 2.26-3.86 2.59-2.04 0.1-3.48-1.4-4.91-2.6-1.39 1.19-2.73 2.82-4.77 2.66-1.87 0.03-2.94-1.64-4.21-2.71-1.16 0.64-2.33 1.29-3.5 1.93m1668.1 143.14c19.19-43.64 37.69-87.61 56.77-131.3-18.99-1.55-37.98-3.59-56.78-6.73-0.08 46.01-0.0201 92.02 0.01 138.03m-1315.2-133.66c0.13 7.9399 0.05 15.89 0.07 23.83 19.55-0.06 39.11-0.12 58.67 0.03 0-7.93-0.04-15.86 0.02-23.78-0.92-0.7-1.83-1.39-2.73-2.08-1.33 1.1899-2.79 2.22-4.35 3.1-1.69-0.72-3.26-1.67-4.54-2.99-2.25 3.1-6.48 2.93-8.73-0.02-1.19 1.05-2.43 2.19-4.09 2.39-1.59-0.29-2.8-1.38-4.03-2.32-1.42 0.95-2.75 2.34-4.58 2.36-1.87 0.14-3.13-1.35-4.47-2.36-2.23 2.96-6.48 2.97-8.67-0.04-1.45 1.31-3.13 2.3-4.91 3.06-1.5-0.86-2.92-1.85-4.09-3.12-1.2 0.64-2.38 1.28-3.57 1.94m1384.1 3.34c15.87 39.52 31.79 79.02 47.66 118.55 0.86 1.71 0.8301 4.11 2.5801 5.26-2.1801-40.42-3.87-80.89-5.6801-121.32-14.86-0.74-29.75-1.09-44.56-2.49m-224.61 152.56c23.61 0.04 47.21 0.07 70.82-0.01-0.08-50.4-0.04-100.79-0.02-151.19-23.75 50.33-47.07 100.86-70.8 151.2m280.39-149.81c1.9801 42.7 3.9301 85.39 5.92 128.09 17.04-42.63 33.69-85.44 50.7-128.09-18.86 1-37.76 0.23-56.62 0m-198.44 2.47c0.12 49.13 0.05 98.27 0.03 147.4 20.04-0.06 40.08-0.03 60.13-0.01-13.05-32.02-26.04-64.05-39.06-96.08-7.0999-17.06-13.68-34.43-21.1-51.31m127.96 28.08c-17.12 39.78-34.3 79.53-51.41 119.32 18.04-0.05 36.09-0.06 54.14 0 0.02-41.71-0.08-83.43 0.05-125.14-1.39 1.69-1.91 3.86-2.78 5.82m14.17 119.31c16.57-0.02 33.14-0.07 49.72 0.03-9.34-23.41-18.78-46.78-28.19-70.16-7.05-17.97-14.67-35.72-21.39-53.82-0.3201 41.31-0.0401 82.64-0.1401 123.95m-1392.3-98.81c2.83 4.31 5.48 8.74 8.38 13.01-0.01-6.83-0.01-13.65-0.01-20.48-3.05 2.18-5.59 4.97-8.37 7.47m19.48-2.65c0.18 11.09-0.18 22.19 0.1 33.28 1.44 2.54 3.23 4.87 4.58 7.46 1.47-1.67 1.15-4.12 1.76-6.15 2.21-9.74 4.02-19.59 6.49-29.27-4.21-2.01-8.64-3.49-12.93-5.32m-278.62 14.27c-14.08 22.66-28.7 44.99-42.89 67.59 2.15-0.07 4.3-0.12 6.45-0.11 108.18 0.06 216.37-0.09 324.56 0.08-14.34-22.53-28.79-45-43.03-67.6-26.86 19.84-58.44 33.42-91.54 38.24-0.58 5.18-0.59 10.42-1.34 15.6-10.27 3.84-20.35 8.19-30.55 12.22-10.32-4.01-20.49-8.4-30.87-12.24-0.64-5.21-0.74-10.47-1.13-15.7-14.17-2.63-28.23-6.13-41.63-11.52-17.16-6.57-33.16-15.83-48.03-26.56m92.43 3.95c-0.08 7.89-0.03 15.79-0.05 23.69 19.56-0.12 39.13-0.05 58.69-0.03-0.03-7.76-0.03-15.52 0.06-23.27-1.03-0.79-2.07-1.56-3.1-2.33-1.28 1.21-2.62 2.65-4.53 2.71-1.76-0.21-3-1.52-4.31-2.57-1.27 1.1-2.58 2.33-4.34 2.52-1.81-0.17-3.02-1.54-4.31-2.62-1.5 1.67-3.49 2.5699-5.76 2.15-0.76-0.73-1.51-1.45-2.26-2.16-1.48 1.08-2.94 2.34-4.81 2.61-1.82-0.07-3.04-1.43-4.28-2.55-1.4 1.08-2.78 2.55-4.7 2.53-1.69-0.24-2.86-1.53-4.12-2.52-1.5 1.2-3.02 2.89-5.15 2.62-1.67-0.25-2.67-1.7-3.83-2.74-1.04 0.66-2.33 1.05-3.2 1.96z"/>
	<path d="m242.76 263.38c1.09-0.58 2.17-1.16 3.26-1.74 1.32 1.03 2.49 2.47 4.27 2.68 1.99-0.05 3.41-1.53 4.86-2.68 1.21 0.84 2.25 2.34 3.85 2.39 2.01 0.44 3.42-1.24 4.82-2.36 1.3 0.88 2.44 2.48 4.19 2.36 2 0.33 3.35-1.47 4.9-2.41 1.2 1.01 2.43 2.15 4.05 2.45 1.58-0.31 2.76-1.48 4.12-2.24 1.67 1.25 3.42 2.57 5.65 2.27 1.01-0.83 2.03-1.66 3.05-2.48 0.88 0.79 1.76 1.59 2.63 2.4 1.11 0.01 2.23 0.03 3.35 0.04 0.91-0.84 1.83-1.68 2.74-2.52 0.71 0.47 2.13 1.42 2.84 1.89 0.34 7.9-0.05 15.82 0.15 23.73-19.59-0.02-39.18-0.1-58.77 0.04 0.07-7.94 0.04-15.88 0.04-23.82z" fill="#fff"/>
	<path d="m454.79 342.17c1.27-2.33 2.68-4.58 4.38-6.62 0.53 3.15-2.09 5.09-4.38 6.62z" fill="#fff"/>
	<path d="m66.28 366.61c1.09-0.66 2.17-1.32 3.25-1.99 1.39 1.13 2.64 2.74 4.61 2.74 1.87-0.08 3.21-1.43 4.43-2.68 1.41 0.95 2.62 2.55 4.49 2.54 1.82 0.13 3.03-1.45 4.29-2.49 1.41 0.96 2.7 2.68 4.6 2.49 1.87 0.01 3.08-1.55 4.44-2.58 1.42 0.98 2.69 2.74 4.65 2.35 1.49-0.14 2.46-1.53 3.61-2.32 1.34 1.02 2.53 2.62 4.4 2.56 1.81-0.02 3.02-1.56 4.39-2.52 1.05 0.95 1.95 2.29 3.49 2.47 2.21 0.76 3.77-1.34 5.2-2.61 0.96 0.79 2.1 1.39 2.9 2.37 0.19 7.78-0.19 15.56 0.08 23.35-19.62-0.1-39.24 0.05-58.86-0.08 0.13-7.87 0.08-15.73 0.03-23.6z" fill="#fff"/>
	<path d="m472.83 367.72c2.02 0.4 3.46-1.3 4.84-2.49 1.29 1.05 2.45 2.76 4.32 2.68 1.93 0.13 3.21-1.58 4.5-2.74 0.95 0.77 1.9 1.54 2.86 2.3-0.05 7.83 0.01 15.66-0.03 23.49-19.54-0.11-39.09-0.14-58.64 0.02-0.09-7.92 0.04-15.83-0.06-23.74 0.76-0.47 2.27-1.4 3.03-1.86 1.45 1.9 2.8 3.88 4.07 5.92 1.47-2.29 3.05-4.49 5.31-6.07 1.17 0.9 2.2 2.32 3.8 2.48 2.05 0.43 3.54-1.26 5.06-2.33 2.21 3.28 6.6 2.81 8.88-0.12 1.21 1.06 2.56 1.97 4.01 2.7 1.51-0.67 2.96-1.49 4.15-2.65 1.2 0.9 2.27 2.29 3.9 2.41z" fill="#fff"/>
	<path d="m68.39 564.55c1.17-0.64 2.34-1.29 3.5-1.93 1.27 1.07 2.34 2.74 4.21 2.71 2.04 0.16 3.38-1.47 4.77-2.66 1.43 1.2 2.87 2.7 4.91 2.6 1.59-0.33 2.68-1.61 3.86-2.59 1.3 1.05 2.48 2.63 4.34 2.56 1.89 0.02 3.21-1.47 4.56-2.55 1.44 0.92 2.7 2.66 4.64 2.31 1.9-0.03 3.46-3.51 5.05-1.18 2.2 2.59 5.48 1 7.32-1.1 1.11 0.85 2.01 2.26 3.51 2.47 2.21 0.72 3.77-1.32 5.21-2.59 1 0.7401 2 1.47 3.01 2.22-0.1 7.82-0.07 15.64-0.02 23.46-19.64-0.09-39.29 0.09-58.94-0.08 0.16-7.88 0.02-15.77 0.07-23.65z" fill="#fff"/>
	<path d="m421.29 574.03c1.19-0.66 2.37-1.3 3.57-1.94 1.17 1.27 2.59 2.2599 4.09 3.12 1.78-0.76 3.46-1.75 4.91-3.06 2.19 3.0099 6.44 3 8.67 0.04 1.34 1.01 2.6 2.5 4.47 2.36 1.83-0.02 3.16-1.41 4.58-2.36 1.23 0.94 2.44 2.03 4.03 2.32 1.66-0.2 2.9-1.34 4.09-2.39 2.25 2.95 6.48 3.12 8.73 0.02 1.28 1.32 2.85 2.27 4.54 2.99 1.56-0.88 3.02-1.91 4.35-3.1 0.9 0.6899 1.81 1.3799 2.73 2.08-0.06 7.92-0.02 15.85-0.02 23.78-19.56-0.15-39.12-0.09-58.67-0.03-0.02-7.94 0.06-15.89-0.07-23.83z" fill="#fff"/>
	<path d="m245.89 646.74c0.87-0.91 2.16-1.3 3.2-1.96 1.16 1.04 2.16 2.49 3.83 2.74 2.13 0.27 3.65-1.42 5.15-2.62 1.26 0.99 2.43 2.28 4.12 2.52 1.92 0.02 3.3-1.45 4.7-2.53 1.24 1.12 2.46 2.48 4.28 2.55 1.87-0.27 3.33-1.53 4.81-2.61 0.75 0.71 1.5 1.43 2.26 2.16 2.27 0.42 4.26-0.48 5.76-2.15 1.29 1.08 2.5 2.45 4.31 2.62 1.76-0.19 3.07-1.42 4.34-2.52 1.31 1.05 2.55 2.36 4.31 2.57 1.91-0.06 3.25-1.5 4.53-2.71 1.03 0.77 2.07 1.54 3.1 2.33-0.09 7.75-0.09 15.51-0.06 23.27-19.56-0.02-39.13-0.09-58.69 0.03 0.02-7.9-0.03-15.8 0.05-23.69z" fill="#fff"/>
</svg>