<?xml version="1.0" encoding="UTF-8" standalone="no"?>
<svg
   version="1.1"
   id="Layer_1"
   x="0px"
   y="0px"
   viewBox="0 0 4000 694.748"
   enable-background="new 0 0 4000 694.748"
   xml:space="preserve"
   sodipodi:docname="divider-54380091.svg"
   inkscape:version="1.2.2 (732a01da63, 2022-12-09)"
   xmlns:inkscape="http://www.inkscape.org/namespaces/inkscape"
   xmlns:sodipodi="http://sodipodi.sourceforge.net/DTD/sodipodi-0.dtd"
   xmlns="http://www.w3.org/2000/svg"
   xmlns:svg="http://www.w3.org/2000/svg"><defs
   id="defs607" /><sodipodi:namedview
   id="namedview605"
   pagecolor="#ffffff"
   bordercolor="#000000"
   borderopacity="0.25"
   inkscape:showpageshadow="2"
   inkscape:pageopacity="0.0"
   inkscape:pagecheckerboard="0"
   inkscape:deskcolor="#d1d1d1"
   showgrid="false"
   inkscape:zoom="0.3275"
   inkscape:cx="2000"
   inkscape:cy="349.61832"
   inkscape:window-width="1920"
   inkscape:window-height="1080"
   inkscape:window-x="0"
   inkscape:window-y="0"
   inkscape:window-maximized="1"
   inkscape:current-layer="Layer_1" />
<g
   id="g602">
	<path
   fill="#010101"
   d="M20.043,339.711c-8.558-10.73-24.908,2.618-18.649,13.923C10.272,368.515,33.966,350.377,20.043,339.711z"
   id="path512" />
	<path
   fill="#010101"
   d="M3979.957,339.711c8.558-10.73,24.908,2.618,18.649,13.923   C3989.728,368.515,3966.034,350.377,3979.957,339.711z"
   id="path514" />
	<path
   fill="#010101"
   d="M846.292,137.125c27.782-1.341,59.077,18.266,60.802,48.028c1.852,24.397-20.629,38.895-32.189,57.48   c44.196-4.343,84.56-44.324,78.748-90.5c-4.701-65.655-134.287-164.094-244.036,64.57   c3.181-138.132-138.521-136.612-173.208-61.504c-19.096,38.065-4.982,92.416,35.766,109.66   c34.744,16.605,85.071-15.584,73.958-55.82c-4.407-24.525-32.38-33.722-54.159-26.633c8.303,7.281,17.563,13.348,25.1,21.395   c10.985,18.777-13.22,42.344-31.997,32.955c-59.275-27.744-0.473-126.68,64.442-91.841   c85.518,44.758,26.684,286.878-153.792,252.594c-82.197-17.602-52.959-120.473,5.556-101.613   c11.368,5.684,20.437,14.881,30.976,21.715c-12.486-78.116-87.792-71.442-118.984-42.663   c-61.817,54.172-18.764,196.736,183.746,139.869C476.521,515.991,255.566,453.848,154.1,384.354   c-167.313-123.065,9.727-225.847,32.508-130.672c7.856,22.034-6.77,42.663-11.879,63.42c24.972-13.476,44.451-39.47,44.132-68.657   c8.194-116.941-174.811-115.382-189.302,6.131C8.49,372.341,177.782,491.721,366.842,505.383   C737.322,527.762,684.28,151.667,846.292,137.125z"
   id="path516" />
	<path
   fill="#010101"
   d="M3153.708,137.125c-27.782-1.341-59.077,18.266-60.802,48.028c-1.852,24.397,20.629,38.895,32.189,57.48   c-44.196-4.343-84.56-44.324-78.748-90.5c4.701-65.655,134.287-164.094,244.036,64.57   c-3.181-138.132,138.521-136.612,173.208-61.504c19.096,38.065,4.982,92.416-35.766,109.66   c-34.744,16.605-85.071-15.584-73.958-55.82c4.407-24.525,32.381-33.722,54.159-26.633c-8.302,7.281-17.563,13.348-25.1,21.395   c-10.985,18.777,13.22,42.344,31.997,32.955c59.275-27.744,0.473-126.68-64.442-91.841   c-85.518,44.758-26.684,286.878,153.792,252.594c82.197-17.602,52.959-120.473-5.556-101.613   c-11.368,5.684-20.438,14.881-30.976,21.715c12.486-78.116,87.792-71.442,118.984-42.663   c61.817,54.172,18.764,196.736-183.746,139.869c120.498,101.172,341.453,39.029,442.918-30.465   c167.313-123.065-9.727-225.847-32.508-130.672c-7.856,22.034,6.77,42.663,11.879,63.42c-24.972-13.476-44.451-39.47-44.132-68.657   c-8.194-116.941,174.811-115.382,189.302,6.131c21.07,117.765-148.223,237.145-337.282,250.807   C3262.678,527.762,3315.72,151.667,3153.708,137.125z"
   id="path518" />
	<path
   fill="#010101"
   d="M60.854,436.023c6.451-4.151,11.688-9.772,17.244-15.009C52.117,380.273,29.163,431.82,60.854,436.023z"
   id="path520" />
	<path
   fill="#010101"
   d="M3939.146,436.023c-6.45-4.151-11.688-9.772-17.244-15.009   C3947.883,380.273,3970.836,431.82,3939.146,436.023z"
   id="path522" />
	<path
   fill="#010101"
   d="M146.82,469.042c-15.073-16.478-40.364,11.049-23.886,25.291   C138.325,511.705,164.958,483.284,146.82,469.042z"
   id="path524" />
	<path
   fill="#010101"
   d="M3853.18,469.042c15.073-16.478,40.364,11.049,23.886,25.291   C3861.675,511.705,3835.042,483.284,3853.18,469.042z"
   id="path526" />
	<path
   fill="#010101"
   d="M201.426,529.332c-2.235,12.454,11.241,16.925,18.777,23.248c9.836-5.94,27.08-15.392,19.607-29.57   C235.084,500.784,198.233,506.213,201.426,529.332z"
   id="path528" />
	<path
   fill="#010101"
   d="M3798.574,529.332c2.235,12.454-11.241,16.925-18.777,23.248c-9.835-5.94-27.08-15.392-19.607-29.57   C3764.916,500.784,3801.767,506.213,3798.574,529.332z"
   id="path530" />
	<path
   fill="#010101"
   d="M289.243,211.019c-3.641,10.091-8.047,20.054-10.091,30.592c12.39,19.416,39.661,27.59,60.418,17.308   c2.044-8.047,3.768-16.158,5.109-24.397c7.983,4.088,15.967,8.239,24.014,12.199c19.032-13.093,28.165-37.171,21.715-59.524   c-6.195-3.385-12.582-6.514-19.096-9.389c3.193-6.323,6.131-12.837,8.75-19.416c-9.452-21.331-36.468-36.787-59.141-27.016   c-3.577,9.005-5.109,18.713-7.217,28.102c-9.325-4.854-18.202-13.157-29.57-11.368c-19.863,14.115-32.572,43.43-15.584,64.57   C273.724,212.232,284.07,211.402,289.243,211.019z M329.99,182.215c6.514,3.832,16.861,13.476,10.155,21.396   c-2.81,8.175-18.713,5.11-19.863-3.129C315.493,192.242,325.584,187.58,329.99,182.215z"
   id="path532" />
	<path
   fill="#010101"
   d="M3710.757,211.019c3.64,10.091,8.047,20.054,10.091,30.592c-12.39,19.416-39.662,27.59-60.418,17.308   c-2.044-8.047-3.768-16.158-5.109-24.397c-7.984,4.088-15.967,8.239-24.014,12.199c-19.032-13.093-28.166-37.171-21.715-59.524   c6.195-3.385,12.582-6.514,19.096-9.389c-3.193-6.323-6.131-12.837-8.75-19.416c9.452-21.331,36.468-36.787,59.141-27.016   c3.577,9.005,5.109,18.713,7.217,28.102c9.325-4.854,18.202-13.157,29.571-11.368c19.863,14.115,32.572,43.43,15.583,64.57   C3726.276,212.232,3715.93,211.402,3710.757,211.019z M3670.01,182.215c-6.514,3.832-16.861,13.476-10.155,21.396   c2.81,8.175,18.713,5.11,19.863-3.129C3684.507,192.242,3674.416,187.58,3670.01,182.215z"
   id="path534" />
	<path
   fill="#010101"
   d="M342.764,523.968c7.025,10.602,14.626,20.757,23.12,30.145c-38.027,42.401,5.25,83.417-68.274,97.397   c43.43,27.271,101.165,3.385,126.521-37.682c8.175,10.921,17.372,20.948,27.335,30.145c1.373-54.574,9.197-82.491,62.079-95.162   C433.136,481.675,406.146,536.492,342.764,523.968z M434.477,558.264c-37.809,23.184-51.86,69.998-90.244,92.799   c17.052-22.8,27.718-50.263,49.305-69.423c-5.812,0.128-17.5,0.447-23.375,0.575c18.138-22.481,46.559-31.614,74.661-31.359   c-6.451-5.62-12.901-11.368-19.352-17.18c19.352-1.022,38.64,1.086,57.289,6.514C466.411,545.491,448.656,548.045,434.477,558.264z   "
   id="path536" />
	<path
   fill="#010101"
   d="M3657.236,523.968c-7.025,10.602-14.625,20.757-23.12,30.145c38.027,42.401-5.25,83.417,68.274,97.397   c-43.429,27.271-101.166,3.385-126.521-37.682c-8.175,10.921-17.372,20.948-27.335,30.145   c-1.373-54.574-9.197-82.491-62.079-95.162C3566.864,481.675,3593.854,536.492,3657.236,523.968z M3565.523,558.264   c37.809,23.184,51.86,69.998,90.244,92.799c-17.052-22.8-27.718-50.263-49.305-69.423c5.812,0.128,17.5,0.447,23.375,0.575   c-18.138-22.481-46.559-31.614-74.661-31.359c6.451-5.62,12.901-11.368,19.352-17.18c-19.352-1.022-38.64,1.086-57.289,6.514   C3533.589,545.491,3551.344,548.045,3565.523,558.264z"
   id="path538" />
	<path
   fill="#010101"
   d="M2000,435.005c-8.68,4.728-16.641,10.694-23.452,17.814c-50.972,50.277-41.035,143.065,23.452,185.337   c64.487-42.272,74.424-135.059,23.452-185.337C2016.641,445.699,2008.68,439.733,2000,435.005z M2000,591.256   c-21.39-27.489-27.136-67.726-9.081-98.583c2.433-4.78,5.509-9.118,9.081-12.977c3.571,3.859,6.647,8.197,9.081,12.977   C2027.136,523.531,2021.39,563.767,2000,591.256z"
   id="path540" />
	<path
   fill="#010101"
   d="M517.121,590.645c8.494,28.357,47.453,25.675,57.992,52.243c-4.918,8.75-9.9,17.372-14.753,26.058   c58.055-14.409,77.062-109.187-14.817-119.815c49.938-44.688,163.046-73.128,233.051,8.75   c-165.129-53.981-152.17,99.211-33.339,76.066c59.514,37.228,89.402,3.035,84.624-21.395c-3.704-26.441-32.317-37.234-43.43-59.78   c109.749,12.844,137.857-70.631,133.61-121.347c-10.729,21.779-20.565,46.048-42.791,58.694   c-30.273,20.948-75.746,12.965-95.928-18.138c-56.037-79.687,66.454-255.034,359.572-48.731   c-223.19-42.025-215.552,275.785-39.151,228.644c44.068-9.835,83.73-56.842,67.763-103.081   c-12.556-46.572-100.565-70.318-104.933,18.649c11.368-13.923,22.481-34.488,43.877-30.784   c23.12-0.256,35.702,27.399,27.399,47.006c-14.689,39.981-71.275,51.796-103.656,26.313   c-62.13-49.223-24.915-175.769,95.481-161.967c107.942,11.879,219.064,145.311,389.398,87.69   c121.59-37.669,262.213-226.045,361.616-163.947c25.483,15.328,41.641,51.605,24.716,78.684   c-10.794,18.394-32.38,24.27-50.519,32.572c40.811,9.708,89.988-6.897,105.891-48.22c25.739-60.738-34.615-129.267-96.95-125.754   c-68.466,1.916-123.2,48.092-174.741,87.881c26.313-38.256,40.045-92.16,11.496-133.099c-0.511-1.597-1.533-4.662-2.044-6.259   c1.603,5.01,14.914,10.415,19.335,12.294c16.01,6.804,38.846,9.194,54.118-1.13c13.213-8.932,9.308-30.067,3.754-42.741   c-5.136-11.721-13.628-20.28-22.532-29.146c-5.699-5.675-6.754-11.283-10.126-18.519c-5.095-10.934-12.513-20.628-21.561-28.587   c-19.064-16.771-44.126-25.368-68.892-29.142c-50.15-7.643-109.578,1.168-151.919,30.491   c-20.729,14.356-42.16,41.928-28.843,68.479c10.091,20.118,34.679,23.503,50.455,37.234c11.624,12.071-4.471,25.292-7.792,36.979   c9.069-4.279,18.138-8.814,27.207-13.284c-42.472,107.814,101.862,131.566,101.357,56.97c2.363-20.501-16.286-32.125-32.509-39.151   c5.301,12.454,18.458,24.844,11.56,39.215c-7.473,21.842-40.364,24.653-52.435,5.556c-16.733-22.992-6.131-56.714,15.903-72.234   c55.405-44.234,163.111,22.117,78.365,140.572c-36.021,48.986-94.587,87.562-157.496,82.261   c-216.797-24.902-92.863-240.907-19.48-103.401c7.536-27.08-0.064-58.758-24.78-74.469   c-81.309-61.178-192.521,69.251-76.896,154.942c38.703,30.848,88.52,42.152,136.995,44.004   c-229.788,96.503-585.815-320.332-411.943-399.361c44.937-23.094,130.851,33.224,42.344,113.875   c50.136-7.281,88.52-59.907,70.957-109.596c-14.37-55.181-83.283-75.044-132.014-54.67   c-83.493,30.573-96.133,162.58-39.597,225.132c-146.728-97.449-427.559,45.18-331.598,209.484   C606.241,472.254,502.4,533.58,517.121,590.645z M796.987,582.661c9.516,11.752,25.292,24.972,19.416,41.961   c-10.347,22.226-38.64,10.346-56.65,6.514C776.294,618.491,790.6,602.971,796.987,582.661z M783.511,575.317   c-1.916,21.268-16.797,37.809-36.851,44.132c-1.916-8.814-9.261-18.33-5.237-27.591c6.45-8.047,14.242-14.881,20.948-22.801   c-48.795,6.764-32.138,38.435-27.718,55.692C620.647,620.078,663.106,519.349,783.511,575.317z M1749.821,209.869   c10.794,11.049,26.249,27.846,15.903,43.941c-13.859,17.436-37.362,7.345-54.287,0.766   C1730.022,244.741,1738.58,226.091,1749.821,209.869z M1488.157,185.344c7.664,1.405,23.056,4.279,30.72,5.684   c-4.471,4.407-9.005,8.686-13.476,12.965c11.177,4.279,22.098,9.197,32.572,15.072c-5.237,0.256-15.583,0.83-20.821,1.086   c9.58,8.494,17.819,18.394,22.226,30.528C1519.005,232.095,1481.323,219.449,1488.157,185.344z M1607.333,227.624   c-18.649,4.471-35.894,13.348-50.008,26.377c12.282-68.785-32.725-73.581-60.354-80.217   c64.793-55.111,189.353-62.334,232.732,8.814C1667.591,163.297,1602.153,162.505,1607.333,227.624z M1686.911,249.595   c-19.735-13.987-42.855-21.268-66.613-24.589c-0.064-10.346-2.427-23.759,8.366-29.89c23.057-16.542,52.818-11.496,78.876-6.706   l-0.575,5.301C1679.311,197.926,1673.691,228.774,1686.911,249.595z M1691.829,218.747c6.706-9.644,17.819-16.222,20.31-28.613   c5.62,2.81,16.797,8.367,22.353,11.177c-1.597,20.757-17.053,34.616-33.786,44.707   C1697.258,237.396,1689.083,228.774,1691.829,218.747z M535.771,562.288c10.857-1.214,42.28,0.766,21.14,16.925   c10.027,4.79,19.991,9.836,29.635,15.328c-5.365,0.192-16.159,0.575-21.523,0.766c10.474,7.856,18.968,17.883,22.353,30.784   C567.896,606.803,532.194,595.435,535.771,562.288z"
   id="path542" />
	<path
   fill="#010101"
   d="M2220.387,250.167c0.087,1.756,0.343,3.465,0.793,5.103c3.521,12.796,19.859,18.737,31.532,19.886   c18.123,1.784,37.395-5.36,50.733-17.578c-0.511,1.597-1.533,4.662-2.044,6.259c-28.548,40.939-14.817,94.843,11.496,133.099   c-51.541-39.789-106.275-85.965-174.74-87.881c-62.334-3.513-122.689,65.017-96.95,125.754   c15.903,41.322,65.081,57.927,105.891,48.22c-18.138-8.303-39.725-14.179-50.519-32.572c-16.925-27.08-0.767-63.356,24.717-78.684   c99.402-62.098,240.025,126.278,361.615,163.947c170.334,57.621,281.456-75.81,389.398-87.69   c120.396-13.802,157.611,112.745,95.481,161.967c-32.381,25.483-88.967,13.668-103.656-26.313   c-8.303-19.607,4.279-47.262,27.399-47.006c21.396-3.704,32.509,16.861,43.877,30.784c-4.368-88.967-92.377-65.221-104.934-18.649   c-15.967,46.24,23.695,93.246,67.763,103.081c176.401,47.141,184.04-270.669-39.15-228.644   c293.118-206.304,415.609-30.956,359.572,48.731c-20.182,31.103-65.655,39.087-95.928,18.138   c-22.226-12.646-32.061-36.915-42.791-58.694c-4.247,50.717,23.861,134.191,133.61,121.347   c-11.113,22.545-39.725,33.339-43.43,59.78c-4.778,24.43,25.109,58.624,84.624,21.395c118.831,23.145,131.79-130.046-33.339-76.066   c70.005-81.878,183.113-53.438,233.051-8.75c-91.879,10.627-72.872,105.406-14.817,119.815   c-4.854-8.686-9.835-17.308-14.753-26.058c10.539-26.569,49.497-23.886,57.992-52.243c14.721-57.065-89.12-118.391-201.373-91.011   c95.96-164.305-184.87-306.933-331.598-209.484c56.535-62.551,43.896-194.558-39.597-225.132   c-48.731-20.374-117.643-0.511-132.014,54.67c-17.563,49.689,20.821,102.315,70.957,109.596   c-88.507-80.651-2.593-136.969,42.344-113.875c173.872,79.029-182.156,495.864-411.943,399.361   c48.476-1.852,98.292-13.157,136.995-44.004c115.625-85.69,4.413-216.12-76.896-154.942   c-24.717,15.711-32.317,47.389-24.781,74.469c73.383-137.506,197.317,78.499-19.479,103.401   c-62.909,5.301-121.475-33.275-157.496-82.261c-84.745-118.454,22.96-184.806,78.365-140.572   c22.034,15.52,32.636,49.242,15.903,72.234c-12.071,19.096-44.963,16.286-52.435-5.556c-6.897-14.37,6.259-26.76,11.56-39.215   c-16.222,7.025-34.871,18.649-32.509,39.151c-0.504,74.597,143.829,50.845,101.357-56.97c9.069,4.471,18.138,9.005,27.208,13.284   c-3.321-11.688-19.416-24.908-7.792-36.979c15.775-13.731,40.364-17.116,50.455-37.234   c37.886-97.422-239.722-155.516-276.098-28.098c-2.54,8.897-12.39,14.139-18.108,20.816   C2227.354,222.278,2219.715,236.626,2220.387,250.167z M3183.597,624.622c-5.876-16.989,9.9-30.209,19.416-41.961   c6.387,20.31,20.693,35.83,37.235,48.475C3222.237,634.969,3193.944,646.848,3183.597,624.622z M3265.347,624.75   c4.42-17.257,21.076-48.929-27.718-55.692c6.706,7.92,14.498,14.753,20.948,22.801c4.024,9.261-3.321,18.777-5.237,27.591   c-20.054-6.323-34.935-22.864-36.851-44.132C3336.894,519.349,3379.353,620.078,3265.347,624.75z M3464.229,562.288   c3.577,33.147-32.125,44.515-51.604,63.803c3.385-12.901,11.879-22.928,22.354-30.784c-5.365-0.192-16.158-0.575-21.523-0.766   c9.644-5.492,19.607-10.538,29.634-15.328C3421.95,563.054,3453.372,561.075,3464.229,562.288z M2379.702,225.006   c-23.759,3.321-46.878,10.602-66.614,24.589c13.221-20.821,7.601-51.669-20.054-55.884l-0.575-5.301   c26.058-4.79,55.82-9.836,78.876,6.706C2382.129,201.247,2379.766,214.659,2379.702,225.006z M2460.622,250.68   c4.407-12.135,12.646-22.034,22.226-30.528c-5.237-0.255-15.584-0.83-20.821-1.086c10.474-5.876,21.396-10.794,32.572-15.072   c-4.471-4.279-9.005-8.558-13.476-12.965c7.664-1.405,23.056-4.279,30.72-5.684C2518.677,219.449,2480.995,232.095,2460.622,250.68   z M2503.03,173.784c-27.629,6.636-72.636,11.432-60.354,80.217c-14.115-13.029-31.359-21.906-50.008-26.377   c5.18-65.119-60.258-64.327-122.369-45.026C2313.676,111.45,2438.236,118.673,2503.03,173.784z M2287.861,190.134   c2.491,12.39,13.604,18.969,20.31,28.613c2.747,10.027-5.428,18.649-8.877,27.271c-16.733-10.091-32.189-23.95-33.786-44.707   C2271.064,198.501,2282.24,192.944,2287.861,190.134z M2250.179,209.869c11.24,16.222,19.799,34.871,38.384,44.707   c-16.925,6.578-40.427,16.669-54.287-0.766C2223.93,237.715,2239.386,220.918,2250.179,209.869z"
   id="path544" />
	<path
   fill="#010101"
   d="M743.658,101.295c7.281-11.113-5.301-29.443-18.394-27.974c-15.648-1.916-28.549,20.629-16.733,32.253   C716.387,118.092,739.123,115.729,743.658,101.295z"
   id="path546" />
	<path
   fill="#010101"
   d="M3256.342,101.295c-7.281-11.113,5.301-29.443,18.394-27.974c15.647-1.916,28.549,20.629,16.733,32.253   C3283.614,118.092,3260.877,115.729,3256.342,101.295z"
   id="path548" />
	<path
   fill="#010101"
   d="M800.052,60.165c15.584,16.542,41.386-11.624,23.695-25.547C808.738,17.437,780.956,45.667,800.052,60.165z   "
   id="path550" />
	<path
   fill="#010101"
   d="M3199.948,60.165c-15.583,16.542-41.386-11.624-23.695-25.547   C3191.261,17.437,3219.044,45.667,3199.948,60.165z"
   id="path552" />
	<path
   fill="#010101"
   d="M915.716,44.709c-1.724-21.715-38.384-9.708-27.08,8.878C895.023,68.02,919.803,61.314,915.716,44.709z"
   id="path554" />
	<path
   fill="#010101"
   d="M3084.284,44.709c1.725-21.715,38.384-9.708,27.08,8.878C3104.977,68.02,3080.197,61.314,3084.284,44.709z"
   id="path556" />
	<path
   fill="#010101"
   d="M986.034,81.241c-1.15-17.5-30.528-11.241-22.929,5.94C968.023,97.974,987.886,94.397,986.034,81.241z"
   id="path558" />
	<path
   fill="#010101"
   d="M3013.966,81.241c1.15-17.5,30.529-11.241,22.929,5.94C3031.977,97.974,3012.114,94.397,3013.966,81.241z"
   id="path560" />
	<path
   fill="#010101"
   d="M1082.729,670.224c-11.113,5.684-18.841,23.695-1.022,24.525   C1098.248,694.11,1090.009,676.738,1082.729,670.224z"
   id="path562" />
	<path
   fill="#010101"
   d="M2917.271,670.224c11.113,5.684,18.841,23.695,1.022,24.525   C2901.752,694.11,2909.991,676.738,2917.271,670.224z"
   id="path564" />
	<path
   fill="#010101"
   d="M1131.778,679.548c7.025,14.37,29.443,7.025,26.122-9.133   C1152.216,652.979,1124.37,662.432,1131.778,679.548z"
   id="path566" />
	<path
   fill="#010101"
   d="M2868.222,679.548c-7.025,14.37-29.443,7.025-26.122-9.133   C2847.784,652.979,2875.63,662.432,2868.222,679.548z"
   id="path568" />
	<path
   fill="#010101"
   d="M1215.636,621.493c-11.368-2.363-16.35,9.772-22.481,16.478   C1228.499,677.089,1239.171,624.724,1215.636,621.493z"
   id="path570" />
	<path
   fill="#010101"
   d="M2784.364,621.493c11.368-2.363,16.35,9.772,22.481,16.478   C2771.501,677.089,2760.829,624.724,2784.364,621.493z"
   id="path572" />
	<path
   fill="#010101"
   d="M1252.168,551.047c-12.262-15.584-38.384,1.724-31.039,19.288   C1236.444,600.442,1271.839,568.272,1252.168,551.047z"
   id="path574" />
	<path
   fill="#010101"
   d="M2747.832,551.047c12.262-15.584,38.384,1.724,31.04,19.288   C2763.556,600.442,2728.161,568.272,2747.832,551.047z"
   id="path576" />
	<path
   fill="#010101"
   d="M1375.623,239.887c8.75,10.027,17.563,19.927,27.335,28.932c0.812-82.612,32.017-85.94,61.824-95.481   c-80.92-64.359-104.819-13.259-171.675-23.95c7.6,10.155,15.647,19.926,24.333,29.123c-18.905,21.076-17.18,50.327-26.377,75.363   c-6.131,17.117-26.249,18.713-40.939,23.439C1293.362,304.776,1349.246,278.782,1375.623,239.887z M1345.286,205.654   c-5.94,0.511-17.883,1.533-23.886,2.044c14.434-17.116,34.425-28.996,57.161-29.954c2.172-6.068,4.279-12.199,6.323-18.394   c16.67-0.447,33.466,1.213,49.561,5.812c-95.788,23.637-83.065,78.965-138.719,109.66   C1313.097,252.341,1324.21,225.325,1345.286,205.654z"
   id="path578" />
	<path
   fill="#010101"
   d="M2624.377,239.887c-8.75,10.027-17.563,19.927-27.335,28.932c-0.812-82.612-32.017-85.94-61.823-95.481   c80.92-64.359,104.819-13.259,171.675-23.95c-7.6,10.155-15.647,19.926-24.333,29.123c18.905,21.076,17.18,50.327,26.377,75.363   c6.131,17.117,26.249,18.713,40.938,23.439C2706.638,304.776,2650.754,278.782,2624.377,239.887z M2654.714,205.654   c5.939,0.511,17.883,1.533,23.886,2.044c-14.434-17.116-34.425-28.996-57.161-29.954c-2.172-6.068-4.279-12.199-6.323-18.394   c-16.67-0.447-33.467,1.213-49.561,5.812c95.788,23.637,83.065,78.965,138.719,109.66   C2686.903,252.341,2675.79,225.325,2654.714,205.654z"
   id="path580" />
	<path
   fill="#010101"
   d="M1430.102,130.993c24.27,24.27,61.568,18.138,88.137,1.277c-0.894-2.171-2.746-6.451-3.64-8.622   c-15.648,8.494-37.043,12.39-49.433-3.768c-18.585-30.528,9.325-69.807-13.667-99.377c-20.118-29.443-65.847-25.675-86.221,1.724   C1442.415,26.59,1387.445,94.283,1430.102,130.993z M1428.569,39.791c2.874-2.044,8.622-6.068,11.496-8.047   c0.447,34.744,2.682,69.488,17.436,101.677c-29.89-29.443-19.735-76.13-42.791-109.66   C1419.372,29.061,1424.034,34.362,1428.569,39.791z"
   id="path582" />
	<path
   fill="#010101"
   d="M2569.898,130.993c-24.27,24.27-61.568,18.138-88.137,1.277c0.894-2.171,2.746-6.451,3.64-8.622   c15.648,8.494,37.043,12.39,49.433-3.768c18.585-30.528-9.325-69.807,13.667-99.377c20.118-29.443,65.847-25.675,86.221,1.724   C2557.585,26.59,2612.555,94.283,2569.898,130.993z M2571.431,39.791c-2.874-2.044-8.622-6.068-11.496-8.047   c-0.447,34.744-2.682,69.488-17.436,101.677c29.89-29.443,19.735-76.13,42.791-109.66   C2580.628,29.061,2575.966,34.362,2571.431,39.791z"
   id="path584" />
	<path
   fill="#010101"
   d="M1409.6,573.209c-5.876,3.96-11.879,7.792-18.011,11.432c4.854,9.836,9.261,19.927,12.837,30.337   c12.391,1.916,23.184-5.109,33.53-10.858C1444.408,588.218,1430.166,557.051,1409.6,573.209z"
   id="path586" />
	<path
   fill="#010101"
   d="M2590.4,573.209c5.876,3.96,11.879,7.792,18.011,11.432c-4.854,9.836-9.261,19.927-12.837,30.337   c-12.39,1.916-23.184-5.109-33.531-10.858C2555.592,588.218,2569.834,557.051,2590.4,573.209z"
   id="path588" />
	<path
   fill="#010101"
   d="M1528.266,570.974c-1.916,2.938-5.812,8.814-7.728,11.751c-17.116-6.642-29.762,17.116-14.178,26.569   c0.192,9.58,6.642,15.264,14.434,19.607c9.644-5.748,19.927-10.346,30.465-14.434c-0.767-11.688-4.407-22.865-7.025-34.169   C1540.273,577.935,1532.289,573.273,1528.266,570.974z M1522.454,605.207c-2.746-8.878,0.319-11.752,9.261-8.75   C1534.333,605.462,1531.203,608.4,1522.454,605.207z"
   id="path590" />
	<path
   fill="#010101"
   d="M2471.734,570.974c1.916,2.938,5.812,8.814,7.728,11.751c17.116-6.642,29.762,17.116,14.178,26.569   c-0.192,9.58-6.642,15.264-14.434,19.607c-9.644-5.748-19.927-10.346-30.464-14.434c0.767-11.688,4.407-22.865,7.025-34.169   C2459.728,577.935,2467.711,573.273,2471.734,570.974z M2477.546,605.207c2.746-8.878-0.319-11.752-9.261-8.75   C2465.667,605.462,2468.797,608.4,2477.546,605.207z"
   id="path592" />
	<path
   fill="#010101"
   d="M1671.775,550.345c1.086-3.704,3.193-11.049,4.279-14.753c-9.899-5.684-19.352-16.095-31.87-14.37   c-3.96,5.684-7.153,11.815-9.644,18.33c-21.906-23.758-47.773,33.977-15.392,34.105c-18.457,25.866,36.149,43.749,36.085,13.221   c4.215,1.469,12.709,4.407,16.925,5.876C1681.419,580.554,1690.168,559.158,1671.775,550.345z M1653.126,569.76   c-8.111,8.111-20.565-5.173-12.646-13.284C1648.144,546.704,1660.279,562.224,1653.126,569.76z"
   id="path594" />
	<path
   fill="#010101"
   d="M2328.225,550.345c-1.086-3.704-3.194-11.049-4.279-14.753c9.899-5.684,19.352-16.095,31.87-14.37   c3.96,5.684,7.153,11.815,9.644,18.33c21.906-23.758,47.773,33.977,15.392,34.105c18.458,25.866-36.149,43.749-36.085,13.221   c-4.215,1.469-12.709,4.407-16.925,5.876C2318.581,580.554,2309.832,559.158,2328.225,550.345z M2346.875,569.76   c8.111,8.111,20.565-5.173,12.646-13.284C2351.856,546.704,2339.721,562.224,2346.875,569.76z"
   id="path596" />
	<path
   fill="#010101"
   d="M1813.879,485.136c3.321-6.195,6.323-12.518,9.069-18.969c-9.772-20.885-35.446-36.404-58.438-27.846   c-4.598,8.878-5.684,18.969-7.728,28.549c-9.516-4.854-19.224-9.389-29.123-13.412c-18.202,16.414-33.977,43.494-17.18,66.55   c5.429-0.383,16.35-1.086,21.778-1.469c-3.129,10.985-11.624,21.97-8.558,33.594c13.732,18.202,37.81,21.204,58.694,16.35   c1.469-8.558,2.874-17.18,4.279-25.802c8.047,3.576,15.903,7.472,24.269,10.282c21.076-10.027,27.654-36.66,22.417-57.8   C1826.972,491.523,1820.457,488.202,1813.879,485.136z M1762.913,507.937c-4.79-8.686,6.898-16.861,15.073-16.414   c1.725,3.385,5.11,10.027,6.834,13.412C1786.608,518.603,1766.234,519.05,1762.913,507.937z"
   id="path598" />
	<path
   fill="#010101"
   d="M2186.121,485.136c-3.321-6.195-6.323-12.518-9.069-18.969c9.771-20.885,35.446-36.404,58.438-27.846   c4.598,8.878,5.684,18.969,7.728,28.549c9.516-4.854,19.224-9.389,29.123-13.412c18.202,16.414,33.977,43.494,17.18,66.55   c-5.429-0.383-16.35-1.086-21.778-1.469c3.129,10.985,11.624,21.97,8.558,33.594c-13.731,18.202-37.809,21.204-58.694,16.35   c-1.469-8.558-2.874-17.18-4.279-25.802c-8.047,3.576-15.903,7.472-24.27,10.282c-21.076-10.027-27.654-36.66-22.417-57.8   C2173.028,491.523,2179.543,488.202,2186.121,485.136z M2237.087,507.937c4.79-8.686-6.897-16.861-15.073-16.414   c-1.725,3.385-5.11,10.027-6.834,13.412C2213.392,518.603,2233.766,519.05,2237.087,507.937z"
   id="path600" />
</g>
<path
   style="fill:#ffdd55;fill-opacity:1;stroke-width:3.05344"
   d="m 571.42044,653.3953 c 5.88907,-9.98122 5.99105,-11.24257 1.46718,-18.14687 -2.67399,-4.08101 -13.88495,-12.46608 -24.91325,-18.63347 -22.99209,-12.85789 -30.4069,-22.22159 -29.99631,-37.88043 0.83977,-32.02671 41.57922,-65.63713 95.04839,-78.41575 23.26119,-5.55921 78.60793,-6.31912 95.16826,-1.30666 5.76664,1.74544 10.93908,2.71924 11.49433,2.16397 0.55524,-0.55524 -2.43484,-8.53304 -6.64464,-17.72843 -23.67067,-51.70357 -12.30762,-102.03719 33.34069,-147.6855 72.92471,-72.92472 199.74859,-96.69541 285.35091,-53.48353 10.2551,5.17678 18.6457,8.872 18.6457,8.2116 0,-0.66041 -4.8579,-9.26797 -10.7953,-19.12793 -42.51892,-70.60871 -20.8704,-170.02491 43.9469,-201.816875 15.14,-7.426001 20.7487,-8.45268 46.2377,-8.463925 25.6373,-0.0113 31.0403,0.985375 46.5026,8.578235 41.2719,20.266921 59.3031,70.447595 39.2615,109.264495 -8.9193,17.27503 -16.8761,25.96002 -33.6902,36.77319 -19.287,12.40354 -24.0203,11.21438 -12.6261,-3.17206 29.0981,-36.73927 27.7517,-74.80047 -3.2894,-92.99054 -36.0615,-21.131977 -77.2453,-7.91078 -96.23,30.89264 -49.4946,101.16333 126.8535,316.07538 302.8197,369.0406 23.933,7.20376 32.9999,8.30425 70.229,8.52394 33.3385,0.19664 46.7333,-0.97777 60.8532,-5.33579 20.0905,-6.20085 18.8572,-11.05942 -2.8379,-11.18045 -15.9517,-0.0889 -57.0049,-10.05829 -76.3359,-18.53726 -34.336,-15.06042 -68.0917,-44.96384 -80.4611,-71.27881 -19.2308,-40.91154 -3.5687,-88.13343 36.5549,-110.21493 23.7732,-13.08328 47.5831,-12.62196 70.6684,1.36921 19.2871,11.68919 31.6728,28.86449 34.5234,47.8736 3.2536,21.69692 -0.3172,25.40391 -10.6847,11.09203 -15.7858,-21.79168 -37.0033,-31.95979 -56.486,-27.06993 -14.3363,3.59816 -28.8828,19.57018 -34.0679,37.40639 -14.8644,51.13163 24.6528,94.82617 99.2073,109.69438 58.1194,11.59063 109.2315,-6.25407 157.8754,-55.11893 19.5152,-19.60385 27.6028,-30.6062 38.1617,-51.9149 12.6908,-25.61109 13.3979,-28.42261 13.3899,-53.23609 -0.01,-31.38188 -6.793,-47.09538 -26.4868,-61.36146 -24.2905,-17.59596 -52.4956,-19.23324 -77.6256,-4.5061 -31.1816,18.27363 -41.0696,59.82288 -19.3949,81.49751 6.8029,6.80288 11.3322,8.55472 22.1183,8.55472 24.8189,0 38.583,-19.47604 28.096,-39.75554 -7.1385,-13.8045 -3.4258,-14.69419 9.0901,-2.1783 8.4252,8.42525 10.7888,13.24092 10.7888,21.9819 0,43.27417 -52.4174,58.27048 -87.0564,24.90634 -18.9424,-18.24517 -23.2474,-36.18837 -15.681,-65.35767 4.4905,-17.31157 4.1578,-17.83731 -7.1863,-11.35245 -11.4081,6.52147 -12.8754,5.5564 -7.4635,-4.90902 7.5777,-14.65368 3.8699,-21.59347 -18.539,-34.69863 -26.0715,-15.24722 -35.0662,-25.94206 -35.0662,-41.69429 0,-15.86264 5.5517,-26.04441 22.9409,-42.07322 27.6956,-25.52891 72.15,-39.87148 123.624,-39.88547 62.3367,-0.0168 104.5744,20.11696 124.2971,59.25008 4.2857,8.50351 12.5567,20.76534 18.3801,27.24852 19.0605,21.22008 24.6291,45.33355 13.1256,56.83703 -13.8885,13.8885 -40.8041,11.94831 -74.0615,-5.33866 -1.2256,-0.63701 1.3166,6.58482 5.6492,16.04851 15.0546,32.8836 12.3999,66.76034 -8.2406,105.1556 -4.8936,9.10315 -8.4085,17.04019 -7.8108,17.63787 0.5977,0.59768 16.6756,-10.61173 35.7288,-24.90981 58.4054,-43.8292 112.3467,-65.90923 150.4196,-61.57192 46.041,5.24503 90.6041,50.27227 90.6041,91.54771 0,44.63145 -34.2107,77.62544 -83.3243,80.36101 l -22.0192,1.22644 15.2671,-8.09114 c 27.9298,-14.80193 38.2146,-28.50596 38.1009,-50.76761 -0.1365,-26.70452 -18.6853,-51.23276 -46.889,-62.00384 -19.0182,-7.26312 -55.1423,-5.13724 -78.2348,4.60406 -25.9714,10.95575 -59.3094,31.39224 -102.5012,62.83413 -60.2406,43.85277 -109.6564,76.74626 -132.82,88.41124 -32.4987,16.36608 -69.7207,26.13985 -106.6635,28.00767 -57.2294,2.89355 -104.6574,-10.26306 -189.313,-52.5157 -58.0299,-28.96345 -94.2247,-43.02464 -121.2389,-47.09966 -71.5011,-10.78581 -126.9264,27.60467 -131.4667,91.06067 -4.2617,59.56336 39.6903,97.84623 94.7738,82.5494 13.284,-3.68897 31.0465,-18.21685 37.4771,-30.65236 8.742,-16.90513 3.0979,-44.14587 -10.6738,-51.51628 -3.231,-1.72916 -12.1023,-3.14394 -19.714,-3.14394 -11.8863,0 -15.4329,1.5935 -25.1308,11.29136 l -11.2913,11.29133 2.0356,-10.17774 c 4.6124,-23.06238 23.1783,-39.97704 43.7058,-39.81881 13.0895,0.10107 32.0169,9.86485 42.6922,22.0233 40.0983,45.66949 -4.6775,117.39875 -77.073,123.46812 -43.292,3.62947 -76.6028,-15.5836 -94.60217,-54.56464 -8.11261,-17.56944 -8.88311,-22.16586 -8.88311,-52.9924 0,-32.88748 0.29588,-34.35255 11.51859,-57.05246 24.30669,-49.16406 76.10859,-74.99093 134.67379,-67.14427 11.1209,1.48998 20.2133,1.91331 20.2053,0.94073 -0.024,-3.0073 -55.0025,-37.37578 -83.9549,-52.4832 -98.63069,-51.46552 -189.49237,-59.37418 -245.94998,-21.40764 -49.65225,33.39008 -60.46092,99.07093 -22.26863,135.3193 20.36788,19.33121 55.27598,23.5713 82.47446,10.01771 18.11651,-9.02785 21.27914,-12.2207 36.22659,-36.57328 l 11.24507,-18.32061 -1.89032,16.79389 c -1.15044,10.22061 -6.35872,25.72128 -13.30651,39.6022 -19.04137,38.04253 -48.62384,55.05429 -95.73632,55.05429 -13.24226,0 -24.07684,1.23206 -24.07684,2.73789 0,1.50583 9.61833,13.32721 21.37405,26.26974 19.35139,21.30501 21.37405,24.74822 21.37405,36.3855 0,10.36076 -1.81686,14.59298 -9.368,21.82186 -8.18966,7.84015 -11.55027,8.94428 -26.71756,8.77777 -11.59048,-0.12733 -21.61685,-2.40775 -30.20501,-6.87023 -9.95542,-5.17291 -18.22124,-6.6949 -36.64123,-6.74684 -27.78524,-0.0785 -44.17194,-6.17462 -56.7374,-21.10781 -14.88422,-17.68889 -14.61553,-34.56929 0.77915,-48.95005 17.06439,-15.94055 51.17638,-19.61924 89.4244,-9.64372 11.33588,2.95651 20.61068,4.37868 20.61068,3.16036 0,-4.94168 -31.9482,-30.48733 -47.08264,-37.64705 -22.05533,-10.43386 -38.58585,-13.83432 -67.42117,-13.86916 -40.32302,-0.0489 -78.85156,11.91395 -108.38848,33.6534 l -13.73198,10.10687 13.73198,3.5204 c 34.04763,8.72858 51.95244,27.48079 51.8701,54.32504 -0.0481,15.67191 -13.19676,40.17917 -26.35373,49.11957 -15.51676,10.54391 -17.38542,10.01289 -9.82959,-2.79328 z m 238.8548,-20.02913 c 11.1422,-8.76446 10.73932,-22.62412 -1.13409,-39.0149 -10.57544,-14.59896 -13.84369,-15.62944 -16.4636,-5.19087 -1.03269,4.11456 -9.39853,15.60452 -18.59076,25.53322 l -16.71314,18.05218 12.91623,3.10773 c 20.76442,4.99609 31.30531,4.34036 39.98536,-2.48736 z m -220.96226,-7.6127 c 0,-3.48816 -7.04141,-15.25463 -13.12757,-21.93668 l -6.25756,-6.87023 h 8.16585 c 11.66832,0 10.0869,-4.31312 -3.8928,-10.61709 -10.66402,-4.8088 -11.86589,-6.40144 -10.392,-13.77091 1.80586,-9.02934 -3.53225,-12.12448 -21.06081,-12.21154 -6.97563,-0.0345 -8.39694,1.27609 -8.39694,7.74354 0,13.07429 8.23502,24.76846 29.78063,42.28999 19.51578,15.87084 25.1812,19.32953 25.1812,15.37292 z m 145.35293,-5.14278 c -1.05832,-3.77863 -2.74506,-12.45951 -3.74833,-19.29084 -1.65251,-11.25222 -0.90849,-13.19106 7.90923,-20.61069 13.56702,-11.41591 17.22808,-10.21652 7.54919,2.47319 -6.46115,8.47099 -7.73936,12.70834 -6.21734,20.61069 3.23847,16.81404 5.74347,18.87004 16.32434,13.39847 12.20463,-6.31127 24.18736,-20.91353 26.755,-32.60388 1.14178,-5.19847 1.45094,-10.07682 0.68703,-10.84073 -4.61718,-4.61716 -40.41662,-14.4367 -57.20747,-15.6916 -26.0284,-1.94532 -43.24261,2.90754 -53.48274,15.07722 -8.50412,10.10659 -8.8536,22.56189 -0.90187,32.14314 8.14324,9.812 30.09741,17.59732 61.61096,21.84831 1.45542,0.19634 1.78031,-2.73466 0.722,-6.51328 z M 1764.6639,256.07677 c 7.1118,-9.04121 7.9472,-16.69407 2.8935,-26.50651 -4.0495,-7.86255 -15.0889,-20.40995 -17.9571,-20.40995 -1.1038,0 -6.4024,6.78335 -11.7746,15.07412 -5.3723,8.29077 -13.9708,18.61079 -19.1079,22.93337 l -9.3402,7.85924 10.1967,4.42803 c 5.6082,2.43542 16.6237,4.48182 24.4789,4.54755 11.8699,0.0993 15.3511,-1.23937 20.6107,-7.92585 z m -164.3792,-24.07822 c 7.8312,-1.72003 8.8762,-3.26827 8.8803,-13.15719 0.01,-15.53646 8.6908,-31.21667 21.3694,-38.58482 8.7544,-5.08763 15.6564,-6.14874 38.1679,-5.86787 15.1145,0.18858 35.0363,2.4805 44.2707,5.09317 9.2344,2.61266 17.3268,4.21333 17.983,3.55703 2.721,-2.721 -15.6918,-22.66563 -29.1616,-31.58768 -38.4593,-25.47436 -103.2797,-28.48044 -156.7562,-7.26966 -19.2819,7.64791 -48.855,24.89622 -48.855,28.49436 0,0.97976 7.9008,4.26029 17.5573,7.29008 32.9228,10.32974 43.5114,23.99413 43.5114,56.15059 v 18.39975 l 17.0786,-10.28418 c 9.3932,-5.65629 21.0726,-11.1614 25.9542,-12.23358 z m -61.6789,13.03962 c -1.9766,-3.77863 -6.2406,-10.64886 -9.4757,-15.26718 l -5.8818,-8.39694 h 7.8415 c 12.0628,0 9.3251,-5.03519 -5.899,-10.84932 -14.8952,-5.68854 -16.2298,-7.71099 -9.0309,-13.68557 6.4164,-5.32513 2.529,-8.1611 -14.6332,-10.67512 l -14.5038,-2.12461 v 9.36333 c 0,15.64973 6.5689,25.18598 28.9627,42.0458 23.8375,17.94677 27.8906,19.66508 22.6202,9.58961 z m 147.1378,-1.82782 c -7.1875,-13.42987 -0.8586,-39.97904 10.5764,-44.36705 10.2927,-3.94967 10.702,-1.54146 1.6122,9.48599 -10.9004,13.22415 -10.9345,13.43149 -4.4545,27.08711 5.9013,12.43608 8.2271,12.72083 21.4603,2.62742 10.8464,-8.27295 15.5107,-15.27651 19.5469,-29.34985 2.3199,-8.08889 1.5817,-9.25243 -9.435,-14.87273 -18.5601,-9.46866 -53.9959,-13.98158 -74.2296,-9.45348 -22.0183,4.92747 -32.4997,14.64874 -32.4997,30.1427 v 11.74861 l 18.1229,3.74323 c 9.9676,2.05878 25.4256,7.61933 34.3512,12.35679 8.9255,4.73746 16.683,8.25476 17.2389,7.81623 0.556,-0.43853 -0.4746,-3.57277 -2.29,-6.96497 z"
   id="path1146" /><path
   style="fill:#ffdd55;fill-opacity:1;stroke-width:3.05344"
   d="M 338.9313,500.96766 C 201.38729,481.12119 86.053682,414.76556 44.9601,331.83524 32.246293,306.17771 32.061069,305.33931 32.061069,273.44844 c 0,-30.43319 0.59861,-33.57143 10.075686,-52.8221 18.079547,-36.72478 48.856289,-55.21041 92.214395,-55.38732 22.16702,-0.0905 28.18194,1.05719 41.22137,7.86499 8.39695,4.38399 18.2735,11.1985 21.94788,15.14336 20.36367,21.86263 25.45624,62.26857 11.40249,90.47076 -7.4057,14.86131 -24.65063,33.2895 -28.00914,29.93099 -0.83904,-0.83905 0.70754,-7.10653 3.43685,-13.92774 10.6158,-26.5315 2.60413,-61.15294 -16.99749,-73.45262 -7.96075,-4.99523 -13.82496,-6.09936 -27.67428,-5.21061 -34.14381,2.1911 -57.236082,28.35543 -57.236082,64.85043 0,72.16789 107.350132,147.4604 255.331142,179.08244 27.91811,5.96583 42.23185,7.10351 89.70703,7.13008 49.31499,0.0275 59.71627,-0.8495 81.9054,-6.90675 27.95478,-7.63117 67.16858,-26.34971 81.45337,-38.88143 9.00376,-7.89878 9.02987,-8.00657 1.52672,-6.30736 -76.42021,17.30665 -126.64885,13.6941 -165.30788,-11.88919 -24.79432,-16.40813 -41.69566,-52.06678 -37.60564,-79.34092 5.08183,-33.88798 34.46342,-62.44257 67.02992,-65.14324 24.0484,-1.99428 37.06382,1.4297 50.05743,13.16864 11.31945,10.22646 24.39695,33.37428 20.85564,36.91558 -0.99215,0.99217 -6.4746,-1.75852 -12.18315,-6.11266 -5.70858,-4.35413 -14.67957,-8.77668 -19.93554,-9.82787 -41.02696,-8.2054 -68.75463,49.91956 -39.63469,83.08535 14.99811,17.0819 30.42675,23.30012 61.91475,24.95356 50.2535,2.63881 86.61127,-10.74098 119.27951,-43.89529 56.94593,-57.79317 70.33591,-163.63165 25.79274,-203.87373 -31.70312,-28.64187 -75.66223,-19.7738 -95.45393,19.25636 -13.00296,25.64244 -10.05374,46.2068 8.74773,60.99603 18.11878,14.25224 43.92403,2.9717 43.92403,-19.201 0,-8.64857 -2.37692,-12.65714 -12.9771,-21.88525 l -12.9771,-11.29737 14.85264,1.56337 c 18.47047,1.94419 29.80391,10.08502 34.79472,24.99316 10.1029,30.17852 -19.84846,62.29787 -54.94788,58.92526 -32.58125,-3.13065 -57.91585,-34.94477 -58.20098,-73.08632 -0.36397,-48.6921 37.43384,-85.77018 87.92898,-86.25471 50.24916,-0.48216 82.49927,32.80719 89.49182,92.37561 l 2.39426,20.3964 L 720.41478,200 c 27.77203,-53.99635 65.13404,-96.31984 100.31988,-113.641761 37.53511,-18.478477 76.29187,-12.413087 105.11926,16.451041 33.68196,33.72489 35.27811,75.07385 4.20477,108.92468 -11.46565,12.4905 -37.35787,27.85892 -47.05701,27.93087 -2.26327,0.0168 0.71188,-5.74628 6.80547,-13.1827 14.51114,-17.70895 20.98222,-33.81589 18.43355,-45.88241 -3.64268,-17.2461 -13.09478,-28.76607 -30.64952,-37.35481 -29.71335,-14.53738 -62.21658,-6.72573 -93.40654,22.44881 -19.98818,18.69663 -35.82672,43.45604 -69.80088,109.11544 -15.64141,30.22901 -33.95964,63.89313 -40.70721,74.80916 -51.26058,82.92803 -113.60937,129.75035 -195.75979,147.01044 -36.67468,7.7055 -101.60546,9.73252 -138.98546,4.3389 z"
   id="path1148" /><path
   style="fill:#ffdd55;fill-opacity:1;stroke-width:3.05344"
   d="m 3418.75,656.18858 c -13.157,-8.9404 -26.3057,-33.44766 -26.3538,-49.11957 -0.082,-26.84425 17.8225,-45.59646 51.8702,-54.32504 l 13.7319,-3.5204 -13.7319,-10.10687 c -51.1727,-37.66354 -134.0055,-45.0673 -183.005,-16.35734 -13.8686,8.12589 -39.8874,30.52644 -39.8874,34.34049 0,1.16797 9.9619,-0.46168 22.1375,-3.62147 70.2199,-18.22339 123.6221,17.4044 88.5544,59.07997 -12.4446,14.78953 -28.9052,20.88425 -56.615,20.96238 -18.42,0.0519 -26.6858,1.57393 -36.6413,6.74684 -8.5881,4.46248 -18.6145,6.74303 -30.205,6.87023 -15.1673,0.16641 -18.5279,-0.93762 -26.7175,-8.77777 -7.5297,-7.2084 -9.368,-11.47203 -9.368,-21.72769 0,-11.4822 2.1396,-15.15555 21.374,-36.69542 11.7558,-13.1648 21.3741,-25.02855 21.3741,-26.36391 0,-1.33539 -10.8346,-2.42797 -24.0769,-2.42797 -47.1124,0 -76.6949,-17.01176 -95.7363,-55.05429 -6.9478,-13.88092 -12.156,-29.38159 -13.3065,-39.6022 l -1.8903,-16.79389 11.2451,18.32061 c 14.9474,24.35258 18.11,27.54543 36.2266,36.57328 18.268,9.10333 44.7347,10.35762 62.4455,2.95939 45.8786,-19.16458 57.0019,-81.96064 22.2953,-125.8677 -22.236,-28.1307 -54.9176,-42.86292 -101.0193,-45.53747 -50.5348,-2.93174 -107.2824,12.09832 -170.9924,45.28871 -29.5998,15.42034 -82.3083,48.50693 -82.3948,51.72156 -0.028,0.97844 7.8528,0.62317 17.5093,-0.78953 45.4126,-6.64357 95.5859,10.2447 121.5101,40.90012 4.6598,5.51035 12.7188,18.95011 17.9087,29.86614 8.7712,18.44864 9.4362,22.21432 9.4362,53.43512 0,30.64268 -0.7789,35.27465 -8.8831,52.82589 -17.9994,38.98104 -51.3102,58.19411 -94.6022,54.56464 -72.3955,-6.06937 -117.1713,-77.79863 -77.073,-123.46812 10.6753,-12.15845 29.6027,-21.92238 42.6922,-22.0233 20.5275,-0.15817 39.0934,16.75643 43.7058,39.81881 l 2.0356,10.17774 -11.2913,-11.29133 c -9.6979,-9.69786 -13.2445,-11.29136 -25.1308,-11.29136 -16.9982,0 -24.2163,3.63438 -30.2002,15.20605 -17.5716,33.97966 15.1742,73.30953 61.0371,73.30953 20.5834,0 34.9738,-5.77142 48.7568,-19.55445 17.2952,-17.2952 24.2823,-38.06501 22.2694,-66.19795 -4.5431,-63.4949 -60.1834,-101.99924 -131.4667,-90.9778 -29.4031,4.54613 -44.5546,10.38073 -118.1855,45.51151 -34.4275,16.42604 -72.4721,33.38073 -84.5435,37.6771 -72.1853,25.69157 -148.5554,21.53856 -214.4864,-11.66379 -23.1636,-11.66498 -72.5794,-44.55847 -132.82,-88.41124 -43.1918,-31.44189 -76.5298,-51.87838 -102.5012,-62.83413 -23.0925,-9.7413 -59.2166,-11.86718 -78.2348,-4.60406 -28.2037,10.77108 -46.7526,35.29932 -46.889,62.00384 -0.1137,22.26165 10.1711,35.96568 38.1009,50.76761 l 15.2671,8.09114 -22.0192,-1.22644 c -78.1728,-4.35411 -109.8118,-82.30568 -56.4579,-139.09962 16.2917,-17.34209 41.3943,-30.26373 63.7377,-32.8091 38.0729,-4.33731 92.0142,17.74272 150.4196,61.57192 19.0532,14.29808 35.1123,25.52633 35.6869,24.95167 0.5747,-0.57463 -3.5791,-9.88571 -9.2305,-20.69127 -19.6016,-37.47857 -21.6801,-69.59593 -6.6311,-102.46728 4.3193,-9.43459 7.8533,-17.76835 7.8533,-18.51946 0,-0.75111 -3.7786,1.2361 -8.3969,4.41602 -14.7662,10.16717 -27.6636,13.78755 -43.6465,12.2518 -35.1766,-3.38002 -40.7168,-30.38128 -12.538,-61.10565 6.5579,-7.15029 14.9958,-20.18273 18.751,-28.96099 7.5291,-17.60065 26.0909,-36.56459 45.4618,-46.44688 36.2052,-18.47054 102.1609,-20.47611 149.8015,-4.55514 47.3007,15.80734 76.5213,42.6298 76.5213,70.24112 0,16.76039 -8.4753,27.0589 -35.0662,42.6099 -22.4089,13.10516 -26.1167,20.04495 -18.539,34.69863 5.4119,10.46542 3.9446,11.43049 -7.4635,4.90902 -11.3441,-6.48486 -11.6768,-5.95912 -7.1863,11.35245 7.5664,29.1693 3.2614,47.1125 -15.681,65.35767 -34.639,33.36414 -87.0564,18.36783 -87.0564,-24.90634 0,-8.74098 2.3636,-13.55665 10.7888,-21.9819 12.5159,-12.51589 16.2286,-11.6262 9.0901,2.1783 -10.487,20.2795 3.2771,39.75554 28.096,39.75554 43.3492,0 45.3177,-65.09031 2.7234,-90.05223 -25.13,-14.72714 -53.3351,-13.08986 -77.6256,4.5061 -19.6938,14.26608 -26.4765,29.97958 -26.4868,61.36146 -0.01,24.81348 0.6991,27.625 13.3899,53.23609 10.5589,21.3087 18.6465,32.31105 38.1617,51.9149 48.5941,48.81481 99.6111,66.64907 157.8754,55.18931 70.4642,-13.85926 111.4064,-56.44366 100.6176,-104.65322 -11.2142,-50.11049 -60.8188,-58.44299 -91.9642,-15.448 -10.3675,14.31188 -13.9383,10.60489 -10.6847,-11.09203 2.8506,-19.00911 15.2363,-36.18441 34.5234,-47.8736 23.0853,-13.99117 46.8952,-14.45249 70.6684,-1.36921 40.1236,22.0815 55.7857,69.30339 36.5549,110.21493 -12.3694,26.31497 -46.1251,56.21839 -80.4611,71.27881 -19.331,8.47897 -60.3842,18.44825 -76.3359,18.53726 -21.6951,0.12091 -22.9284,4.9796 -2.8379,11.18045 14.1199,4.35802 27.5147,5.53252 60.8532,5.33579 37.2291,-0.21985 46.296,-1.32018 70.229,-8.52394 150.6908,-45.3574 310.0939,-214.51269 311.1095,-330.14307 0.5401,-61.48416 -55.0439,-98.782926 -104.2444,-69.95155 -31.4576,18.4341 -32.8996,56.11381 -3.5648,93.15192 11.396,14.38864 6.7051,15.55266 -12.8076,3.17812 -28.2197,-17.89643 -44.475,-48.00764 -41.6708,-77.19096 2.022,-21.04395 16.374,-47.560038 32.3287,-59.729079 28.0391,-21.386143 73.6926,-25.183433 107.8352,-8.969341 64.6091,30.68237 86.4688,130.9346 43.9469,201.5482 -5.9374,9.85996 -10.7953,18.39408 -10.7953,18.96473 0,0.57065 9.8221,-3.66957 21.8269,-9.42271 33.2533,-15.93623 60.1976,-20.84652 104.3701,-19.0203 71.1824,2.94287 132.5124,28.42827 177.5564,73.78266 25.2105,25.38425 36.8928,45.65066 42.8874,74.40111 5.2589,25.22158 2.4377,47.7338 -9.1552,73.056 -4.2914,9.37352 -7.3482,17.49706 -6.7929,18.0523 0.5552,0.55527 5.7277,-0.41853 11.4943,-2.16397 16.5603,-5.01246 71.9071,-4.25255 95.1683,1.30666 53.4691,12.77862 94.2086,46.38904 95.0484,78.41575 0.4105,15.65884 -7.0043,25.02254 -29.9964,37.88043 -11.0283,6.16739 -22.2392,14.55246 -24.9132,18.63347 -4.5239,6.9043 -4.4219,8.16565 1.4672,18.14687 7.5558,12.80617 5.6871,13.33719 -9.8296,2.79328 z m -191.6311,-20.04198 15.3711,-3.5481 -16.645,-17.97853 c -9.1547,-9.88821 -17.4899,-21.34501 -18.5226,-25.45957 -2.6199,-10.43857 -5.8881,-9.40809 -16.4636,5.19087 -11.8734,16.39078 -12.2762,30.25044 -1.134,39.0149 9.221,7.25325 15.8737,7.74791 37.3941,2.78043 z m 70.8932,-15.07649 c 27.1639,-6.76431 42.6109,-27.8371 32.1305,-43.83225 -9.8086,-14.9698 -19.1692,-18.46846 -49.0923,-18.34888 -20.6798,0.0828 -32.1322,1.78781 -45.6008,6.78968 -9.8921,3.67365 -18.6106,7.30433 -19.3745,8.06824 -0.7639,0.76391 -0.4548,5.64226 0.687,10.84073 2.5676,11.69035 14.5504,26.29261 26.755,32.60388 10.5809,5.47157 13.0859,3.41557 16.3243,-13.39847 1.5221,-7.90235 0.2437,-12.1397 -6.2173,-20.61069 -9.6789,-12.68971 -6.0178,-13.8891 7.5492,-2.47319 8.8177,7.41963 9.5617,9.35847 7.9092,20.61069 -1.0033,6.83133 -2.6735,15.44916 -3.7117,19.15071 -1.7627,6.2851 -1.1093,6.6179 9.8823,5.0331 6.4735,-0.93337 16.715,-2.92845 22.7591,-4.43355 z m 137.2464,-10.49799 c 22.047,-17.59096 30.3904,-29.25377 30.3904,-42.48156 0,-6.46745 -1.4214,-7.77816 -8.397,-7.74354 -17.5285,0.087 -22.8667,3.1822 -21.0608,12.21154 1.4739,7.36947 0.2721,8.96211 -10.392,13.77091 -13.9797,6.30397 -15.5611,10.61709 -3.8928,10.61709 h 8.1659 l -6.2576,6.87023 c -6.0862,6.68205 -13.1276,18.44852 -13.1276,21.93668 0,3.68476 4.1052,1.14842 24.5715,-15.18135 z m -1155.4908,-350.99143 10.8692,-4.54145 -9.3474,-7.86534 c -5.1411,-4.32594 -13.7429,-14.6487 -19.1152,-22.93947 -5.3722,-8.29077 -10.6708,-15.07412 -11.7746,-15.07412 -2.8682,0 -13.9076,12.5474 -17.9571,20.40995 -5.0537,9.81244 -4.2183,17.4653 2.8935,26.50651 5.1466,6.54275 8.8717,8.04537 19.9454,8.04537 7.4893,0 18.5081,-2.04365 24.4862,-4.54145 z m 170.3066,-57.23684 c 6.9122,-10.4485 20.5022,-18.64785 39.2387,-23.67415 7.9771,-2.13996 14.4944,-4.7428 14.4829,-5.78408 -0.035,-3.21805 -18.8617,-14.85117 -39.961,-24.69274 -29.0902,-13.56886 -59.6807,-19.3207 -92.8425,-17.45694 -32.6183,1.83321 -53.0658,7.6526 -72.7868,20.71525 -13.4698,8.92205 -31.8826,28.86668 -29.1616,31.58768 0.6563,0.6563 8.7486,-0.94437 17.983,-3.55703 9.2344,-2.61267 29.1562,-4.9046 44.2707,-5.09317 22.5115,-0.28086 29.4135,0.78024 38.1679,5.86787 12.6115,7.32914 21.3627,23.03188 21.3694,38.34411 0,10.02521 0.9881,11.26211 11.4551,14.40268 6.2977,1.88959 17.6336,7.35671 25.1908,12.14916 l 13.7405,8.71353 1.6667,-21.5895 c 1.0258,-13.28766 3.7891,-24.79771 7.1862,-29.93267 z m -86.5797,27.67123 18.1848,-3.75601 v -11.74861 c 0,-15.49396 -10.4814,-25.21523 -32.4997,-30.1427 -20.2336,-4.5281 -55.6695,-0.0153 -74.2296,9.45348 -11.0167,5.6203 -11.7549,6.78384 -9.435,14.87273 4.0362,14.07334 8.7005,21.0769 19.5469,29.34985 13.2332,10.09341 15.559,9.80866 21.4603,-2.62742 6.48,-13.65562 6.4459,-13.86296 -4.4545,-27.08711 -6.9329,-8.41076 -8.1287,-11.38273 -4.5802,-11.38273 6.5674,0 16.446,10.4053 18.8061,19.80875 2.0352,8.10882 0.6752,20.72083 -3.2156,29.82053 -1.8363,4.2945 1.1274,3.55707 14.9711,-3.72515 9.4934,-4.99378 25.4438,-10.76981 35.4454,-12.83561 z m 119.0723,6.32488 c 22.8772,-16.63945 30.4102,-27.20245 30.4102,-42.6419 v -9.65863 l -14.5038,2.12461 c -17.1622,2.51402 -21.0496,5.34999 -14.6332,10.67512 7.1989,5.97458 5.8643,7.99703 -9.0309,13.68557 -15.2241,5.81413 -17.9618,10.84932 -5.899,10.84932 h 7.8415 l -5.8818,8.39694 c -7.8352,11.18553 -13.4694,22.13741 -11.3886,22.13741 0.9245,0 11.313,-7.0058 23.0856,-15.56844 z"
   id="path1150" /><path
   style="fill:#ffdd55;fill-opacity:1;stroke-width:3.05344"
   d="m 297.70992,255.44525 c -15.89354,-9.71732 -17.42127,-13.20462 -12.23022,-27.9176 6.42695,-18.21593 6.03988,-19.40059 -5.71545,-17.49296 -8.81419,1.43035 -10.81009,0.58044 -13.74046,-5.85103 -1.8856,-4.13844 -3.42837,-10.94964 -3.42837,-15.136 0,-9.38981 9.40546,-28.317 17.88004,-35.98112 6.1805,-5.58943 6.58522,-5.57184 18.84672,0.81921 6.89183,3.59222 13.63362,5.84961 14.98176,5.01641 1.34814,-0.8332 3.32018,-6.94943 4.3823,-13.59162 1.36892,-8.5607 3.78541,-12.66523 8.30013,-14.09815 11.57675,-3.67432 26.9251,1.58363 39.47673,13.52371 l 12.22258,11.62706 -4.54179,10.87005 -4.5418,10.87004 10.6188,6.26524 c 8.72999,5.15082 10.60688,8.04873 10.55175,16.29189 -0.0783,11.70212 -8.8999,32.56804 -16.3896,38.76651 -4.51126,3.73353 -6.63949,3.63106 -15.85467,-0.76335 -14.66756,-6.99448 -15.50809,-6.67066 -17.66289,6.8047 -1.06724,6.67412 -4.02389,12.69556 -6.74686,13.74046 -9.43047,3.61881 -27.36677,1.7648 -36.4087,-3.76345 z m 44.38439,-52.59657 c 2.62761,-4.90972 2.29673,-7.96168 -1.48967,-13.74046 -2.67716,-4.08586 -6.44525,-7.42883 -8.37353,-7.42883 -5.42742,0 -14.67386,9.5337 -14.67386,15.12973 0,12.48888 18.6312,17.07477 24.53706,6.03956 z"
   id="path1152" /><path
   style="fill:#ffdd55;fill-opacity:1;stroke-width:3.05344"
   d="m 55.690201,432.82779 c -6.811276,-2.297 -10.423181,-12.3832 -6.835239,-19.08733 4.339468,-8.10837 12.681773,-7.72578 20.837541,0.95563 l 6.634877,7.06251 -8.392697,6.18407 c -4.615984,3.40124 -10.126001,5.59955 -12.244482,4.88512 z"
   id="path1154" /><path
   style="fill:#ffdd55;fill-opacity:1;stroke-width:3.05344"
   d="m 312.9771,656.72529 -9.16031,-4.06796 9.16031,-3.49091 c 25.48918,-9.71371 30.66044,-16.59623 35.41355,-47.13262 1.61184,-10.35523 6.35919,-25.54505 10.54968,-33.75515 8.2776,-16.21766 8.82309,-13.35909 -6.61993,-34.69086 l -4.97366,-6.87023 16.40296,-0.0477 c 9.02164,-0.0262 24.64725,-2.03836 34.72358,-4.47138 10.07634,-2.43303 27.41081,-4.47264 38.52105,-4.53246 17.12268,-0.0922 23.46778,1.52582 41.64516,10.61959 30.45831,15.23767 31.90307,17.89578 14.02522,25.804 -8.01845,3.54694 -17.17999,8.80108 -20.35898,11.67587 -10.13382,9.16409 -18.10823,28.889 -19.70094,48.73077 -0.85013,10.59081 -2.57903,19.89466 -3.84201,20.67522 -1.26297,0.78056 -7.20103,-4.00974 -13.19569,-10.6451 l -10.89938,-12.06431 -17.69987,17.69988 c -27.22147,27.22146 -67.11837,38.49699 -93.99074,26.56335 z m 47.74615,-16.24473 c 6.95709,-6.2853 20.50949,-21.75346 30.11644,-34.37369 28.26159,-37.12595 43.09972,-48.75923 75.84674,-59.46479 21.90311,-7.16049 16.94962,-11.00304 -16.77717,-13.01445 l -27.0085,-1.61075 6.87023,7.4708 c 8.95397,9.7367 8.66628,11.65736 -1.74614,11.65736 -13.4921,0 -34.92566,8.44476 -47.27983,18.62811 -13.2077,10.8869 -14.20026,14.95967 -3.64578,14.95967 9.13422,0 9.51703,2.11692 1.89701,10.49023 -9.21369,10.12453 -36.99056,56.68535 -33.81688,56.68535 1.59205,0 8.5868,-5.14253 15.54388,-11.42784 z"
   id="path1156" /><path
   style="fill:#ffdd55;fill-opacity:1;stroke-width:3.05344"
   d="m 212.6677,544.84972 c -10.46666,-8.23307 -12.7017,-16.82213 -6.74365,-25.91526 3.23983,-4.9446 7.7291,-7.46821 13.23031,-7.43732 10.08528,0.0566 13.92332,2.40167 18.6639,11.40362 4.33662,8.23487 1.0251,15.93838 -9.93988,23.12291 -6.98493,4.57671 -7.99946,4.4984 -15.21068,-1.17395 z"
   id="path1158" /><path
   style="fill:#ffdd55;fill-opacity:1;stroke-width:3.05344"
   d="m 125.19084,493.12977 c -3.35878,-3.35878 -6.10687,-8.16794 -6.10687,-10.68702 0,-5.91838 10.87552,-16.7939 16.79389,-16.7939 7.60252,0 16.52231,11.06602 14.66002,18.18742 -1.59666,6.10562 -11.77606,15.40037 -16.86614,15.40037 -1.30572,0 -5.12212,-2.74809 -8.4809,-6.10687 z"
   id="path1160" /><path
   style="fill:#ffdd55;fill-opacity:1;stroke-width:3.05344"
   d="m 1280.916,286.42195 c -3.3587,-0.72804 -10.8003,-2.78995 -16.5367,-4.58202 l -10.4298,-3.25832 14.8256,-5.6277 c 8.1541,-3.09524 16.6412,-7.44332 18.8603,-9.66241 2.2191,-2.2191 7.3486,-17.41764 11.3989,-33.77454 4.0503,-16.3569 10.23,-34.59698 13.7326,-40.53352 l 6.3685,-10.79369 -11.0806,-13.52236 -11.0805,-13.52235 19.4518,-0.10727 c 10.6985,-0.059 28.3831,-2.07179 39.2991,-4.47288 10.916,-2.4011 25.6355,-4.4139 32.7099,-4.47289 15.4644,-0.12897 40.1869,8.75323 58.7178,21.09595 l 13.5651,9.03518 -8.4204,3.20141 c -4.6312,1.76078 -9.701,3.20141 -11.2662,3.20141 -1.5652,0 -8.2641,4.89506 -14.8864,10.87791 -13.3977,12.10398 -20.2082,28.80358 -23.5186,57.6679 l -2.0831,18.16413 -11.042,-12.82062 c -6.073,-7.05134 -12.0066,-12.82061 -13.1858,-12.82061 -1.1792,0 -7.8435,6.18329 -14.8096,13.74066 -19.6766,21.34655 -59.358,37.58875 -80.5899,32.98663 z m 29.8184,-19.45199 c 6.2494,-5.15125 17.7662,-17.86117 25.5929,-28.24427 24.8095,-32.91264 41.0739,-47.98322 63.5866,-58.9191 11.7083,-5.68752 23.6501,-10.34094 26.5373,-10.34094 6.8028,0 9.8787,-4.9871 4.3779,-7.09797 -2.3377,-0.89706 -13.8194,-2.57392 -25.5149,-3.72637 l -21.2646,-2.09536 -3.2144,9.2208 c -2.701,7.74807 -5.987,10.02682 -20.5737,14.26729 -11.5799,3.36639 -21.5783,9.02944 -30.0318,17.01003 l -12.6724,11.96354 9.7573,0.0763 9.7573,0.0764 -21.2077,31.8865 c -11.6643,17.53757 -21.2077,32.65208 -21.2077,33.58779 0,3.75508 5.274,1.24086 16.0779,-7.66464 z"
   id="path1162" /><path
   style="fill:#ffdd55;fill-opacity:1;stroke-width:3.05344"
   d="m 1450.4729,141.64095 c -25.6572,-10.23973 -35.21,-27.85243 -38.3733,-70.750113 -2.3843,-32.332581 -9.4962,-43.715777 -29.2901,-46.880948 -14.9526,-2.391023 -13.9905,-6.700143 3.4862,-15.6129424 23.8796,-12.1781459 47.3408,-7.2584402 62.9201,13.1940354 8.6179,11.313537 8.7995,12.344172 8.7995,49.942307 0,41.004681 1.966,48.276551 15.439,57.104391 7.5478,4.94551 22.9874,4.69799 36.1226,-0.5791 4.2308,-1.69972 5.3799,-1.17157 4.328,1.98921 -3.6256,10.89381 -45.8485,18.61069 -63.432,11.59316 z m 2.9823,-24.11229 c -6.0189,-17.907136 -12.2338,-56.797683 -12.2338,-76.554104 0,-11.167649 -0.4233,-11.754339 -5.9776,-8.285625 -5.0694,3.16589 -7.157,2.625051 -13.7404,-3.559816 -9.2459,-8.68603 -9.7093,-6.801272 -2.0647,8.397108 3.134,6.230806 8.0747,22.321105 10.9794,35.75622 5.7156,26.436748 14.2334,48.469717 22.0971,57.159067 2.7245,3.01059 5.3185,5.10899 5.7644,4.66312 0.4459,-0.44588 -1.7251,-8.35506 -4.8244,-17.57597 z"
   id="path1166" /><path
   style="fill:#ffdd55;fill-opacity:1;stroke-width:3.05344"
   d="m 3553.002,501.87008 c -100.1644,-12.85591 -169.0357,-59.11045 -226.6973,-152.25176 -6.7578,-10.91603 -25.1132,-44.58015 -40.7897,-74.80916 -34.64,-66.79645 -44.7491,-83.0272 -65.1422,-104.58991 -19.3257,-20.43413 -40.1868,-31.44872 -63.5798,-33.56992 -41.8271,-3.79275 -76.0659,32.01054 -62.2449,65.08901 2.65,6.3422 9.6901,17.4769 15.6448,24.74379 12.3099,15.02268 9.5178,16.34552 -12.483,5.91409 -28.8965,-13.70097 -50.1804,-44.31319 -50.3146,-72.36653 -0.1583,-33.07979 30.5754,-70.595121 66.3548,-80.996457 C 3169.4908,62.82896 3232.7773,108.99262 3279.5852,200 l 10.2081,19.84733 2.3943,-20.3964 c 4.8959,-41.70725 20.096,-67.74165 48.7115,-83.43187 32.6931,-17.926032 81.9076,-9.12995 106.6619,19.06365 41.6422,47.42785 20.0307,125.93503 -36.1536,131.33364 -35.0994,3.37261 -65.0508,-28.74674 -54.9479,-58.92526 4.9908,-14.90814 16.3243,-23.04897 34.7947,-24.99316 l 14.8527,-1.56337 -12.9771,11.29737 c -15.8215,13.77359 -17.734,27.71627 -5.4823,39.96793 24.0073,24.00735 61.7911,-11.05301 50.9406,-47.26886 -11.5698,-38.61649 -50.8892,-58.77445 -84.3896,-43.26424 -35.8079,16.57849 -51.2392,62.81538 -39.9217,119.61746 14.0437,70.48427 62.7823,124.81838 123.221,137.36747 25.2052,5.23344 69.3112,2.34321 84.6396,-5.54638 32.7388,-16.85085 43.6946,-50.33952 25.9732,-79.39276 -14.1542,-23.20504 -40.9977,-28.11733 -62.7955,-11.49139 -5.9989,4.57557 -11.7188,7.50744 -12.711,6.51527 -3.5413,-3.5413 9.5362,-26.68912 20.8557,-36.91558 12.9936,-11.73894 26.009,-15.16292 50.0574,-13.16864 45.0555,3.73635 77.1615,51.12472 64.3935,95.04483 -12.9907,44.68659 -50.7199,68.81554 -111.7275,71.45322 -24.6987,1.06785 -39.0411,-0.0565 -62.457,-4.89579 -16.7178,-3.45505 -30.8391,-5.83871 -31.3808,-5.29703 -2.0509,2.0509 20.8271,17.40861 41.0588,27.56216 39.3505,19.74867 65.0076,24.63735 129.1149,24.6015 47.4752,-0.0275 61.7889,-1.16425 89.707,-7.13008 119.3125,-25.49587 215.626,-80.74601 245.7113,-140.95206 24.4276,-48.88393 0.8525,-99.87044 -47.6162,-102.98081 -13.8494,-0.88875 -19.7136,0.21539 -27.6743,5.21061 -19.6016,12.29968 -27.6133,46.92112 -16.9975,73.45262 2.7293,6.82121 4.2759,13.08869 3.4369,13.92774 -3.3585,3.35851 -20.6035,-15.06968 -28.0092,-29.93099 -14.0537,-28.20219 -8.9612,-68.60813 11.4025,-90.47076 3.6744,-3.94486 13.5509,-10.75937 21.9479,-15.14336 12.9641,-6.76849 19.1823,-7.97137 41.2214,-7.97406 22.2911,-0.003 28.4915,1.22431 43.9322,8.69397 22.7836,11.02182 39.961,28.15808 50.2725,50.15177 7.148,15.24636 8.0853,20.98927 8.0853,49.53695 0,31.7576 -0.2107,32.71642 -12.751,58.01527 -41.6091,83.94287 -159.5695,151.33343 -296.258,169.25172 -37.8303,4.95912 -72.9676,5.32083 -105.9279,1.09045 z"
   id="path1168" /><path
   style="fill:#ffdd55;fill-opacity:1;stroke-width:3.05344"
   d="m 3664.8806,259.04485 c -2.1019,-0.84795 -4.6821,-6.92268 -5.7337,-13.4994 -2.1626,-13.52409 -4.7542,-14.38064 -18.377,-6.07394 -9.5786,5.84066 -9.6334,5.83784 -15.8848,-0.81644 -8.3228,-8.85926 -15.7248,-27.05725 -15.7248,-38.65998 0,-7.45056 2.1675,-10.64018 10.6188,-15.6266 10.5752,-6.23953 10.6008,-6.30823 6.2425,-16.73916 -4.2248,-10.1115 -4.0542,-10.84073 4.9316,-21.07497 10.277,-11.70484 28.3274,-18.66056 40.498,-15.60592 6.34,1.59125 8.265,4.37132 9.838,14.20857 1.0756,6.72664 3.0587,12.91195 4.4069,13.74515 1.3481,0.8332 8.1068,-1.43302 15.0194,-5.03604 l 12.5682,-6.55095 7.3083,6.86573 c 14.8852,13.98398 20.403,34.59813 13.3842,50.00276 -2.9304,6.43147 -4.9263,7.28138 -13.7404,5.85103 -11.7609,-1.90852 -12.1442,-0.72791 -5.6967,17.54626 4.2517,12.0507 4.1922,13.54931 -0.7561,19.01711 -11.0671,12.22897 -34.597,18.21787 -48.9024,12.44679 z m 13.898,-53.54867 c 5.0779,-5.07791 4.578,-11.63911 -1.3893,-18.23285 -6.8475,-7.56646 -12.186,-7.01911 -17.9939,1.84489 -3.7864,5.77878 -4.1173,8.83074 -1.4897,13.74046 3.7266,6.96316 15.113,8.40741 20.8729,2.6475 z"
   id="path1170" /><path
   style="fill:#ffdd55;fill-opacity:1;stroke-width:3.05344"
   d="m 3627.5143,654.31703 c -11.4132,-4.38093 -22.411,-12.08392 -34.4713,-24.14422 l -17.7107,-17.71075 -10.8994,12.06431 c -5.9946,6.63536 -11.9327,11.42566 -13.1957,10.6451 -1.263,-0.78056 -2.9919,-10.08441 -3.842,-20.67522 -1.5927,-19.84177 -9.5671,-39.56668 -19.7009,-48.73077 -3.179,-2.87479 -12.3406,-8.12893 -20.359,-11.67587 -17.8779,-7.90822 -16.4331,-10.56633 14.0252,-25.804 18.1774,-9.09377 24.5225,-10.71179 41.6452,-10.61959 11.1102,0.0598 28.4447,2.09943 38.521,4.53246 10.0764,2.43302 25.702,4.44515 34.7236,4.47138 l 16.403,0.0477 -4.9737,6.87023 c -15.443,21.33177 -14.8975,18.4732 -6.6199,34.69086 4.1905,8.2101 8.9378,23.39992 10.5496,33.75515 4.7532,30.53639 9.9244,37.41891 35.4136,47.13262 l 9.1603,3.49091 -9.1603,4.06796 c -13.6142,6.0459 -40.297,4.96607 -59.5086,-2.40826 z m 14.7135,-27.59947 c -8.5181,-13.85496 -18.0689,-28.02749 -21.2241,-31.49451 -7.62,-8.37331 -7.2372,-10.49023 1.8971,-10.49023 10.5544,0 9.5619,-4.07277 -3.6458,-14.95967 -12.3542,-10.18335 -33.7878,-18.62811 -47.2799,-18.62811 -10.4124,0 -10.7001,-1.92066 -1.7461,-11.65736 l 6.8702,-7.4708 -27.0085,1.61075 c -33.7267,2.01141 -38.6802,5.85396 -16.7771,13.01445 32.747,10.70556 47.5851,22.33884 75.8467,59.46479 17.5109,23.00328 40.2389,45.80153 45.6603,45.80153 1.5921,0 -4.0747,-11.33588 -12.5928,-25.19084 z"
   id="path1172" /><path
   style="fill:#ffdd55;fill-opacity:1;stroke-width:3.05344"
   d="m 3770.2665,544.87695 c -19.1686,-11.39316 -7.4891,-37.22052 14.8832,-32.91201 3.014,0.58045 7.5602,4.7613 10.1025,9.29077 4.2661,7.6006 4.1329,8.89346 -1.7281,16.77229 -6.9545,9.34881 -15.0438,11.73097 -23.2576,6.84895 z"
   id="path1174" /><path
   style="fill:#ffdd55;fill-opacity:1;stroke-width:3.05344"
   d=""
   id="path1176" /><path
   style="fill:#ffdd55;fill-opacity:1;stroke-width:3.05344"
   d="m 3932.1755,427.46139 -8.0826,-6.95234 6.8526,-6.43773 c 3.769,-3.54075 9.1204,-6.43773 11.892,-6.43773 7.2304,0 12.3371,10.79122 8.4998,17.96137 -4.7641,8.90184 -10.3501,9.44593 -19.1618,1.86643 z"
   id="path1178" /><path
   style="fill:#ffdd55;fill-opacity:1;stroke-width:3.05344"
   d=""
   id="path1180" /><path
   style="fill:#ffdd55;fill-opacity:1;stroke-width:3.05344"
   d="m 3983.785,355.25548 c -6.2416,-3.493 -6.6592,-9.75127 -0.9659,-14.47627 6.0462,-5.01795 14.1275,-0.83511 14.1275,7.31239 0,8.12622 -5.8004,11.28339 -13.1616,7.16388 z"
   id="path1182" /><path
   style="fill:#ffdd55;fill-opacity:1;stroke-width:3.05344"
   d="m 3854.823,491.74185 c -9.0857,-9.08571 -9.2936,-12.08038 -1.3879,-19.98612 7.7275,-7.7275 13.6466,-7.7275 21.3741,0 7.7275,7.72749 7.7275,13.64655 0,21.37404 -7.9058,7.90574 -10.9005,7.69778 -19.9862,-1.38792 z"
   id="path1184" /><path
   style="fill:#ffdd55;fill-opacity:1;stroke-width:3.05344"
   d=""
   id="path1186" /><path
   style="fill:#ffdd55;fill-opacity:1;stroke-width:3.05344"
   d="m 2693.8092,285.29824 c -18.5765,-3.64915 -41.6669,-17.05642 -55.8214,-32.41222 -6.6877,-7.25525 -13.1241,-13.19136 -14.3033,-13.19136 -1.1792,0 -7.1128,5.76927 -13.1858,12.82061 l -11.042,12.82062 -2.0831,-18.16413 c -3.3104,-28.86432 -10.1209,-45.56392 -23.5186,-57.6679 -6.6223,-5.98285 -13.3212,-10.87791 -14.8864,-10.87791 -1.5652,0 -6.635,-1.44063 -11.2662,-3.20141 l -8.4204,-3.20141 13.5651,-9.03518 c 18.5309,-12.34272 43.2534,-21.22492 58.7178,-21.09595 7.0744,0.059 21.7939,2.07179 32.7099,4.47289 10.916,2.40109 28.6006,4.41389 39.2991,4.47288 l 19.4518,0.10727 -11.0805,13.52235 -11.0806,13.52236 6.3685,10.79369 c 3.5026,5.93654 9.6616,24.09305 13.6866,40.34781 4.025,16.25475 9.4838,31.94711 12.1307,34.8719 2.6469,2.92479 11.2241,7.11291 19.0604,9.30695 l 14.2479,3.98917 -9.0572,3.6002 c -13.9605,5.54925 -29.1518,7.01582 -43.4923,4.19877 z m 11.5343,-10.66364 c 0,-0.93571 -9.5434,-16.05022 -21.2077,-33.58779 l -21.2077,-31.8865 9.7573,-0.0763 9.7573,-0.0763 -12.6724,-11.96354 c -8.4535,-7.98061 -18.4519,-13.64366 -30.0318,-17.01005 -14.6134,-4.24822 -17.8703,-6.51216 -20.5894,-14.31213 l -3.23,-9.26564 -20.6804,1.92204 c -11.3742,1.05712 -22.8489,2.75417 -25.4993,3.77121 -5.9514,2.28379 -3.3312,7.31613 3.8094,7.31613 2.8872,0 14.829,4.65342 26.5373,10.34094 22.5127,10.93588 38.7771,26.00646 63.5866,58.9191 17.5193,23.24149 41.6708,44.05349 41.6708,35.90891 z"
   id="path1188" /><path
   style="fill:#ffdd55;fill-opacity:1;stroke-width:3.05344"
   d="m 2501.0156,139.69358 c -7.4186,-2.93834 -14.1328,-7.27894 -14.9205,-9.64579 -1.0519,-3.16078 0.097,-3.68893 4.328,-1.98921 13.1352,5.27709 28.5748,5.52461 36.1226,0.5791 13.473,-8.82784 15.439,-16.09971 15.439,-57.104391 0,-37.598135 0.1816,-38.62877 8.7995,-49.942307 15.5793,-20.4524756 39.0405,-25.3721813 62.9201,-13.1940354 17.3734,8.8601554 18.4368,13.2222424 3.7941,15.5637054 -21.7328,3.475215 -30.4581,20.726194 -31.1239,61.535531 -0.5551,34.027407 -21.7906,56.824017 -54.5896,58.602687 -11.2529,0.61024 -21.9862,-0.92645 -30.7693,-4.40529 z m 57.1658,-27.69756 c 3.3409,-7.85735 8.461,-25.278463 11.378,-38.713577 2.917,-13.435115 7.8679,-29.525414 11.0019,-35.75622 7.6446,-15.19838 7.1812,-17.083138 -2.0647,-8.397108 -6.3355,5.951969 -8.7846,6.654748 -13.3202,3.822265 -5.1692,-3.228256 -5.7001,-1.579236 -7.602,23.615704 -1.8463,24.457005 -9.0025,58.669516 -15.6314,74.730626 -2.454,5.94569 -2.3531,5.96009 3.8218,0.54564 3.4882,-3.05868 9.0757,-11.98998 12.4166,-19.84733 z"
   id="path1190" /><path
   style="fill:#ffdd55;fill-opacity:1;stroke-width:3.05344"
   d=""
   id="path1192" /><path
   style="fill:#ffdd55;fill-opacity:1;stroke-width:3.05344"
   d="m 2220.458,565.80153 c -2.0153,-2.01527 -3.6641,-7.43036 -3.6641,-12.03354 0,-11.23024 -3.3453,-12.62549 -16.7963,-7.00532 -10.5189,4.39507 -11.7784,4.33897 -17.4309,-0.77642 -9.6585,-8.74083 -14.6278,-20.91369 -14.6278,-35.83254 0,-12.35622 0.9977,-14.3296 9.456,-18.70354 9.6612,-4.99601 9.6603,-4.99049 3.8984,-22.86242 -3.7926,-11.76381 22.3878,-30.41981 42.6888,-30.41981 9.9315,0 11.1133,0.96486 14.0253,11.45038 1.7489,6.29771 3.1876,13.16794 3.1969,15.26718 0.022,5.02924 0.6208,4.9276 16.551,-2.81191 16.472,-8.0027 19.329,-6.39196 31.0099,17.48307 7.1098,14.53192 7.5958,17.5229 4.4135,27.16524 -3.2861,9.95707 -4.5448,10.83535 -15.5282,10.83535 h -11.9522 l 4.8866,12.21294 c 2.6877,6.71711 4.0558,15.52331 3.0404,19.56932 -3.543,14.11625 -43.2261,26.4032 -53.1673,16.46202 z m 14.0458,-51.9084 c 6.4124,-6.41235 4.3152,-17.5442 -4.0207,-21.34231 -6.5062,-2.96439 -8.3646,-2.60309 -12.1167,2.35554 -5.4823,7.24541 -5.9263,18.56386 -0.8091,20.62866 6.7733,2.73311 13.1935,2.11108 16.9465,-1.64189 z"
   id="path1194" /><path
   style="fill:#ffdd55;fill-opacity:1;stroke-width:3.05344"
   d="m 1980.8274,618.72607 c -46.6441,-49.86628 -46.4626,-122.26497 0.4164,-166.11478 8.4926,-7.94384 16.9329,-14.44335 18.7562,-14.44335 6.3789,0 34.262,29.01433 41.3776,43.05646 16.5737,32.70656 16.5961,69.3011 0.065,105.41067 -8.4748,18.51153 -33.5781,46.95272 -41.4422,46.95272 -2.8992,0 -11.5268,-6.68778 -19.1726,-14.86172 z m 30.3984,-42.39019 c 7.2782,-14.8216 8.6215,-21.36338 8.6215,-41.98473 0,-20.47838 -1.299,-26.89568 -8.0353,-39.69466 -4.4195,-8.39695 -9.7349,-15.26718 -11.812,-15.26718 -2.0771,0 -7.3925,6.87023 -11.812,15.26718 -6.7363,12.79898 -8.0353,19.21628 -8.0353,39.69466 0,20.62135 1.3433,27.16313 8.6215,41.98473 4.7418,9.65649 9.7934,17.55725 11.2258,17.55725 1.4324,0 6.484,-7.90076 11.2258,-17.55725 z"
   id="path1196" /><path
   style="fill:#ffdd55;fill-opacity:1;stroke-width:3.05344"
   d="m 1741.1964,563.0249 c -15.6006,-7.72214 -18.6047,-16.20158 -11.7813,-33.25471 l 4.8866,-12.21294 h -11.9522 c -10.9834,0 -12.2421,-0.87828 -15.5282,-10.83535 -3.1823,-9.64234 -2.6963,-12.63332 4.4135,-27.16524 11.6809,-23.87503 14.5379,-25.48577 31.0099,-17.48307 15.9302,7.73951 16.5285,7.84115 16.551,2.81191 0.01,-2.09924 1.448,-8.96947 3.1969,-15.26718 2.912,-10.48552 4.0938,-11.45038 14.0253,-11.45038 20.9792,0 46.4171,18.6691 42.4892,31.18317 -0.9423,3.00193 -2.5333,8.10206 -3.5356,11.33363 -1.3711,4.42073 0.5191,7.08634 7.6336,10.76543 8.4583,4.37394 9.456,6.34732 9.456,18.70354 0,14.91885 -4.9693,27.09171 -14.6278,35.83254 -5.6525,5.11539 -6.912,5.17149 -17.4309,0.77642 -13.451,-5.62017 -16.7963,-4.22492 -16.7963,7.00532 0,4.60318 -1.6488,10.01827 -3.6641,12.03354 -5.6642,5.66416 -23.9713,4.33853 -38.3456,-2.77663 z m 40.2333,-47.32105 c 5.9963,-2.301 6.1012,-13.00362 0.2039,-20.79749 -3.7521,-4.95863 -5.6105,-5.31993 -12.1167,-2.35554 -4.9984,2.27742 -7.6848,5.97941 -7.6848,10.58982 0,11.76566 8.1166,16.96888 19.5976,12.56321 z"
   id="path1198" /><path
   style="fill:#ffdd55;fill-opacity:1;stroke-width:3.05344"
   d="m 1623.1286,594.14493 c -2.9143,-3.22029 -4.8448,-9.05998 -4.29,-12.9771 0.6677,-4.71425 -1.0467,-8.18025 -5.0711,-10.25216 -7.7115,-3.97018 -9.2143,-11.70148 -4.4911,-23.10443 4.0862,-9.86482 15.8185,-14.66136 22.4334,-9.17147 3.2743,2.71747 4.9542,1.50132 7.9644,-5.7659 4.4759,-10.80591 9.9905,-11.48559 23.9815,-2.95575 8.242,5.02486 9.8733,7.61505 8.4265,13.37966 -1.121,4.4662 -0.087,8.5656 2.7565,10.92519 6.9078,5.73299 5.1951,25.76251 -3.0731,35.93879 -0.3793,0.46684 -4.3563,-0.54528 -8.8378,-2.24914 -7.2266,-2.74753 -8.4748,-2.23913 -11.035,4.49472 -2.2868,6.01471 -5.0251,7.59266 -13.176,7.59266 -6.2641,0 -12.3623,-2.29058 -15.5882,-5.85507 z m 32.9374,-26.206 c 3.956,-10.30912 -7.1692,-20.11052 -15.2316,-13.41926 -4.4122,3.66174 -5.6084,12.51293 -2.1576,15.96379 3.793,3.79299 15.6215,2.06216 17.3892,-2.54453 z"
   id="path1200" /><path
   style="fill:#ffdd55;fill-opacity:1;stroke-width:3.05344"
   d="m 1516.5687,623.38412 c -7.1611,-5.70011 -14.9919,-25.48672 -12.8089,-32.36493 1.3941,-4.39227 4.5948,-6.28637 10.6231,-6.28637 4.8524,0 9.3969,-2.0042 10.3854,-4.58015 4.8922,-12.74871 19.4363,0.50136 22.0307,20.07049 l 1.792,13.5173 -13.7895,6.59022 c -10.7308,5.12843 -14.7751,5.80572 -18.2328,3.05344 z m 16.2557,-23.56432 c 0,-3.89105 -2.0975,-5.92667 -6.1068,-5.92667 -6.8394,0 -8.7251,10.76566 -2.2901,13.07396 5.564,1.99587 8.3969,-0.41546 8.3969,-7.14729 z"
   id="path1202" /><path
   style="fill:#ffdd55;fill-opacity:1;stroke-width:3.05344"
   d="m 1400.4614,600.26285 c -2.7728,-6.9301 -5.0416,-13.23989 -5.0416,-14.02178 0,-0.78188 5.4776,-5.04646 12.1723,-9.47684 11.2689,-7.45739 12.6964,-7.71188 19.2331,-3.42882 3.8835,2.54453 8.5638,9.5236 10.4008,15.50904 3.0729,10.01228 2.736,11.27838 -4.2125,15.83123 -4.1539,2.72174 -12.0431,5.67733 -17.5315,6.56797 -9.3608,1.51904 -10.2913,0.83876 -15.0206,-10.9808 z"
   id="path1204" /><path
   style="fill:#ffdd55;fill-opacity:1;stroke-width:3.05344"
   d="m 2751.8244,576.92609 c -7.4763,-5.23662 -9.1955,-19.09694 -3.1221,-25.17036 9.0498,-9.04985 29.9237,-0.25571 29.9237,12.60684 0,6.01359 -10.5185,17.31682 -16.1145,17.31682 -2.1454,0 -6.9546,-2.13898 -10.6871,-4.7533 z"
   id="path1206" /><path
   style="fill:#ffdd55;fill-opacity:1;stroke-width:3.05344"
   d=""
   id="path1208" /><path
   style="fill:#ffdd55;fill-opacity:1;stroke-width:3.05344"
   d=""
   id="path1210" /><path
   style="fill:#ffdd55;fill-opacity:1;stroke-width:3.05344"
   d="m 2777.0455,646.83833 c -6.1825,-6.18251 -5.68,-12.09693 1.6504,-19.42739 6.5813,-6.58123 13.1498,-5.17524 21.2133,4.5407 8.0422,9.69033 -13.8233,23.92711 -22.8637,14.88669 z"
   id="path1212" /><path
   style="fill:#ffdd55;fill-opacity:1;stroke-width:3.05344"
   d=""
   id="path1214" /><path
   style="fill:#ffdd55;fill-opacity:1;stroke-width:3.05344"
   d=""
   id="path1216" /><path
   style="fill:#ffdd55;fill-opacity:1;stroke-width:3.05344"
   d=""
   id="path1218" /><path
   style="fill:#ffdd55;fill-opacity:1;stroke-width:3.05344"
   d="m 2847.6989,680.85044 c -5.9134,-5.91336 -6.1397,-8.21116 -1.2867,-13.06418 9.6634,-9.66341 25.7028,0.0253 18.632,11.25473 -4.3423,6.89619 -11.5108,7.644 -17.3453,1.80945 z"
   id="path1220" /><path
   style="fill:#ffdd55;fill-opacity:1;stroke-width:3.05344"
   d=""
   id="path1222" /><path
   style="fill:#ffdd55;fill-opacity:1;stroke-width:3.05344"
   d="m 4.1576379,352.67176 c -0.9666632,-2.51909 -0.9296822,-6.7376 0.08218,-9.37447 2.521796,-6.57169 15.2567981,-4.35096 16.6401131,2.90171 1.837463,9.63375 -13.2659381,15.47987 -16.7222931,6.47276 z"
   id="path1224" /><path
   style="fill:#ffdd55;fill-opacity:1;stroke-width:3.05344"
   d="m 713.38888,106.64861 c -9.18734,-7.22676 -10.10674,-13.79716 -3.29207,-23.526454 5.34208,-7.626892 22.87754,-9.480826 28.0869,-2.969484 7.44808,9.309575 7.30329,17.386009 -0.45071,25.139998 -9.33606,9.33606 -13.87746,9.58902 -24.34412,1.35594 z"
   id="path1226" /><path
   style="fill:#ffdd55;fill-opacity:1;stroke-width:3.05344"
   d="m 800.26322,56.129657 c -6.35925,-8.084476 -6.08557,-10.602468 2.20118,-20.251794 5.91776,-6.890801 13.5931,-6.798361 19.96312,0.240429 6.71559,7.420647 6.37659,14.466907 -1.05347,21.896975 -8.17555,8.175545 -13.57616,7.693167 -21.11083,-1.88561 z"
   id="path1228" /><path
   style="fill:#ffdd55;fill-opacity:1;stroke-width:3.05344"
   d="m 897.70992,58.671537 c -11.13736,-3.822466 -11.87728,-14.002428 -1.51143,-20.794398 6.1639,-4.038744 8.53511,-4.276225 12.21374,-1.223232 10.25704,8.512586 1.63441,26.25173 -10.70231,22.01763 z"
   id="path1230" /><path
   style="fill:#ffdd55;fill-opacity:1;stroke-width:3.05344"
   d="m 966.07188,87.237059 c -3.04021,-7.922659 1.22102,-14.470793 8.72363,-13.405416 9.78504,1.389484 9.78504,15.832726 0,17.22221 -4.1291,0.586335 -7.62011,-0.941065 -8.72363,-3.816794 z"
   id="path1232" /><path
   style="fill:#ffdd55;fill-opacity:1;stroke-width:3.05344"
   d="m 1225.8705,573.95334 c -12.5811,-13.902 8.99,-35.47311 22.892,-22.89198 7.7038,6.97188 7.9703,17.38178 0.6154,24.03791 -7.5284,6.81307 -16.7096,6.3655 -23.5074,-1.14593 z"
   id="path1234" /><path
   style="fill:#ffdd55;fill-opacity:1;stroke-width:3.05344"
   d="m 1203.6678,644.84479 c -7.8043,-6.00527 -6.7108,-13.99375 2.5976,-18.97542 8.3833,-4.4866 11.4547,-3.6703 16.782,4.46022 3.7864,5.77879 4.1173,8.83074 1.4897,13.74046 -4.1181,7.69477 -11.5191,7.96951 -20.8693,0.77474 z"
   id="path1236" /><path
   style="fill:#ffdd55;fill-opacity:1;stroke-width:3.05344"
   d=""
   id="path1238" /><path
   style="fill:#ffdd55;fill-opacity:1;stroke-width:3.05344"
   d="m 1137.6454,682.99639 c -10.8754,-7.95222 1.3372,-25.71621 12.7363,-18.52585 7.1997,4.54147 6.7476,13.24164 -0.9539,18.35524 -5.2171,3.46397 -7.2385,3.49324 -11.7824,0.17061 z"
   id="path1240" /><path
   style="fill:#ffdd55;fill-opacity:1;stroke-width:3.05344"
   d="m 1073.1995,689.94206 c -1.0836,-1.75324 0.3292,-6.697 3.1396,-10.98613 l 5.1097,-7.79842 4.5861,6.5476 c 2.5224,3.60118 3.8197,8.54494 2.8829,10.98613 -1.9623,5.11373 -12.798,5.976 -15.7183,1.25082 z"
   id="path1242" /><path
   style="fill:#ffdd55;fill-opacity:1;stroke-width:3.05344"
   d="m 2349.2428,593.74847 c -4.1198,-6.28755 -6.726,-7.42037 -13.5986,-5.91089 -6.5592,1.44064 -9.2483,0.47294 -11.7678,-4.23476 -4.7524,-8.88002 -3.9965,-23.46993 1.4502,-27.99029 3.0989,-2.57188 4.1095,-6.67467 2.9474,-11.96576 -1.5355,-6.99094 -0.1283,-8.97378 10.6795,-15.04809 9.9614,-5.5986 13.3373,-6.2581 16.8999,-3.30141 2.4486,2.03212 4.4519,5.50649 4.4519,7.72083 0,6.16297 5.304,8.08449 12.1711,4.40932 5.1008,-2.72984 7.5305,-1.97292 13.8036,4.30016 10.8299,10.82992 9.7704,29.26479 -1.6819,29.26479 -4.6391,0 -5.3049,1.74597 -3.9199,10.28027 1.3611,8.38794 0.3576,11.19825 -5.4516,15.26718 -10.3618,7.25771 -20.0838,6.21332 -25.9838,-2.79135 z m 11.9846,-26.15787 c 4.2691,-6.78004 0.5455,-14.91884 -6.8257,-14.91884 -8.2788,0 -14.141,11.03737 -9.0929,17.12003 4.5451,5.47647 11.7079,4.48602 15.9186,-2.20119 z"
   id="path1244" /><path
   style="fill:#ffdd55;fill-opacity:1;stroke-width:3.05344"
   d=""
   id="path1246" /><path
   style="fill:#ffdd55;fill-opacity:1;stroke-width:3.05344"
   d="m 2463.3588,619.49053 c -7.0729,-3.58151 -11.4504,-7.97768 -11.4504,-11.49929 0,-13.88043 4.4258,-25.54356 11.436,-30.13682 6.9734,-4.56914 7.7516,-4.55369 10.4157,0.2068 1.5836,2.82969 5.9713,5.14489 9.7504,5.14489 17.5922,0 18.6287,17.03605 2.2758,37.40458 -5.1904,6.46494 -7.6952,6.33984 -22.4275,-1.12016 z m 16.0305,-17.45491 c 0,-7.20359 -2.5665,-9.6644 -7.9321,-7.60542 -6.7546,2.59197 -5.2876,13.20339 1.8252,13.20339 3.8862,0 6.1069,-2.03563 6.1069,-5.59797 z"
   id="path1248" /><path
   style="fill:#ffdd55;fill-opacity:1;stroke-width:3.05344"
   d="m 2573.9982,608.04089 c -12.1625,-6.51548 -14.2671,-12.3909 -8.9966,-25.11514 4.9634,-11.98269 14.5074,-13.90875 28.3755,-5.7264 6.1617,3.63548 11.2031,7.45884 11.2031,8.49635 0,1.03752 -2.2478,7.77202 -4.995,14.96557 -5.6238,14.72559 -9.6868,15.89743 -25.587,7.37962 z"
   id="path1250" /><path
   style="fill:#ffdd55;fill-opacity:1;stroke-width:3.05344"
   d="m 2911.0822,688.69124 c -0.9368,-2.44119 0.3605,-7.38495 2.8829,-10.98613 l 4.5861,-6.5476 5.1097,7.79842 c 2.8104,4.28913 4.2232,9.23289 3.1396,10.98613 -2.9203,4.72518 -13.756,3.86291 -15.7183,-1.25082 z"
   id="path1252" /><path
   style="fill:#ffdd55;fill-opacity:1;stroke-width:3.05344"
   d=""
   id="path1254" /><path
   style="fill:#ffdd55;fill-opacity:1;stroke-width:3.05344"
   d=""
   id="path1256" /><path
   style="fill:#ffdd55;fill-opacity:1;stroke-width:3.05344"
   d="m 3262.267,105.29267 c -7.754,-7.753989 -7.8988,-15.830423 -0.4507,-25.139998 5.2094,-6.511342 22.7448,-4.657408 28.0869,2.969484 6.8147,9.729294 5.8953,16.299694 -3.2921,23.526454 -10.4666,8.23308 -15.008,7.98012 -24.3441,-1.35594 z"
   id="path1258" /><path
   style="fill:#ffdd55;fill-opacity:1;stroke-width:3.05344"
   d="m 3178.626,58.015267 c -7.6066,-7.606571 -7.7987,-15.843111 -0.523,-22.427519 7.9126,-7.160819 14.3804,-6.282138 21.6338,2.939083 6.3592,8.084477 6.0855,10.602468 -2.2012,20.251795 -5.9867,6.971108 -11.3934,6.752846 -18.9096,-0.763359 z"
   id="path1260" /><path
   style="fill:#ffdd55;fill-opacity:1;stroke-width:3.05344"
   d="m 3092.182,57.545552 c -6.3851,-3.573301 -6.7328,-15.797064 -0.5942,-20.891645 3.6786,-3.052993 6.0498,-2.815512 12.2137,1.223232 4.2069,2.756454 7.6278,6.697616 7.6021,8.758137 -0.1176,9.421813 -10.9225,15.554715 -19.2216,10.910276 z"
   id="path1262" /><path
   style="fill:#ffdd55;fill-opacity:1;stroke-width:3.05344"
   d=""
   id="path1264" /><path
   style="fill:#ffdd55;fill-opacity:1;stroke-width:3.05344"
   d="m 3017.9803,87.237059 c -3.0402,-7.922659 1.221,-14.470793 8.7236,-13.405416 9.785,1.389484 9.785,15.832726 0,17.22221 -4.1291,0.586335 -7.6201,-0.941065 -8.7236,-3.816794 z"
   id="path1266" /><path
   style="fill:#ffdd55;fill-opacity:1;stroke-width:3.05344"
   d=""
   id="path1268" /></svg>
