<?xml version="1.0" encoding="UTF-8"?>
<!-- Created with Inkscape (http://www.inkscape.org/) -->
<svg width="210mm" height="297mm" version="1.1" viewBox="0 0 210 297" xmlns="http://www.w3.org/2000/svg">
 <path d="m47.653 103.43c1.4076 0.98163-0.62874 2.3817-1.6315 2.3396-2.7175-0.11432-3.7347-3.3876-3.0476-5.6026 1.229-3.9621 6.0244-5.2556 9.5737-3.7556 5.2087 2.2013 6.8135 8.6941 4.4636 13.545-3.132 6.4652-11.375 8.3867-17.516 5.1716-7.7276-4.0458-9.9677-14.061-5.8797-21.487 4.9512-8.9935 16.75-11.553 25.458-6.5877 10.262 5.8517 13.142 19.441 7.2957 29.429-6.7493 11.531-22.134 14.732-33.4 8.0038-12.802-7.6448-16.323-24.827-8.7118-37.371 8.539-14.073 27.521-17.916 41.342-9.4198 15.345 9.4322 19.509 30.215 10.128 45.313" fill="none" stroke="#000" stroke-width=".26458"/>
</svg>
