<?xml version="1.0" encoding="UTF-8" standalone="no"?>
<!-- Created with Inkscape (http://www.inkscape.org/) -->

<svg
   width="210mm"
   height="297mm"
   viewBox="0 0 210 297"
   version="1.1"
   id="svg11660"
   xmlns="http://www.w3.org/2000/svg"
   xmlns:svg="http://www.w3.org/2000/svg">
  <defs
     id="defs11657" />
  <g
     id="layer1">
    <path
       style="fill:#f1c50e;stroke-width:0.218289"
       d="m 66.265122,183.35719 c 0.06798,-0.65871 0.05136,-1.2423 -0.03696,-1.29688 -0.08831,-0.0546 -1.235282,-0.11811 -2.548824,-0.14118 l -2.388259,-0.0419 -0.06703,1.15088 -0.06703,1.15088 -1.730857,-0.14435 c -0.951973,-0.0794 -2.032296,-0.20463 -2.400721,-0.27832 l -0.669866,-0.13397 0.144512,-1.15663 0.144513,-1.15663 -0.841957,-0.15135 c -0.463074,-0.0832 -1.526288,-0.27877 -2.362703,-0.43451 -0.836411,-0.15573 -1.584793,-0.24357 -1.66307,-0.19519 -0.07827,0.0484 -0.207925,0.49824 -0.288113,0.9997 -0.08019,0.50146 -0.190214,0.98362 -0.244509,1.07147 -0.07321,0.11846 -4.341103,-0.78564 -4.62512,-0.97978 -0.02561,-0.0175 0.09811,-0.51255 0.274936,-1.1001 0.176827,-0.58755 0.246896,-1.13363 0.15571,-1.21351 -0.09118,-0.0799 -1.026562,-0.40854 -2.078617,-0.73036 -1.052055,-0.32181 -2.048327,-0.63711 -2.21394,-0.70066 -0.204362,-0.0784 -0.426326,0.22222 -0.690804,0.93566 -0.214328,0.57816 -0.410596,1.08135 -0.436152,1.1182 -0.04605,0.0664 -3.895794,-1.38115 -4.241737,-1.59495 -0.099,-0.0612 0.02638,-0.59975 0.27863,-1.1968 0.252249,-0.59705 0.41551,-1.11255 0.3628,-1.14555 -0.452472,-0.28325 -4.416129,-2.13984 -4.460269,-2.0892 -0.03149,0.0361 -0.290349,0.52901 -0.575228,1.0953 l -0.517964,1.02962 -2.018398,-1.13876 c -1.11012,-0.62632 -2.018662,-1.21454 -2.01898,-1.30716 -2.2e-4,-0.0926 0.259366,-0.56121 0.577085,-1.04132 0.317715,-0.4801 0.538734,-0.90956 0.491152,-0.95435 -0.661583,-0.62279 -4.207119,-2.75168 -4.311992,-2.5891 -0.07717,0.11964 -0.381428,0.56571 -0.676126,0.99127 l -0.535811,0.77374 -1.709269,-1.32228 c -0.940099,-0.72725 -1.765382,-1.41307 -1.833962,-1.52403 -0.06858,-0.11097 0.189796,-0.59311 0.574172,-1.07141 l 0.698871,-0.86965 -1.712579,-1.61382 c -0.94192,-0.8876 -1.816098,-1.61842 -1.942621,-1.62405 -0.126522,-0.006 -0.56473,0.33509 -0.973797,0.75714 l -0.743756,0.76737 -1.591103,-1.58049 c -0.875107,-0.86926 -1.591103,-1.65962 -1.591103,-1.75633 0,-0.0967 0.343806,-0.47772 0.764013,-0.84666 0.420207,-0.36895 0.763557,-0.73431 0.763,-0.81192 -0.0016,-0.2156 -2.81389,-3.62359 -3.058716,-3.70654 -0.118185,-0.0401 -0.597118,0.22993 -1.064294,0.59994 l -0.8494114,0.67274 -1.333347,-1.94673 c -0.7333412,-1.07071 -1.3333474,-1.9944 -1.3333474,-2.05265 0,-0.0582 0.4460389,-0.36731 0.9911972,-0.68679 l 0.9911971,-0.58089 -0.4161041,-0.69502 c -0.2288574,-0.38227 -0.7831799,-1.33352 -1.231828,-2.11391 -0.4486481,-0.78038 -0.8429074,-1.44793 -0.876132,-1.48344 -0.033225,-0.0355 -0.5121669,0.15492 -1.0643163,0.42318 -0.5521492,0.26825 -1.0437596,0.44465 -1.0924672,0.39199 -0.2430047,-0.26271 -1.8856235,-3.72654 -1.8856235,-3.97625 0,-0.15864 0.3192481,-0.40662 0.7094405,-0.55107 1.4125951,-0.52296 1.4003028,-0.4486 0.4818589,-2.91491 -0.46253,-1.24203 -0.8540162,-2.28252 -0.869969,-2.31218 -0.015952,-0.0297 -0.4954651,0.105 -1.0655832,0.29926 -0.5806033,0.19784 -1.11313594,0.26957 -1.21061902,0.16308 -0.0957226,-0.10456 -0.42327592,-1.14558 -0.72789653,-2.31338 l -0.55385545,-2.12327 0.79972666,-0.22213 c 0.43984968,-0.12216 0.98227854,-0.22267 1.20539744,-0.22334 0.3336491,-0.001 0.3787474,-0.10779 0.2540212,-0.60151 -0.1708737,-0.6764 -0.76807907,-3.9963 -0.76853812,-4.27235 -1.6431e-4,-0.0987 -0.52748523,-0.11356 -1.17182449,-0.0331 -1.37578889,0.17189 -1.32272189,0.26641 -1.56587239,-2.78901 l -0.1520008,-1.91003 h 1.22641018 1.22641015 v -2.48304 -2.48304 l -0.6821543,-0.13643 c -0.37518472,-0.075 -0.92812103,-0.13643 -1.22874743,-0.13643 h -0.5465932 l 0.1493395,-2.01918 c 0.2125409,-2.8737 0.1539317,-2.77122 1.50499236,-2.63177 l 1.14264862,0.11793 0.44320672,-2.42803 0.443207,-2.42803 -0.77666667,-0.21575 c -0.42716662,-0.11867 -0.94856934,-0.21631 -1.15867285,-0.21698 -0.47816769,-0.002 -0.49012792,0.14891 0.19984032,-2.51345 l 0.58184705,-2.24514 1.08246435,0.32145 c 0.5953557,0.1768 1.1523287,0.24035 1.2377182,0.14123 0.1824911,-0.21186 1.7883502,-4.48794 1.703614,-4.53639 -0.03173,-0.0182 -0.499726,-0.21894 -1.0399922,-0.446214 -0.5402662,-0.227274 -1.016363,-0.436171 -1.0579925,-0.464211 -0.1073912,-0.07234 1.8786554,-4.22901 2.0206099,-4.22901 0.064433,0 0.5771158,0.221017 1.1392956,0.491151 0.6577716,0.316066 1.0515314,0.405535 1.1045798,0.250981 0.045339,-0.132093 0.5703036,-1.09102 1.1665881,-2.130949 0.5962843,-1.039929 1.0841535,-1.934569 1.0841535,-1.988095 0,-0.05352 -0.4420571,-0.356378 -0.9823487,-0.67301 C 7.2145705,90.875526 6.8859813,90.549604 6.9755854,90.396765 7.4970987,89.50723 9.258772,86.986883 9.4352774,86.877798 9.552545,86.805324 10.054106,87.03985 10.549857,87.398972 l 0.901365,0.652944 1.508395,-1.845299 c 0.829617,-1.014916 1.508394,-1.915129 1.508394,-2.00047 0,-0.08534 -0.353494,-0.517178 -0.785541,-0.959636 l -0.785541,-0.804465 1.585782,-1.669418 1.585783,-1.669418 0.816994,0.797775 c 0.449347,0.438774 0.909619,0.762039 1.022826,0.718365 0.113207,-0.04367 0.969674,-0.786167 1.903259,-1.649984 l 1.697429,-1.570575 -0.727782,-0.9189 -0.727784,-0.918901 0.972778,-0.839853 c 0.53503,-0.461919 1.374846,-1.129393 1.866265,-1.483275 l 0.893482,-0.643422 0.688755,0.977144 0.688756,0.977144 2.019535,-1.347781 c 1.110745,-0.74128 2.058469,-1.380422 2.106054,-1.420316 0.04758,-0.03989 -0.173437,-0.465346 -0.491151,-0.945449 -0.317719,-0.480103 -0.577667,-0.952952 -0.577667,-1.050775 0,-0.190114 3.918831,-2.540009 4.028591,-2.415712 0.03588,0.04064 0.275772,0.491362 0.533087,1.001614 0.257318,0.510251 0.557372,0.92773 0.666787,0.92773 0.197364,0 4.140684,-1.874548 4.319519,-2.053382 0.05127,-0.05128 -0.112633,-0.558608 -0.364239,-1.127406 -0.251608,-0.568798 -0.431718,-1.058979 -0.400245,-1.089291 0.167949,-0.161764 3.896513,-1.623735 4.141126,-1.623735 0.158702,0 0.457673,0.476174 0.664379,1.058164 l 0.375825,1.058164 2.349455,-0.768765 c 1.292201,-0.422821 2.370412,-0.78079 2.396024,-0.795488 0.02561,-0.0147 -0.09797,-0.506999 -0.27464,-1.094004 -0.250047,-0.830849 -0.262144,-1.103781 -0.05461,-1.232047 0.466884,-0.288547 4.067644,-1.111243 4.282499,-0.978456 0.113548,0.07017 0.272915,0.570836 0.354158,1.112578 0.170881,1.139519 0.02413,1.111116 2.958716,0.572686 l 2.073748,-0.380486 -0.07093,-1.213538 -0.07093,-1.213538 0.944094,-0.12767 c 3.904514,-0.528009 3.881805,-0.53466 3.887655,1.138628 l 0.0033,0.956291 0.818584,-0.135304 c 0.450223,-0.07442 1.579869,-0.136384 2.510327,-0.137706 l 1.691743,-0.0024 v -1.200591 -1.200592 h 2.401184 2.401183 v 1.1729 1.1729 l 2.346611,0.210229 c 1.290635,0.115626 2.420284,0.171405 2.510327,0.123954 0.09005,-0.04745 0.163716,-0.525597 0.163716,-1.062546 0,-0.644544 0.105918,-1.016915 0.311714,-1.095886 0.293095,-0.112471 3.258163,0.242147 4.121986,0.492984 0.341452,0.09915 0.375914,0.270335 0.252799,1.255728 l -0.14255,1.140928 2.308278,0.492546 c 1.269553,0.2709 2.402551,0.43428 2.51778,0.363065 0.115226,-0.07121 0.275447,-0.569226 0.356045,-1.106694 0.0806,-0.537467 0.234299,-0.977214 0.341558,-0.977214 0.10726,0 1.137044,0.266095 2.288416,0.591321 l 2.093399,0.591321 -0.128831,0.663843 c -0.07086,0.365114 -0.183989,0.909418 -0.251404,1.209566 -0.117121,0.521449 -0.01934,0.581223 2.197983,1.34376 l 2.320557,0.798035 0.433729,-1.011851 c 0.238551,-0.556519 0.469218,-1.04734 0.512593,-1.090714 0.08788,-0.08788 4.25949,1.708433 4.25949,1.834157 0,0.04375 -0.214984,0.522047 -0.47775,1.062891 -0.26276,0.540844 -0.434663,1.018214 -0.382005,1.060821 0.05266,0.04261 1.05547,0.589536 2.228466,1.215396 l 2.13273,1.137928 0.3776,-0.681228 c 0.84643,-1.527042 0.68733,-1.514177 2.81067,-0.22728 1.063,0.644249 1.96674,1.199039 2.00833,1.232868 0.0416,0.03383 -0.22743,0.501972 -0.59782,1.040317 l -0.67344,0.978809 1.96621,1.437714 c 1.08141,0.790743 2.04924,1.437713 2.15073,1.437713 0.10149,0 0.45563,-0.391198 0.78698,-0.86933 0.34463,-0.497314 0.70764,-0.807515 0.84827,-0.724879 0.53409,0.313839 3.41102,2.753415 3.41102,2.892472 0,0.08145 -0.29469,0.430416 -0.65487,0.775489 -0.36017,0.345069 -0.65487,0.734115 -0.65487,0.864544 0,0.130429 0.78467,1.017207 1.7437,1.970619 l 1.74371,1.733474 0.86586,-0.845492 0.86586,-0.845495 0.96184,1.071502 c 0.52901,0.589327 1.22931,1.39016 1.55623,1.779635 l 0.59441,0.708131 -0.70659,0.601604 c -0.38862,0.330883 -0.8079,0.667718 -0.93173,0.748522 -0.17844,0.116435 1.5517,2.646765 2.72533,3.985795 0.10537,0.12021 0.57367,-0.08038 1.1442,-0.490104 l 0.96583,-0.693605 1.11731,1.741784 c 0.61452,0.957982 1.17122,1.88229 1.23712,2.054016 0.0786,0.204914 -0.22245,0.512807 -0.87598,0.895802 l -0.9958,0.583576 1.12522,2.109157 c 0.61888,1.160037 1.15562,2.147771 1.19276,2.194968 0.0371,0.0472 0.54983,-0.11462 1.1393,-0.35959 l 1.07176,-0.445405 0.27077,0.577879 c 0.48046,1.025417 1.5252,3.580409 1.5252,3.729979 0,0.0798 -0.49706,0.32389 -1.10457,0.54235 -0.60752,0.21846 -1.06398,0.508 -1.01436,0.64341 0.0496,0.13543 0.40743,1.20397 0.79514,2.37454 0.38771,1.17058 0.7705,2.12726 0.85064,2.12596 0.0802,-0.001 0.6057,-0.14195 1.1679,-0.31257 l 1.02217,-0.3102 0.45542,2.00431 c 0.25048,1.10237 0.49231,2.17175 0.53739,2.3764 0.0639,0.28984 -0.12207,0.40268 -0.84118,0.51051 -1.48726,0.22304 -1.47123,0.18354 -1.10898,2.73234 0.17813,1.25338 0.32568,2.33607 0.32788,2.40598 0.002,0.0699 0.52929,0.0835 1.17131,0.0303 l 1.16731,-0.0968 0.14053,1.17029 c 0.0773,0.64366 0.14138,1.73511 0.14242,2.42545 l 0.002,1.25517 h -1.2006 c -0.66032,0 -1.20059,0.0982 -1.20059,0.21829 0,0.12005 0.54027,0.21828 1.20059,0.21828 h 1.2006 v 1.38842 c 0,0.76362 -0.0641,1.85635 -0.14253,2.42828 l -0.14253,1.03986 -1.16721,-0.12047 c -0.81708,-0.0843 -1.1685,-0.0434 -1.17153,0.13662 -0.005,0.30368 -0.37347,3.01314 -0.5446,4.00571 -0.11837,0.68661 -0.10907,0.69471 1.07971,0.9415 1.36522,0.28342 1.31143,-0.0147 0.5717,3.1683 -0.38721,1.66616 -0.47667,1.72351 -2.09388,1.34237 l -0.66396,-0.15649 -0.7263,2.30983 c -0.39947,1.2704 -0.67659,2.35953 -0.61584,2.42028 0.0608,0.0608 0.55599,0.27958 1.10054,0.48629 l 0.99008,0.37582 -0.83818,2.03187 c -0.46099,1.11753 -0.89672,2.09042 -0.96828,2.16198 -0.0716,0.0716 -0.59542,-0.064 -1.16414,-0.30115 l -1.03404,-0.43127 -1.14602,2.14815 c -0.63031,1.18148 -1.14601,2.18871 -1.14601,2.2383 0,0.0496 0.44491,0.35089 0.98869,0.66956 l 0.98869,0.57942 -0.58838,1.01238 c -0.32362,0.55682 -0.8996,1.47807 -1.27997,2.04723 l -0.69159,1.03484 -0.85474,-0.64676 c -0.47011,-0.35572 -0.91854,-0.64949 -0.99651,-0.65283 -0.078,-0.003 -0.80609,0.88614 -1.61803,1.97663 l -1.47626,1.98271 0.9149,0.80048 0.9149,0.80048 -1.45862,1.63717 c -0.80224,0.90045 -1.52316,1.6637 -1.60205,1.69612 -0.0789,0.0324 -0.53044,-0.27988 -1.00345,-0.69403 l -0.86002,-0.75297 -1.79871,1.77849 -1.79872,1.7785 0.79665,0.81583 c 0.93535,0.9579 0.96966,0.88495 -1.28292,2.72786 l -1.53491,1.25576 -0.43572,-0.53729 c -0.23965,-0.2955 -0.56312,-0.71879 -0.71882,-0.94063 -0.26483,-0.37731 -0.41722,-0.30801 -2.36107,1.07371 l -2.07797,1.47705 0.66402,0.96512 c 0.36521,0.53082 0.57955,1.04603 0.4763,1.14493 -0.10325,0.0989 -1.01643,0.6807 -2.0293,1.2929 l -1.84157,1.11311 -0.54175,-0.98513 c -0.29796,-0.54181 -0.60933,-0.98512 -0.69194,-0.98512 -0.20504,0 -4.360463,2.1947 -4.360463,2.303 0,0.0476 0.214987,0.52901 0.47775,1.06985 0.262763,0.54085 0.434666,1.01544 0.382008,1.05465 -0.150871,0.11233 -3.08901,1.41925 -3.727998,1.65825 -0.547782,0.20488 -0.595084,0.16509 -0.959085,-0.8068 -0.210582,-0.56227 -0.409329,-1.05468 -0.441653,-1.09424 -0.05582,-0.0683 -4.488513,1.46767 -4.647258,1.61035 -0.04153,0.0373 0.07053,0.56609 0.249028,1.17501 l 0.324549,1.10714 -1.886199,0.56175 c -1.037413,0.30896 -2.052976,0.60853 -2.256808,0.66571 -0.285031,0.0799 -0.42613,-0.11282 -0.611074,-0.83487 -0.132255,-0.51635 -0.278678,-1.05386 -0.325379,-1.19447 -0.06392,-0.19246 -0.371528,-0.18323 -1.244386,0.0373 -0.637709,0.16114 -1.730341,0.40719 -2.428063,0.54678 l -1.268592,0.25379 0.144997,1.1605 c 0.126584,1.01315 0.09364,1.17566 -0.259437,1.27988 -0.8152,0.24064 -4.029768,0.62835 -4.156763,0.50135 -0.07199,-0.072 -0.178774,-0.62916 -0.237289,-1.23815 -0.101629,-1.05767 -0.13199,-1.10231 -0.67786,-0.99679 -0.314304,0.0608 -1.430978,0.17556 -2.481495,0.25512 l -1.910033,0.14465 v 1.1432 1.14321 l -1.473454,0.13916 c -0.8104,0.0765 -1.904674,0.13986 -2.431721,0.14071 l -0.958271,0.002 0.123608,-1.19765 z m 7.141022,-9.72806 c 14.830716,-1.34715 27.860866,-7.28812 37.769406,-17.22062 4.2276,-4.23781 6.88675,-7.80471 9.46254,-12.69275 6.4464,-12.23322 7.24416,-26.83841 2.16855,-39.70099 -1.2004,-3.04202 -1.90054,-4.457927 -3.62037,-7.321414 C 106.70309,75.909002 80.546965,65.261967 54.633255,70.416594 45.839371,72.16583 37.153947,76.060955 29.82765,81.541087 26.936453,83.703725 21.285082,89.368041 19.174715,92.218424 7.9711042,107.35064 6.1055587,126.07177 14.157588,142.56631 c 7.6796,15.73162 23.862435,27.2625 42.658562,30.39584 5.210024,0.86851 11.560561,1.12383 16.589994,0.66698 z"
       id="path9909" />
  </g>
</svg>
