<?xml version='1.0' encoding='utf-8'?>
<svg xmlns="http://www.w3.org/2000/svg" version="1.1" width="600px" height="976px" viewBox="0 0 600 976"> <g id="layer1"> <g style="fill:rgb(0,0,0); fill-opacity:1.0; stroke-linejoin: miter"> <path d="M426.82062,218.45158C427.8704,218.45158,430.36978,221.17813,431.987,224.2292C432.54547,225.2574,433.1009,226.13191,433.29462,226.20515C433.4499,226.27913,433.56964,226.50752,433.57404,226.73836C433.57782,226.93062,434.14117,228.2281,434.78314,229.60103C435.4626,230.93465,435.99042,232.38667,435.99774,232.77132C436.00507,233.15596,436.16705,233.57613,436.36163,233.68794C436.55682,233.83809,436.84088,234.60213,437.0108,235.44539C437.1804,236.28618,437.42358,236.97275,437.6156,236.97275C437.61612,236.97275,437.6166,236.97275,437.61713,236.97273C437.61746,236.97273,437.61783,236.97272,437.61816,236.97272C437.77234,236.97272,438.05304,237.62033,438.22113,238.38484C438.39056,239.18965,438.63666,239.99287,438.79498,240.22066C438.95245,240.41011,439.43915,241.70918,439.81158,243.08699C440.2226,244.46431,440.7121,245.91718,440.91254,246.33649C441.0744,246.75665,441.4433,247.94232,441.6563,249.01569C442.33112,252.1192,443.1147,254.8747,443.46674,255.17584C443.6236,255.32672,443.74933,255.86285,443.75885,256.36285C443.7691,256.90143,443.93622,257.59088,444.17438,257.97113C444.53363,258.6568,444.95135,260.38007,445.89154,265.28717C446.14862,266.66742,446.5213,268.04535,446.6817,268.3886C446.84137,268.69342,447.14154,270.3039,447.32623,271.9162C447.5107,273.52686,447.80533,274.86676,447.95926,274.86676C447.95944,274.86676,447.95963,274.86676,447.95978,274.86676C447.9601,274.86676,447.96048,274.86676,447.96082,274.86676C448.11478,274.86676,448.35715,275.51508,448.48685,276.2802C448.6177,277.08588,449.04276,279.19388,449.42337,280.99503C449.8041,282.79617,450.3185,285.55655,450.54105,287.1298C450.8018,288.7023,451.14468,290.54263,451.3494,291.1929C451.5928,291.84244,451.9069,294.1835,452.1041,296.44977C452.26266,298.71506,452.52835,300.55573,452.68234,300.55573C452.68246,300.55573,452.6826,300.55573,452.6827,300.55573C452.68283,300.55573,452.68295,300.55573,452.68307,300.55573C452.83688,300.55573,453.14258,302.47247,453.3403,304.77545C453.5389,307.1187,453.8464,309.1137,454.04086,309.2254C454.50766,309.4859,454.61264,314.9859,454.12875,315.84174C453.94308,316.19135,453.70175,317.65814,453.6135,319.08344C453.48764,320.5479,453.24033,321.70697,453.04807,321.71075C452.8558,321.71442,452.707,321.98663,452.71445,322.37128C452.72104,322.71722,451.71994,324.69855,450.49033,326.79987C449.2601,328.8625,448.25754,330.76703,448.26193,330.99786C448.26633,331.2287,448.11618,331.4239,447.88535,331.42828C447.69308,331.43195,447.5045,331.628,447.5096,331.89728C447.51706,332.28168,445.43295,335.97684,444.9039,336.48697C444.63974,336.76138,443.96957,337.9285,442.82126,340.2592C442.2656,341.3854,441.52,342.63113,441.1434,343.0613C440.72836,343.49258,440.43088,344.0369,440.43466,344.22928C440.43832,344.42142,440.21555,344.8489,439.98996,345.1226C439.72653,345.43546,439.20358,346.25357,438.83286,346.9916C437.38583,349.78946,436.90256,350.68387,436.45053,351.19254C436.1866,351.46683,435.9653,351.97134,435.97116,352.27908C435.97702,352.58658,435.8276,352.82034,435.63535,352.824C435.44296,352.82767,435.2181,353.1398,435.0708,353.48892C434.9629,353.87576,434.6676,354.53568,434.40637,354.9639C432.91345,357.37772,431.9828,359.01175,431.3147,360.2941C430.9071,361.10977,430.4579,361.77237,430.3042,361.7753C430.11182,361.77896,430.00012,361.97366,430.00525,362.24295C430.00964,362.47366,429.2683,363.94986,428.33606,365.50662C427.4032,367.0253,426.66113,368.46292,426.66553,368.69376C426.66992,368.92435,426.5205,369.1581,426.3297,369.23868C426.17725,369.3185,425.46704,370.40945,424.79895,371.69193C424.13086,372.97427,423.45984,374.10306,423.34668,374.2206C423.0056,374.4966,422.22375,375.85806,421.8197,376.86624C421.5984,377.3705,421.03992,378.34317,420.51465,379.0458C419.98938,379.74832,419.58105,380.5258,419.58545,380.7565C419.59058,381.02567,419.4403,381.22098,419.2096,381.22537C419.0172,381.22903,418.82935,381.46353,418.8352,381.77115C418.84106,382.0789,418.61987,382.58328,418.3557,382.85782C418.0918,383.1321,417.75586,383.67715,417.60925,384.0647C417.35474,384.8391,413.24792,391.42004,412.8308,391.73572C412.71765,391.85327,412.4956,392.3192,412.3507,392.7838C412.20642,393.28662,411.906,393.67712,411.71362,393.6808C411.52136,393.68445,411.3711,393.87976,411.37476,394.07214C411.38794,394.76453,409.3877,396.80334,408.65698,396.81738C408.64832,396.81754,408.63974,396.81763,408.63126,396.81763C408.11343,396.81763,407.95844,396.5061,407.93896,395.48438C407.92346,394.67664,407.59888,393.79785,407.167,393.34436C406.7269,392.89734,406.44128,392.7162,405.38696,392.7162C404.74927,392.7162,403.83035,392.78247,402.4259,392.89624C400.27502,393.0913,398.28015,393.3988,398.09155,393.5946C397.40323,394.15854,393.45685,394.4698,389.99365,394.4698C387.16595,394.4698,384.66037,394.2623,384.51355,393.81543C384.4347,393.62878,384.02414,393.44824,383.61002,393.44824C383.60107,393.44824,383.5921,393.4483,383.58316,393.4485C383.57428,393.44867,383.56528,393.44873,383.55612,393.44873C382.77356,393.44873,381.04535,392.8299,378.89542,391.76807C378.2824,391.47607,377.55838,391.2611,377.24365,391.2611C377.23944,391.2611,377.2353,391.26114,377.23123,391.26123C377.2254,391.26135,377.21957,391.26138,377.21378,391.26138C376.9147,391.26138,376.6898,391.1139,376.6862,390.9253C376.6824,390.7329,376.06192,390.47534,375.3289,390.37402C374.59525,390.23413,373.97476,389.97668,373.9711,389.78442C373.96817,389.6305,373.27066,389.3745,372.42154,389.23682C371.57254,389.09912,370.798,388.84448,370.64053,388.65503C370.52368,388.46875,370.18564,388.32355,369.88248,388.32355C369.87653,388.32355,369.87057,388.3236,369.86465,388.32373C369.86215,388.3238,369.85962,388.3238,369.857,388.3238C369.2989,388.3238,366.3745,387.2325,364.98166,386.49316C364.6003,386.27408,364.03568,386.1325,363.72375,386.1325C363.71747,386.1325,363.71127,386.13257,363.70517,386.1327C363.6993,386.1328,363.69345,386.13284,363.68762,386.13284C363.38715,386.13284,363.12512,385.9856,363.12076,385.75928C363.1171,385.5669,362.4965,385.30933,361.76297,385.16943C361.02994,385.068,360.40945,384.81055,360.40652,384.65662C360.40353,384.50293,359.7446,384.2461,358.97226,384.10693C358.1617,383.96866,357.34958,383.7532,357.11594,383.6038C356.91983,383.41507,355.79642,383.01334,354.71207,382.6492C353.5886,382.24747,352.65744,381.84207,352.6545,381.68814C352.65158,381.53433,352.10873,381.31375,351.45193,381.1724C350.79507,381.03104,349.82693,380.70328,349.24417,380.40652C348.66995,380.1144,347.9106,379.90027,347.5573,379.90027C347.55197,379.90027,347.54675,379.90033,347.5416,379.90042C347.53424,379.90057,347.52695,379.90063,347.51965,379.90063C347.14505,379.90063,346.8455,379.71768,346.8419,379.52896C346.8376,379.30273,346.57574,379.15524,346.27542,379.15524C346.26947,379.15524,346.26352,379.1553,346.25754,379.15543C346.25327,379.15552,346.2489,379.15555,346.2445,379.15555C345.49554,379.15555,342.84732,377.9864,342.49362,377.49588C342.31583,377.2628,341.05548,377.16016,339.617,377.16016C337.54443,377.16016,335.10205,377.3732,334.99496,377.71597C334.8848,377.98746,334.543,378.22476,334.23526,378.23074C333.62003,378.24246,330.13977,379.3477,329.11078,379.86758C328.76825,380.06656,327.54193,380.3207,326.35248,380.49747C325.1247,380.6747,324.1682,380.9623,324.17188,381.1547C324.17554,381.34695,323.94775,381.50516,323.64014,381.51102C323.37085,381.51614,322.91443,381.79422,322.65106,382.1071C321.93646,382.96732,322.79724,383.72025,324.7248,383.91446C326.4215,384.1128,330.62787,384.76355,336.1863,385.6963C338.00052,386.00793,340.12338,386.35217,340.93332,386.45215C341.7048,386.55286,342.363,386.77112,342.36667,386.96326C342.37015,387.14603,342.96313,387.28278,343.71506,387.28278C343.75458,387.28278,343.7945,387.28238,343.8348,387.28162C343.84845,387.28134,343.86227,387.28122,343.87628,387.28122C344.81064,387.28122,346.5744,387.86264,348.94638,388.99243C350.96548,389.95435,352.71384,390.84424,352.8315,390.95752C353.18335,391.2962,356.58078,392.8013,357.01868,392.8013C357.01987,392.8013,357.021,392.8013,357.02213,392.80127C357.02655,392.80118,357.03098,392.80115,357.0354,392.80115C357.26172,392.80115,357.4874,392.91077,357.5657,393.06018C357.64645,393.2511,358.92953,393.95764,360.40506,394.66052C361.9191,395.36267,363.20224,396.06934,363.24362,396.2224C363.32266,396.40958,363.54843,396.5199,363.77487,396.5199C363.7793,396.5199,363.7837,396.51987,363.78812,396.51978C363.7901,396.51974,363.7921,396.5197,363.79416,396.5197C364.50702,396.5197,369.1413,398.80396,369.14786,399.14917C369.15146,399.3388,369.34128,399.4874,369.56778,399.4874C369.57108,399.4874,369.57437,399.48737,369.57767,399.4873C369.57883,399.48727,369.58002,399.48727,369.58124,399.48727C369.8596,399.48727,371.3268,400.07263,372.8726,400.77112C374.4193,401.46994,375.84924,402.0563,376.0881,402.0563C376.089,402.0563,376.08987,402.0563,376.09073,402.05627C376.09402,402.0562,376.09732,402.05618,376.1006,402.05618C376.3271,402.05618,376.5167,402.20532,376.52103,402.43274C376.52463,402.6222,376.78934,402.80652,377.09116,402.80652C377.09586,402.80652,377.10056,402.8065,377.10526,402.8064C377.1111,402.80627,377.11697,402.80624,377.12283,402.80624C377.42328,402.80624,377.6854,402.953,377.689,403.1416C377.69266,403.33398,378.23636,403.5929,378.85464,403.735C379.51138,403.87634,380.0165,404.136,380.02017,404.32837C380.02377,404.51788,380.17627,404.6672,380.4015,404.6672C380.40475,404.6672,380.40802,404.66718,380.4113,404.6671C380.412,404.6671,380.41272,404.66708,380.41348,404.66708C380.93253,404.66708,388.28653,408.01855,388.5619,408.359C388.68018,408.51074,389.1853,408.7705,389.72668,408.91406C390.22974,409.05835,390.89087,409.43054,391.2036,409.69385C391.4753,409.99252,391.97025,410.2118,392.27896,410.2118C392.283,410.2118,392.28702,410.21173,392.29102,410.21167C392.29697,410.21155,392.3029,410.2115,392.30875,410.2115C392.60757,410.2115,392.8325,410.35968,392.8368,410.58606C392.8404,410.7754,393.105,410.95984,393.40692,410.95984C393.41162,410.95984,393.41632,410.9598,393.42102,410.95972C393.4253,410.95963,393.42966,410.9596,393.43405,410.9596C394.18314,410.9596,396.8313,412.12875,397.18494,412.61926C397.3497,412.84085,398.69763,412.9394,400.23715,412.9394C402.38754,412.9394,404.9117,412.74716,405.10754,412.42944C405.25684,412.19568,406.2422,411.40747,407.26746,410.6953C408.33057,409.94397,409.24023,409.23413,409.27502,409.04114C409.349,408.88562,409.61536,408.72668,409.88464,408.72156C410.19238,408.7157,410.95203,408.20093,411.6333,407.61084C412.31384,406.98218,413.45227,406.15247,414.25208,405.71387C415.69885,404.91687,415.8506,404.79858,417.28918,403.57825C417.78125,403.14563,418.31323,402.78918,418.4286,402.787C418.54395,402.7848,419.15112,402.34985,419.75623,401.79968C420.36145,401.2495,421.0841,400.8125,421.35327,400.80725C421.62256,400.80212,421.88965,400.68164,421.9629,400.4878C422.11096,400.17725,424.4248,398.44006,424.73242,398.4342C424.84778,398.432,425.41663,397.99792,425.9834,397.44824C426.54993,396.89893,427.19568,396.46338,427.46497,396.45825C427.73425,396.45313,427.9613,396.25647,427.95764,396.0641C427.95325,395.83325,428.1427,395.67578,428.33496,395.672C428.7196,395.66467,430.92322,394.19897,431.3744,393.65173C431.71326,393.2605,435.09302,390.9259,435.36227,390.92065C435.5931,390.91626,436.0858,390.52222,437.25742,389.4225C437.5223,389.18652,437.941,388.94763,438.1334,388.94397C438.3641,388.93958,438.59262,388.81982,438.66586,388.6261C438.8502,388.19934,441.1661,386.5775,441.62778,386.56873C441.82004,386.56506,442.0095,386.4076,442.0051,386.17688C442.00143,385.9845,442.41928,385.70715,442.9548,385.54297C443.49118,385.41736,443.90988,385.17847,443.90695,385.02454C443.90024,384.67847,447.2009,382.23,447.66245,382.22122C447.85483,382.21756,448.08334,382.0977,448.1566,381.90396C448.3408,381.47708,450.65695,379.85538,451.11838,379.8466C451.31076,379.84293,451.5001,379.68546,451.49716,379.53152C451.4935,379.33926,452.1002,378.86588,452.82285,378.42886C453.54636,378.03043,454.15305,377.55704,454.15,377.40323C454.14633,377.21085,454.33627,377.0917,454.52866,377.08804C454.99008,377.07925,457.30637,375.45755,457.48984,374.99234C457.5638,374.83694,457.86923,374.71573,458.13852,374.7106C458.40768,374.70547,458.7125,374.54593,458.78574,374.35208C458.85898,374.15836,460.18698,373.17093,461.744,372.10245C463.30185,371.0723,464.7435,370.0059,464.89145,369.69522C465.04013,369.42313,465.34348,369.18643,465.5743,369.18204C465.7667,369.17838,466.64096,368.62283,467.5139,367.9905C468.3475,367.3207,469.22263,366.80374,469.4149,366.80008C469.56882,366.79715,470.0245,366.48062,470.4017,366.08878C471.72446,364.83218,472.6727,364.1215,473.4376,363.8759C473.85776,363.71414,474.3127,363.35916,474.4222,363.04922C474.53183,362.7393,474.79575,362.46487,475.02646,362.46048C475.48813,362.4517,480.68466,358.54324,481.7789,357.40677C483.9664,355.09488,485.41782,352.52762,485.76218,350.40482C485.89914,349.51736,486.15292,348.7045,486.30453,348.5861C486.49457,348.46707,486.7469,347.57718,486.88312,346.65128C486.9803,345.68765,487.2326,344.79776,487.4234,344.71707C487.57513,344.5988,487.82672,343.67044,487.96136,342.66763C488.05768,341.66556,488.30768,340.6603,488.45795,340.465C488.75836,340.0745,489.39423,337.09976,489.76727,334.4761C489.86884,333.74332,490.08405,332.93106,490.2342,332.7359C490.42206,332.5014,490.66718,331.2271,490.79456,329.83936C490.88342,328.4525,491.08936,327.1405,491.2395,326.9453C491.463,326.55627,492.05273,323.1975,492.6969,318.64505C492.90137,317.256,493.18115,315.78848,493.36536,315.36172C493.54956,314.9351,493.75903,313.81522,493.85596,312.85147C493.953,311.8876,494.24634,309.11185,494.54626,306.68204C494.80774,304.25308,495.23132,300.24344,495.4928,297.81448C495.7157,295.38614,495.94678,293.381,496.02368,293.37955C496.13916,293.37735,496.94568,285.24356,497.18445,281.6221C497.2732,280.23526,497.48132,279.03848,497.63293,278.92032C497.82312,278.8013,498.06616,275.41046,498.22058,271.40607C498.37427,267.3631,498.7058,260.5467,498.96887,256.1938C499.55676,246.67902,499.537,245.64044,498.89502,240.22762C498.65784,237.88509,498.58044,235.84724,498.73132,235.6905C498.92062,235.49382,499.1522,235.40358,499.39505,235.40358C499.97495,235.40358,500.61917,235.91814,500.90576,236.7264C501.1106,237.37642,501.39087,237.94832,501.50854,238.06148C501.93958,238.47652,503.10718,241.18587,503.1189,241.80135C503.12622,242.18599,503.32813,242.6822,503.56335,242.90865C503.79858,243.13496,504.09717,244.66853,504.24402,246.32013C504.39172,248.01031,504.7295,249.58124,504.9662,249.88458C505.55713,250.60443,505.87488,273.29913,505.30908,273.88715C505.04504,274.16156,504.94836,277.16473,505.01416,282.62698C505.10083,287.16544,505.01587,292.7847,504.8684,295.13443C504.75854,297.4451,504.4901,301.52872,504.3485,304.1863C504.16833,306.84464,503.88538,310.15897,503.68176,311.58633C503.51672,313.01334,503.36267,315.01688,503.38318,316.0939C503.40308,317.13248,503.26746,318.09695,503.0774,318.21597C502.92566,318.33426,502.66284,320.6864,502.56177,323.4585C502.4602,326.19226,502.27258,328.46594,502.11865,328.46887C501.9265,328.47253,501.6643,330.86316,501.48877,333.75208C501.015,341.18726,499.9806,349.47937,499.41833,350.2594C499.22974,350.45557,498.989,351.9607,498.9038,353.54004C498.78003,355.11987,498.5387,356.58643,498.38928,356.8202C498.239,357.0155,498.02686,357.98132,497.89124,358.94592C497.75513,359.87183,497.50415,360.83862,497.3546,361.07227C497.16602,361.2683,496.9469,361.88806,496.80347,362.42957C496.44812,363.9752,492.12048,369.0599,491.159,369.07828C490.9666,369.08194,490.47394,369.4761,490.02142,369.94656C489.60773,370.4545,488.47296,371.4766,487.52545,372.22574C486.57782,372.97488,485.78403,373.7211,485.71005,373.8765C485.6368,374.07022,485.36972,374.1907,485.1389,374.1951C484.86972,374.20023,484.18784,374.75186,483.58408,375.37906C482.98105,376.0447,482.33688,376.55716,482.14462,376.56082C481.9907,376.56375,481.535,376.88028,481.15707,377.2338C480.28867,378.09695,479.1152,379.11966,476.91757,380.89297C475.96994,381.64212,474.98544,382.4689,474.72128,382.74332C474.45724,383.01773,474.077,383.2559,473.8846,383.25955C473.69235,383.2632,473.08566,383.7366,472.48154,384.3252C470.97226,385.8932,468.8884,387.58728,468.50388,387.59473C468.35007,387.59766,467.51694,388.30603,466.68686,389.16833C465.85703,390.03076,465.02402,390.73914,464.79318,390.74353C464.60092,390.7472,464.41086,390.8662,464.4138,391.02002C464.41745,391.2124,463.7739,391.76355,462.97653,392.31726C462.2175,392.87036,461.19357,393.65955,460.7402,394.09155C459.64462,395.15112,459.1512,395.50696,457.59555,396.65247C456.8751,397.20483,455.9659,397.95337,455.5117,398.3468C455.09518,398.70093,454.07443,399.64392,453.24216,400.39087C452.41,401.13757,451.53708,401.77002,451.34482,401.77368C451.1141,401.77808,450.62216,402.21082,450.24777,402.75647C449.87338,403.30237,449.3044,403.73645,449.03525,403.74158C448.76596,403.7467,448.49985,403.90576,448.42587,404.06104C448.39035,404.2157,447.55795,404.96265,446.61044,405.71167C445.6628,406.46094,444.82993,407.1693,444.71677,407.28687C444.6036,407.40454,444.0361,407.91553,443.39096,408.38965C442.78464,408.8629,441.76218,409.72888,441.1179,410.24133C440.5128,410.7915,439.30038,411.7766,438.4659,412.4082C437.63217,413.07825,436.4576,414.02405,435.81393,414.57495C434.22424,415.95203,431.83777,417.9214,430.35986,419.10388C429.67773,419.65552,428.5409,420.56238,427.85962,421.15247C427.17896,421.781,426.53394,422.255,426.41858,422.2572C426.30322,422.25952,425.58325,422.85046,424.82825,423.5957C424.07275,424.3413,422.55786,425.60144,421.41943,426.43127C420.28015,427.2224,419.33398,428.04846,419.33765,428.24084C419.34058,428.39465,419.1129,428.55298,418.84375,428.5581C418.536,428.56396,417.92712,428.92188,417.43518,429.3545C416.98108,429.74792,416.1073,430.3418,415.49707,430.6228C414.88684,430.9038,414.39355,431.25964,414.39648,431.41333C414.39868,431.5288,413.90295,431.76904,413.25208,431.9353C412.63965,432.10083,412.10547,432.34204,412.10767,432.4574C412.1106,432.61133,411.19775,433.16736,410.1305,433.68787C409.02466,434.20923,407.7279,434.81104,407.27075,435.05078C406.99536,435.1823,406.73523,435.24356,406.4998,435.24356C405.6595,435.24356,405.13385,434.46365,405.3523,433.3175C405.4901,432.46826,405.36658,432.04736,404.89783,431.67163C404.48257,431.37256,403.10086,431.2117,401.69162,431.2117C400.45193,431.2117,399.19095,431.33618,398.54785,431.6006C398.3551,431.6764,398.05115,431.7103,397.67203,431.7103C395.42197,431.7103,390.52405,430.51572,390.51025,429.79175C390.5074,429.64087,390.28238,429.49423,389.9833,429.49423C389.9775,429.49423,389.97168,429.49426,389.96582,429.4944C389.96182,429.49445,389.9578,429.4945,389.95377,429.4945C389.64505,429.4945,389.15012,429.2755,388.87927,429.01477C388.6057,428.78906,387.40002,428.11963,386.2345,427.52625C383.55557,426.26917,381.06766,424.93152,380.7925,424.62903C380.67435,424.47742,380.209,424.29395,379.74442,424.1488C379.2416,424.00452,378.85098,423.70422,378.84732,423.51184C378.84372,423.32242,378.61697,423.17447,378.3895,423.17447C378.3861,423.17447,378.3827,423.1745,378.3793,423.17456C378.36823,423.17477,378.35718,423.1749,378.34613,423.1749C377.8217,423.1749,377.3348,422.92075,373.60428,420.95703C372.3212,420.2506,370.4174,419.2865,369.3301,418.76855C368.2814,418.25,367.3096,417.72986,367.19193,417.6167C367.0745,417.50354,366.14175,417.02112,365.05447,416.50317C364.00577,415.98462,363.03452,415.50293,362.91708,415.38977C362.68185,415.16333,361.20486,414.38367,357.67038,412.6427C356.38858,412.01318,355.26138,411.41895,355.14383,411.3058C354.90854,411.07935,351.87698,409.4828,350.59683,408.93005C350.09238,408.70886,349.70187,408.40857,349.69894,408.25464C349.69675,408.13928,349.19223,407.9181,348.5355,407.77673C347.91714,407.63464,347.37357,407.3756,347.3699,407.18323C347.3663,406.99423,347.17752,406.84595,346.9153,406.84595C346.91077,406.84595,346.90622,406.84598,346.90164,406.84607C346.90057,406.8461,346.8995,406.8461,346.8984,406.8461C346.3809,406.8461,341.47153,404.60187,341.15714,404.22388C341.03952,404.11072,340.26584,403.89453,339.41684,403.75696C338.56772,403.61914,337.67722,403.32825,337.40427,403.1411C337.2145,402.9835,336.41595,402.9161,335.27795,402.9161C331.2578,402.9161,323.00156,403.75677,322.38464,404.42847C322.2708,404.50757,322.5437,404.69482,322.9312,404.8413C323.31805,404.94922,324.2093,405.27856,324.9074,405.573C325.5607,405.86523,326.25015,406.08136,326.48773,406.08136C326.4901,406.08136,326.49246,406.08133,326.49475,406.0813C326.49612,406.08127,326.4975,406.08127,326.4989,406.08127C326.6968,406.08127,327.38864,406.33585,327.96735,406.63037C328.57986,406.9221,329.37854,407.173,329.76953,407.173C329.77515,407.173,329.78064,407.17294,329.78607,407.17285C329.79382,407.1727,329.8017,407.17264,329.8097,407.17264C330.1598,407.17264,330.7592,407.31238,331.1388,407.49316C331.48865,407.67896,332.57446,408.11987,333.54257,408.44775C334.51144,408.81396,335.8295,409.3274,336.5269,409.5835C337.18106,409.8763,337.90967,410.09195,338.10925,410.09195C338.11093,410.09195,338.11258,410.09195,338.11417,410.09192C338.1186,410.09183,338.12302,410.0918,338.12744,410.0918C338.35376,410.0918,338.57944,410.20142,338.6578,410.35083C338.73837,410.54175,339.47787,410.98938,340.33218,411.39612C342.73972,412.54297,346.6794,415.35352,349.57773,418.0299C350.20294,418.6316,350.8251,419.08044,350.98145,419.08044C350.98193,419.08044,350.98245,419.08044,350.98294,419.08044C350.98325,419.08044,350.98358,419.08044,350.9839,419.08044C351.1406,419.08044,352.07584,419.7925,353.05295,420.69543C355.90994,423.21875,360.13364,426.79333,361.61795,427.9579C363.2982,429.3109,365.49026,431.26978,371.13016,436.47177C373.5574,438.7326,375.59167,440.53976,375.7094,440.53976C375.70947,440.53976,375.70956,440.53976,375.70963,440.53976C375.70966,440.53976,375.7097,440.53976,375.70972,440.53976C375.94492,440.53976,391.10986,455.13632,393.54333,457.66745C394.21045,458.34726,396.40833,460.61386,398.4496,462.72958C402.21594,466.5438,405.7505,470.28537,408.54065,473.34872C410.78223,475.88388,411.64612,476.79086,413.6095,478.86948C414.6294,479.8889,415.88818,481.327,416.479,482.04672C417.03137,482.7673,418.17175,484.05356,418.9956,484.88437C419.781,485.7159,420.45032,486.51105,420.45325,486.66486C420.45544,486.7802,421.04626,487.50018,421.75256,488.2176C423.63696,490.1823,426.07678,493.02155,426.8694,494.2376C427.30258,494.84277,427.7719,495.3326,427.9655,495.3326C427.96622,495.3326,427.96695,495.33258,427.96765,495.33258C427.96948,495.33255,427.9713,495.33252,427.97314,495.33252C428.16302,495.33252,428.31766,495.52032,428.32202,495.74896C428.32715,496.01813,428.72205,496.54938,429.2307,497.0014C429.70044,497.4156,430.44824,498.2862,430.8452,498.9328C431.6764,500.14813,431.7157,500.18585,433.44604,502.15363C434.07556,502.87274,434.62793,503.5932,434.63013,503.70856C434.63232,503.82404,434.98877,504.35577,435.4598,504.847C435.89255,505.33893,436.64096,506.2481,437.11337,506.81622C437.58676,507.4228,438.21616,508.14178,438.49057,508.40582C438.72702,508.70917,438.96518,509.08942,438.96957,509.32013C438.97324,509.5125,439.2108,509.8542,439.48288,510.003C439.7551,510.15167,440.62033,511.13556,441.37167,512.19855C442.08383,513.22394,442.79453,514.17206,442.91196,514.2852C444.71298,515.90533,446.86557,519.82733,446.89792,521.5197C446.90964,522.1351,447.11362,522.7469,447.30807,522.8586C447.541,522.96954,447.728,524.6973,447.7662,526.6973C447.8044,528.69745,447.68344,530.4311,447.45493,530.55096C447.22714,530.7093,447.2452,539.71234,447.52255,556.2518C448.02975,584.82996,448.2031,620.1094,447.84238,629.4275C447.6981,633.97034,447.43307,636.20703,446.85007,637.91125C446.45126,639.1885,446.09152,640.50354,446.09738,640.8113C446.10324,641.119,445.88644,641.8541,445.5898,642.437C445.29306,643.01965,444.96616,644.0265,444.8254,644.7217C444.56906,645.9885,443.89243,646.9759,443.30542,646.9759C443.24814,646.9759,443.19168,646.9665,443.13657,646.947C442.8658,646.8751,442.60214,643.1481,442.3635,636.6887C442.13864,630.95996,441.82114,626.4259,441.62668,626.3142C441.43222,626.2024,441.1373,624.8613,440.994,623.4021C440.84995,621.9042,440.43112,618.103,440.02463,614.9557C439.61752,611.7699,439.05685,606.5864,438.8044,603.4363C438.51254,600.2483,438.1107,597.3318,437.94882,596.9115C437.74838,596.49207,437.3375,593.114,437.03622,589.42615C436.39902,582.2433,435.83762,577.02124,435.4111,574.8362C435.2817,574.10754,434.96252,571.4973,434.68542,569.0786C434.4469,566.65906,433.93567,562.0518,433.52942,558.9046C432.9309,553.7601,432.5127,549.9975,431.03015,536.8283C430.37488,530.7232,429.6875,526.96564,429.0885,525.8227C428.7699,525.2518,428.48523,524.44904,428.47778,524.0644C428.47122,523.72003,428.35117,523.41595,428.19833,523.41595C428.19757,523.41595,428.1968,523.41595,428.19604,523.41595C428.1957,523.41595,428.19534,523.41595,428.195,523.41595C428.0011,523.41595,427.2519,522.3927,426.53662,521.139C425.78268,519.8855,425.03314,518.862,424.87775,518.862C424.8775,518.862,424.8773,518.862,424.87708,518.862C424.87634,518.862,424.8756,518.862,424.87485,518.862C424.72113,518.862,424.4861,518.55975,424.364,518.17914C424.2035,517.836,423.57104,516.9631,422.94177,516.2441C422.27478,515.5644,421.76013,514.8045,421.75708,514.6507C421.75342,514.4583,421.4369,514.00275,421.0835,513.6248C420.2212,512.79474,418.1328,510.2182,417.6963,509.53412C417.53735,509.26776,416.90808,508.54865,416.31946,507.94427C414.70935,506.24347,411.76013,502.914,411.40283,502.34357C411.24316,502.03888,410.34033,501.0943,409.43787,500.18805C408.53564,499.28192,407.1223,497.8083,406.25793,496.86273C401.4627,491.56775,392.94745,482.88086,384.63562,474.76706C380.75443,470.99362,377.10757,467.40793,376.51968,466.842C375.93106,466.23776,374.9512,465.2944,374.3638,464.76706C373.77664,464.23972,372.79678,463.29636,372.24637,462.69125C371.65787,462.087,370.44205,460.87875,369.50198,460.01193C368.56204,459.14487,367.58218,458.20163,367.34622,457.93686C367.0718,457.67282,364.36868,455.14645,361.31436,452.35764C358.22147,449.5693,352.4233,444.13937,348.34842,440.2927C344.3118,436.44528,340.39438,432.78772,339.69028,432.18567C338.94705,431.54565,338.12247,430.6765,337.8066,430.25928C337.0967,429.34937,334.1354,427.40515,332.54675,426.82007C331.92694,426.60095,330.5365,426.31958,329.45648,426.1864C328.41516,426.05225,327.37213,425.84143,327.13843,425.6919C326.94324,425.54175,325.66888,425.29688,324.31982,425.16858C323.00903,425.0398,321.81158,424.79333,321.69257,424.60315C321.57135,424.4042,320.72128,424.3142,319.80142,424.3142C318.61093,424.3142,317.3036,424.46497,317.30853,424.72534C317.31216,424.91553,317.46622,425.10272,317.6927,425.10272C317.6953,425.10272,317.69794,425.10272,317.70056,425.10266C317.70123,425.10266,317.70193,425.10263,317.70264,425.10263C318.0969,425.10263,321.358,427.1504,322.29572,427.97754C322.56644,428.23828,323.06134,428.45715,323.37006,428.45715C323.3741,428.45715,323.37814,428.4571,323.38214,428.45703C323.39008,428.45688,323.39795,428.4568,323.40576,428.4568C323.70172,428.4568,323.9229,428.5661,323.92578,428.71594C323.9679,428.9076,324.9049,429.6206,326.07275,430.32935C327.24054,431.0382,328.21613,431.7505,328.21906,431.90454C328.2227,432.09183,328.48062,432.2014,328.77853,432.2014C328.7863,432.2014,328.79404,432.20132,328.80182,432.20117C328.8048,432.2011,328.8078,432.20108,328.81085,432.20108C329.1201,432.20108,329.65768,432.49634,330.04584,432.87012C330.43787,433.2473,331.4532,434.03577,332.27277,434.63586C334.26144,436.02145,339.1559,440.46823,339.16324,440.85275C339.1669,441.04514,339.6401,441.6517,340.2673,442.25546C342.03268,444.03,343.49173,445.88742,343.50204,446.426C343.50714,446.69315,343.66287,446.91943,343.85306,446.91943C343.85458,446.91943,343.8561,446.91943,343.85764,446.9194C343.8584,446.9194,343.85916,446.91937,343.85995,446.91937C344.05225,446.91937,344.32883,447.37433,344.49295,447.94614C344.61935,448.52097,344.89963,449.09274,345.05576,449.20517C345.4846,449.5046,349.07993,456.4388,349.09097,457.01572C349.0961,457.28488,349.25565,457.5897,349.41104,457.66367C349.5663,457.73764,350.99808,460.17282,352.51608,463.10654C354.0726,466.0394,355.9081,469.46713,356.6246,470.72324C357.30276,471.98007,357.8646,473.2004,357.86978,473.4697C357.87488,473.73685,357.9929,473.96387,358.1825,473.96387C358.184,473.96387,358.18552,473.96387,358.18704,473.96384C358.18732,473.96384,358.1876,473.96384,358.1879,473.96384C358.3426,473.96384,358.81857,474.76175,359.22244,475.791C359.66458,476.78293,360.1451,477.77426,360.3425,478.03964C361.0126,478.87338,364.24854,485.1217,364.2574,485.58325C364.26324,485.891,364.42206,486.15735,364.57745,486.23132C365.00348,486.3772,367.8388,491.7865,367.85126,492.44043C367.85638,492.7096,367.9776,493.01514,368.17133,493.08826C368.52045,493.2356,372.23395,500.3214,372.24493,500.89832C372.24933,501.12903,372.36993,501.396,372.56378,501.46936C373.06818,501.69043,374.227,503.93848,374.2431,504.78467C374.25183,505.24377,374.4106,505.58585,374.6015,505.58585C374.6025,505.58585,374.60355,505.58585,374.60455,505.58582C374.60516,505.58582,374.60577,505.5858,374.60638,505.5858C374.79886,505.5858,375.11606,506.15527,375.24347,506.80493C375.41058,507.49414,375.69366,508.21985,375.8521,508.44775C376.00958,508.63696,376.29425,509.43958,376.42352,510.1682C376.59137,510.896,376.87897,511.85242,377.07928,512.272C378.0849,514.56116,378.76288,521.85876,379.99652,544.1515C380.34418,550.2626,380.7531,555.56445,380.9129,555.86926C381.03412,556.1747,381.4544,560.05273,381.8089,564.5093C382.16254,568.92725,382.70013,574.9193,382.9853,577.76105C383.92133,586.47723,384.01532,607.5219,383.15338,608.73126C383.0031,608.92645,382.76996,610.8162,382.695,612.9338C382.58087,615.01373,382.3499,617.01886,382.16412,617.3687C381.97845,617.71857,381.67047,619.7253,381.5185,621.8443C381.32806,623.9642,380.92902,627.24225,380.61957,629.17194C380.3094,631.0632,380.008,633.4161,379.91095,634.3798C379.8139,635.34357,379.60077,636.27106,379.45135,636.5048C379.3012,636.70013,379.05695,638.0129,378.9295,639.40045C378.8022,640.788,378.55707,642.06244,378.40765,642.2961C378.2574,642.4914,378.0125,643.7658,377.88434,645.1149C377.75543,646.4256,377.50897,647.6231,377.3189,647.7421C377.12885,647.86115,376.99188,648.7487,377.01093,649.7487C376.99164,650.7496,376.7895,652.25385,376.49786,653.106C376.20624,653.95795,375.95917,655.117,375.97015,655.6939C375.98114,656.2708,375.83746,656.8123,375.6474,656.93146C375.45746,657.0505,375.20795,658.09406,375.07684,659.28925C374.98358,660.4454,374.73407,661.48895,374.544,661.6081C374.39227,661.7264,374.14142,662.69305,374.0074,663.73444C373.87408,664.8144,373.6596,665.66486,373.46722,665.66864C373.31342,665.6716,373.05963,666.48444,372.92413,667.4489C372.78937,668.45184,372.57916,669.53314,372.39337,669.883C372.24615,670.2321,371.9516,670.93036,371.73114,671.4731C371.54926,672.0153,370.36835,674.65424,369.07355,677.3724C366.81915,682.2248,364.19507,685.85333,362.9259,685.8775C362.9219,685.87756,362.91794,685.8776,362.91397,685.8776C361.92206,685.8776,361.46057,683.5168,362.28717,682.65765C362.47516,682.42316,362.6187,681.8819,362.60986,681.42035C362.60034,680.92035,362.7453,680.45575,362.9355,680.33673C363.12567,680.2177,363.37354,679.0972,363.5047,677.9019C363.6349,676.66815,363.84296,675.4715,364.03156,675.2756C364.18097,675.0417,364.42236,673.575,364.54614,671.9952C364.6314,670.41595,364.87207,668.9108,365.06067,668.7148C365.21014,668.48114,365.4145,667.0921,365.54034,665.6276C365.9123,660.92645,366.4417,656.4145,366.77252,655.60016C366.9184,655.17426,367.1479,653.0921,367.22284,650.97455C367.33636,648.85614,367.53033,646.92865,367.68048,646.73334C367.79144,646.5004,368.06317,644.6099,368.29205,642.4892C368.52094,640.3687,368.9112,636.6291,369.21112,634.1993C369.51105,631.7697,369.79108,628.30145,369.872,626.4915C369.95282,624.6816,370.11212,622.9472,370.26007,622.6364C370.55377,621.8997,371.18817,612.8073,371.58307,603.2576C371.78802,597.867,371.72772,594.7132,371.34442,590.7575C370.68317,584.34454,369.7011,577.24506,369.3404,576.4826C369.21918,576.17706,369.0003,574.79626,368.85858,573.4137C368.7552,572.0305,368.3554,569.2294,367.96954,567.15906C366.294,557.99524,365.90448,555.73254,365.41608,552.3175C365.1087,550.32263,364.72577,548.4061,364.60455,548.1006C364.2821,547.33716,362.95428,538.2438,362.92487,536.7053C362.9124,536.0514,362.7461,535.4005,362.5515,535.2887C362.35706,535.177,362.05548,533.48975,361.8642,531.5311C361.6728,529.5724,361.3683,527.73145,361.16943,527.38904C360.97125,527.08496,360.6239,525.0139,360.3506,522.7876C359.74533,517.2632,358.35605,510.90894,357.77823,510.90894C357.77774,510.90894,357.77722,510.90894,357.77673,510.90894C357.7763,510.90894,357.77588,510.90894,357.77548,510.90894C357.6215,510.90894,357.38132,510.37625,357.21613,509.76538C357.05112,509.15506,356.77292,508.62326,356.58072,508.62326C356.58005,508.62326,356.5794,508.6233,356.57874,508.6233C356.5772,508.62332,356.57568,508.62332,356.57416,508.62332C356.38397,508.62332,356.22824,508.3969,356.22308,508.12988C356.21796,507.8606,355.85565,507.02112,355.4171,506.22156C354.9793,505.4602,354.61548,504.54382,354.60962,504.23608C354.6038,503.93002,354.44656,503.665,354.29343,503.665C354.29257,503.665,354.29175,503.665,354.2909,503.66504C354.29034,503.66504,354.2898,503.66507,354.28928,503.66507C354.09653,503.66507,353.70068,503.01993,353.3792,502.2589C353.05676,501.49548,352.1361,499.6277,351.33823,498.14233C350.54105,496.69556,349.18497,494.1819,348.34708,492.62048C347.50937,491.05884,346.71365,489.68884,346.59598,489.57568C346.43997,489.46326,346.19968,488.96765,346.0355,488.43225C345.87137,487.8966,345.63113,487.40112,345.47513,487.28857C345.00613,486.91284,343.84744,484.6648,343.8364,484.08777C343.82986,483.74402,343.6731,483.4791,343.48267,483.4791C343.4813,483.4791,343.47995,483.4791,343.4786,483.47913C343.47794,483.47913,343.4773,483.47916,343.47662,483.47916C343.2843,483.47916,343.00604,482.94748,342.8411,482.33704C342.67526,481.68842,342.4362,481.19406,342.24417,481.19406C342.24344,481.19406,342.24274,481.1941,342.24203,481.1941C342.24155,481.1941,342.24106,481.1941,342.24054,481.1941C342.08597,481.1941,341.73242,480.74023,341.49088,480.1311C341.28738,479.5577,340.45102,478.0732,339.69595,476.81796C338.941,475.56247,338.29984,474.22824,338.25406,473.84433C338.24744,473.5002,338.08963,473.19708,337.8989,473.19708C337.89777,473.19708,337.89664,473.19708,337.89548,473.1971C337.8948,473.1971,337.89417,473.19714,337.8935,473.19714C337.7012,473.19714,337.4231,472.66534,337.2581,472.0549C337.09232,471.4064,336.85318,470.91205,336.66116,470.91205C336.66043,470.91205,336.65973,470.91208,336.65903,470.91208C336.6584,470.91208,336.6577,470.9121,336.65704,470.9121C336.465,470.9121,336.2251,470.3796,336.05997,469.76926C335.89444,469.12076,335.65518,468.6264,335.4632,468.6264C335.4625,468.6264,335.4618,468.62643,335.4611,468.62643C335.46072,468.62643,335.46036,468.62643,335.46,468.62643C335.03394,468.62643,332.67993,464.02316,332.66382,463.1777C332.65723,462.8341,332.4997,462.53116,332.27158,462.53116C332.26996,462.53116,332.2683,462.5312,332.26666,462.53122C332.26584,462.53125,332.26498,462.53125,332.26416,462.53125C332.07187,462.53125,331.7963,462.1146,331.63293,461.58127C331.50772,461.0471,331.27005,460.62946,331.11624,460.62946C331.1157,460.62946,331.1151,460.6295,331.11456,460.6295C331.11426,460.6295,331.11398,460.6295,331.11368,460.6295C330.959,460.6295,330.5221,459.86935,330.08142,458.9177C329.64066,457.96558,329.1652,457.2059,329.049,457.2059C329.04886,457.2059,329.04868,457.2059,329.04852,457.2059C329.04797,457.2059,329.04745,457.20593,329.0469,457.20593C328.893,457.20593,328.65527,456.7885,328.5301,456.254C328.1996,455.0676,326.31665,453.17953,325.11847,452.89474C324.11255,452.60605,323.91876,452.5328,320.00104,450.8763C318.53226,450.25256,317.18018,449.74115,316.98032,449.74115C316.97958,449.74115,316.97888,449.74118,316.9782,449.74118C316.97592,449.7412,316.97363,449.74124,316.97137,449.74124C316.78226,449.74124,316.62918,449.59155,316.62555,449.40158C316.6219,449.20932,316.11664,448.94968,315.45978,448.80832C314.84155,448.6661,314.2979,448.4072,314.29425,448.2148C314.29068,448.02747,313.95953,447.8831,313.55148,447.8831C313.5405,447.8831,313.52945,447.88318,313.51837,447.8834C313.09528,447.89145,312.75067,447.97495,312.75287,448.09042C312.75653,448.28268,314.01367,449.6439,317.62488,453.384C319.0374,454.8193,320.2193,456.25876,320.2237,456.48947C320.22876,456.7562,320.38403,456.98233,320.6113,456.98233C320.6135,456.98233,320.61566,456.9823,320.61786,456.98227C320.61868,456.98224,320.61954,456.98224,320.62036,456.98224C320.8126,456.98224,321.0883,457.39877,321.2516,457.93198C321.37683,458.4665,321.65262,458.8833,321.80673,458.8833C321.80728,458.8833,321.8078,458.88327,321.80835,458.88327C321.80905,458.88327,321.80975,458.88324,321.8105,458.88324C322.0025,458.88324,322.24164,459.37747,322.4074,460.0261C322.57245,460.63644,322.81244,461.16907,323.00443,461.16907C323.0051,461.16907,323.00577,461.16904,323.0064,461.16904C323.0071,461.16904,323.00778,461.169,323.00848,461.169C323.54565,461.169,323.85144,465.15753,323.4737,467.50864C323.2672,468.78232,322.982,471.98117,322.84033,474.63876C322.69867,477.29648,322.4372,479.7253,322.25073,480.0366C322.0651,480.38647,321.82895,482.12256,321.7089,483.89478C321.58957,485.70544,321.35123,487.32605,321.20175,487.5597C321.05154,487.75488,320.8472,489.14404,320.75967,490.60767C320.63297,492.0337,320.39676,493.76965,320.21774,494.4657C319.67905,496.4768,319.0048,499.4524,318.83743,500.76367C318.77365,501.45752,318.55392,502.0387,318.40018,502.04163C318.2463,502.04456,317.9924,502.85754,317.85776,503.86047C317.72372,504.90186,317.51126,505.86792,317.32333,506.1023C317.17313,506.2976,316.95926,507.18665,316.82156,508.03577C316.6838,508.8849,316.4744,510.00464,316.2924,510.54675C316.14877,511.08813,315.71518,512.5585,315.35483,513.8352C314.99442,515.1118,314.5557,516.31287,314.40622,516.54663C314.256,516.7418,314.04147,517.5925,313.90298,518.40295C313.76382,519.1753,313.50858,519.91113,313.3569,520.0294C313.16678,520.1487,312.9506,520.92224,312.8129,521.77136C312.67532,522.6205,312.45773,523.31726,312.26547,523.3209C312.1116,523.32385,311.89188,523.905,311.7889,524.56116C311.5513,526.2202,310.7144,528.7372,310.36832,528.7438C310.2529,528.746,310.03537,529.44275,309.8976,530.29175C309.75992,531.14087,309.50388,531.83826,309.3115,531.8419C309.11923,531.8456,308.97122,532.15625,308.9778,532.5023C308.94675,532.8878,308.65817,533.8937,308.2513,534.7479C307.84433,535.6023,307.55197,536.4158,307.51645,536.5703C307.52164,536.8396,306.78616,538.6234,305.09183,542.58057C304.7966,543.24023,304.57986,543.97534,304.58426,544.2062C304.58865,544.4369,304.4385,544.6322,304.24612,544.63586C304.0538,544.6395,303.79416,545.1448,303.65274,545.80164C303.51065,546.4199,303.25162,546.9634,303.05942,546.96704C302.8671,546.9707,302.71982,547.3198,302.7272,547.7046C302.73526,548.12756,302.5895,548.5536,302.40012,548.71106C302.21005,548.8301,301.95255,549.4507,301.81046,550.069C301.66904,550.72595,301.44778,551.23035,301.25558,551.234C301.06326,551.2377,300.84268,551.7805,300.7007,552.3988C300.55856,553.0171,300.29965,553.5608,300.10727,553.56445C299.9149,553.5681,299.76694,553.8788,299.775,554.30176C299.78232,554.6864,299.56186,555.22925,299.2971,555.46533C298.99374,555.7019,298.47372,556.6738,298.06894,557.64343C297.70267,558.6123,297.25583,559.39026,297.10196,559.3933C296.9481,559.39624,296.798,559.59155,296.80246,559.82227C296.8127,560.3607,294.16922,564.98987,293.749,565.15173C293.5966,565.23157,293.4487,565.54224,293.45462,565.85C293.46048,566.1577,293.311,566.39136,293.11868,566.395C292.92648,566.3987,292.62607,566.7892,292.48105,567.25354C292.3367,567.7567,291.85135,568.5354,291.3602,569.0066C290.86905,569.47754,290.4562,570.0242,290.45914,570.178C290.46207,570.3318,289.70963,571.2312,288.80356,572.1334C287.44464,573.5061,286.8736,573.8248,285.68115,573.84753C285.66043,573.8479,285.63965,573.84814,285.61887,573.84814C284.2887,573.84814,282.81863,573.04395,282.8042,572.2866C282.80054,572.09424,282.24878,571.4121,281.6209,570.77C280.66888,569.8537,279.63135,569.40546,278.57956,569.40546C276.9465,569.40546,275.27917,570.4861,273.8446,572.573C272.90814,573.89905,272.60406,574.0973,271.25787,574.1229C271.20718,574.1239,271.1577,574.1244,271.1093,574.1244C269.94653,574.1244,269.42087,573.8256,267.91486,572.33997C266.85736,571.35974,265.5993,569.9601,265.00842,569.24036C263.38953,567.0781,259.10425,560.2726,259.09473,559.7726C259.09036,559.54407,258.9358,559.35614,258.74597,559.35614C258.74414,559.35614,258.7423,559.35614,258.74048,559.3562C258.7397,559.3562,258.7389,559.3562,258.7381,559.3562C258.54593,559.3562,258.26947,558.90106,258.1053,558.32947C257.97882,557.75476,257.6986,557.183,257.54254,557.07043C257.38647,556.958,256.6692,555.66345,255.91052,554.21594C255.151,552.72986,254.39612,551.4746,254.24152,551.43896C254.04773,551.3657,253.92798,551.1372,253.92358,550.9064C253.91986,550.7141,253.39484,549.416,252.71454,548.0438C252.07349,546.70935,251.51001,545.41187,251.50635,545.2196C251.50275,545.03,251.35037,544.88086,251.12512,544.88086C251.12178,544.88086,251.11842,544.8809,251.11505,544.881C251.11374,544.881,251.11243,544.88104,251.11111,544.88104C250.92004,544.88104,250.7253,544.61694,250.71948,544.3113C250.71362,544.00354,250.3498,543.08704,249.91205,542.3259C249.47357,541.52625,249.10901,540.5713,249.10242,540.2251C249.09508,539.84283,248.93726,539.5395,248.74658,539.5395C248.7454,539.5395,248.74422,539.53955,248.74304,539.53955C248.74255,539.53955,248.74208,539.53955,248.7416,539.53955C248.5493,539.53955,248.26709,538.8152,248.09613,537.89734C247.92535,537.0156,247.64069,536.213,247.52307,536.09985C247.09412,535.8002,245.88965,533.16846,245.87714,532.5145C245.8706,532.17114,245.71413,531.90643,245.4864,531.90643C245.48453,531.90643,245.48265,531.90643,245.48077,531.9065C245.48027,531.9065,245.47975,531.9065,245.47923,531.9065C245.28674,531.9065,244.96712,531.2214,244.83588,530.37976C244.66626,529.53827,244.42303,528.85156,244.2691,528.85156C244.26878,528.85156,244.26845,528.85156,244.26813,528.85156C244.26762,528.85156,244.2671,528.85156,244.2666,528.85156C244.07451,528.85156,243.83139,528.165,243.66187,527.3241C243.49228,526.4831,243.21078,525.79724,243.0185,525.79724C243.01799,525.79724,243.01747,525.79724,243.01697,525.79724C243.01627,525.79724,243.01556,525.79724,243.01486,525.79724C242.82346,525.79724,242.66121,525.3017,242.64954,524.6886C242.63702,524.03467,242.47137,523.42224,242.23853,523.31116C242.04395,523.19946,241.84369,522.78015,241.8371,522.43396C241.83044,522.08777,241.54578,521.28516,241.22699,520.7141C240.90833,520.14307,240.54156,519.0729,240.37299,518.3065C240.24377,517.5779,239.96126,516.89075,239.7676,516.8175C239.61153,516.70496,239.32533,515.82544,239.15382,514.9054C239.02037,513.9483,238.73756,513.18555,238.54526,513.18555C238.54478,513.18555,238.54431,513.18555,238.54384,513.18555C238.54292,513.18555,238.542,513.18555,238.54109,513.18555C238.34999,513.18555,238.1901,512.80524,238.14235,512.30835C238.12325,511.30823,236.84206,506.67712,236.44563,506.06897C236.28737,505.84106,236.03822,504.88416,235.86684,503.96387C235.69533,503.04382,235.4463,502.08655,235.25026,501.89795C235.092,501.67004,234.8022,500.5984,234.62703,499.48584C234.45186,498.3734,234.16353,497.37842,234.0074,497.266C233.813,497.1543,233.64961,496.65723,233.64009,496.15723C233.63051,495.6571,233.33406,494.23938,233.00294,493.01453C232.67244,491.82788,232.36647,489.9099,232.34517,488.79456C232.3246,487.71753,232.15169,486.72058,231.95717,486.60876C231.7618,486.45862,231.45888,484.69446,231.2654,482.62048C231.07265,480.58496,230.76747,478.7056,230.60994,478.51614C230.45168,478.28824,230.13905,476.02408,229.9352,473.41165C229.73232,470.8399,229.4231,468.731,229.2308,468.731C229.23064,468.731,229.23047,468.731,229.2303,468.731C229.22981,468.731,229.22932,468.731,229.22882,468.731C228.76865,468.731,228.69069,464.624,229.14656,464.34622C229.33662,464.2272,229.59114,463.4529,229.73036,462.6807C229.86879,461.87003,230.08565,461.1348,230.23732,461.0165C230.35048,460.89908,230.91267,460.11856,231.43501,459.26224C231.9958,458.40506,233.0093,457.07742,233.6869,456.29495C235.94691,453.7509,238.73067,450.42728,239.0273,449.8445C239.24374,449.46765,239.10353,449.31424,238.60542,449.31424C238.58919,449.31424,238.57256,449.3144,238.55556,449.31473C238.13246,449.32278,237.71236,449.48465,237.6006,449.67923C237.4889,449.8738,236.91713,450.15408,236.34315,450.319C235.76839,450.44534,235.19655,450.72562,235.08412,450.88174C234.82301,451.30997,227.42738,454.9141,226.85048,454.92508C226.42744,454.93314,223.6725,457.7559,223.68062,458.179C223.68794,458.56363,222.1764,462.01688,221.83607,462.3312C221.72285,462.44876,221.3152,463.26456,220.90907,464.15726C220.50362,465.08853,220.05598,465.82803,219.90211,465.83096C219.7098,465.83463,219.59877,466.06754,219.60316,466.29837C219.61494,466.91385,216.95296,472.58218,216.5713,472.74332C216.38045,472.82388,216.27089,473.13394,216.27675,473.44156C216.28267,473.7493,216.1332,473.98294,215.94087,473.9866C215.74855,473.99026,215.48885,474.4955,215.34755,475.15225C215.2054,475.77054,214.98494,476.3134,214.79274,476.31705C214.60036,476.3207,214.3791,476.82523,214.23775,477.48196C214.0956,478.10025,213.83669,478.64395,213.6443,478.6476C213.45198,478.65128,213.3041,478.96194,213.31142,479.3466C213.31874,479.73123,213.17372,480.19556,212.9858,480.43005C212.6078,480.78357,209.49529,487.03766,205.24022,495.93C203.9077,498.68732,202.72179,501.05695,202.60857,501.1745C202.4954,501.2923,202.12395,501.99188,201.75334,502.72992C201.42113,503.46747,200.3875,505.75726,199.46489,507.81415C198.54222,509.8709,197.76982,511.7326,197.77495,512.0018C197.77934,512.2326,197.6292,512.4278,197.39836,512.4322C197.2061,512.43585,197.01823,512.6702,197.02263,512.90106C197.02776,513.17035,196.81017,513.8671,196.51268,514.4113C196.25377,514.9549,195.89415,516.2701,195.76012,517.31146C195.62602,518.35284,195.37596,519.3581,195.22655,519.59186C195.03789,519.7878,194.83354,521.1768,194.74675,522.679C194.51616,526.7233,193.79778,533.43195,193.53667,533.8603C193.38652,534.0555,193.18584,535.6369,193.06352,537.29364C192.942,538.98895,192.70427,540.648,192.51793,540.9593C192.37071,541.3084,192.0656,543.46893,191.8797,545.8195C191.35065,552.37067,191.17963,553.4897,190.87994,553.91864C190.72986,554.11383,190.49664,556.0037,190.38165,558.0451C190.26746,560.12506,190.0321,561.89935,189.88043,562.01776C189.72876,562.13605,189.4925,563.872,189.37683,565.87494C189.26123,567.878,189.02362,569.5369,188.86975,569.53986C188.67743,569.5435,188.47815,571.20184,188.36261,573.2048C188.24695,575.2077,188.01141,576.98224,187.82129,577.10114C187.63116,577.2203,187.5008,578.4539,187.52802,579.87714C187.51672,581.30084,187.33447,583.8438,187.05902,585.5422C186.78369,587.2403,186.55566,589.39935,186.5747,590.39935C186.59308,591.3609,186.41913,592.32623,186.23041,592.52203C185.47589,593.30597,186.69708,614.9448,187.6485,618.4281C187.81262,618.9635,188.1347,621.72754,188.38135,624.57007C189.11299,632.6708,189.88318,638.77185,190.19121,638.77185C190.19136,638.77185,190.1915,638.77185,190.19165,638.77185C190.19183,638.77185,190.19202,638.77185,190.1922,638.77185C190.38448,638.77185,190.65155,640.6891,190.84924,642.9916C191.04791,645.33484,191.35468,647.2914,191.51074,647.4037C191.66681,647.5161,191.97125,649.3572,192.16618,651.5082C192.36192,653.69763,192.6679,655.6156,192.82603,655.8435C193.1411,656.2223,193.22838,656.7593,194.10313,664.2838C194.41637,666.5864,194.76598,668.7728,194.96416,669.0769C195.16295,669.4193,195.46458,671.1067,195.65147,672.8345C195.83842,674.5624,196.13628,676.05725,196.29234,676.1697C196.44841,676.2821,196.7418,677.54614,196.92436,679.04333C197.10686,680.5404,197.40099,681.843,197.5955,681.9547C197.79002,682.0664,197.95341,682.5636,197.96227,683.025C197.97179,683.525,198.25871,684.4431,198.5775,685.01416C199.37535,686.4994,199.41502,688.5764,198.61314,688.89954C198.58614,688.90955,198.55515,688.9144,198.52045,688.9144C197.57358,688.9144,193.87619,685.2844,193.51604,683.91797C193.39081,683.3836,193.15326,682.96594,192.99933,682.96594C192.9988,682.96594,192.99826,682.96594,192.99773,682.96594C192.99744,682.96594,192.99713,682.96594,192.99684,682.96594C192.84218,682.96594,192.40527,682.2058,191.96466,681.25415C191.52399,680.3026,191.04883,679.5432,190.89401,679.5432C190.89372,679.5432,190.89342,679.5432,190.89313,679.5432C190.89276,679.5432,190.8924,679.5432,190.89203,679.5432C190.7381,679.5432,190.4963,678.9335,190.32904,678.2074C190.20003,677.48096,189.92032,676.8722,189.72804,676.8722C189.72746,676.8722,189.7269,676.8722,189.72632,676.8722C189.72595,676.8722,189.72559,676.8722,189.72522,676.8722C189.5711,676.8722,189.29105,676.263,189.12366,675.537C188.99469,674.81024,188.75293,674.20044,188.59906,674.20044C188.5987,674.20044,188.59833,674.20044,188.59796,674.20044C188.5978,674.20044,188.59763,674.20044,188.59746,674.20044C188.44302,674.20044,187.95645,672.8642,187.54138,671.25793C187.08667,669.61206,186.63428,668.08167,186.4383,667.89307C186.28003,667.66516,186.03094,666.7081,185.85944,665.78784C185.6872,664.8292,185.43811,663.8721,185.24213,663.6835C185.0838,663.4557,184.79407,662.3839,184.61896,661.27136C184.44379,660.15894,184.19391,659.1633,184.00018,659.08997C183.84412,658.97766,183.54987,657.67505,183.3681,656.21643C183.22424,654.72046,182.89436,653.53516,182.74025,653.53516C182.74007,653.53516,182.73987,653.53516,182.73969,653.53516C182.73927,653.53516,182.73885,653.53516,182.73843,653.53516C182.54675,653.53516,182.3774,652.6933,182.3576,651.657C182.3371,650.5801,182.16559,649.6599,181.97034,649.50977C181.73743,649.3988,181.44318,648.0962,181.26141,646.6377C181.11755,645.1416,180.82603,643.95557,180.67201,643.95557C180.67183,643.95557,180.67163,643.95557,180.67145,643.95557C180.67128,643.95557,180.67113,643.95557,180.67096,643.95557C180.51701,643.95557,180.22185,642.5772,180.03583,640.8895C179.84987,639.20197,179.5547,637.8235,179.4007,637.8235C179.40053,637.8235,179.40038,637.8235,179.4002,637.8235C179.39998,637.8235,179.39973,637.8235,179.3995,637.8235C179.20724,637.8235,178.9482,636.3292,178.75854,634.44995C178.56952,632.6068,178.26788,630.91956,178.11047,630.7302C177.95221,630.5023,177.70374,629.5835,177.57,628.62427C176.83789,622.5205,176.18231,618.416,175.91022,618.26746C174.9754,617.66956,173.24481,583.4587,174.07037,582.3658C174.2583,582.1313,174.45782,578.4722,174.53082,574.23846C174.60461,570.04315,174.80267,566.3072,174.94995,565.95807C175.13629,565.64655,175.38477,560.5245,175.54095,554.59625C175.69708,548.6679,175.90735,541.54584,176.0091,538.8121C176.1101,536.03986,176.30981,530.38007,176.46051,526.1833C176.57275,521.9871,176.84918,518.3266,177.03711,518.0922C177.22437,517.8193,177.51141,516.7365,177.64545,515.6951C177.77875,514.6152,177.98969,513.5723,178.17822,513.3763C178.3277,513.14264,178.58301,512.4067,178.7237,511.7115C178.8266,511.05524,179.12329,510.47247,179.31555,510.4688C179.50787,510.46515,179.65363,510.03925,179.64337,509.50067C179.63306,508.96222,179.81732,508.53546,180.00958,508.5318C180.24036,508.5274,180.38983,508.29376,180.38397,507.98602C180.37805,507.6784,180.96631,506.24347,181.66919,504.76788C182.3728,503.33087,182.96112,501.89618,182.95593,501.6269C182.95154,501.39606,183.13934,501.16156,183.33167,501.15778C183.5625,501.15338,183.71265,500.9582,183.70825,500.72736C183.70013,500.30438,187.02289,492.96893,187.401,492.61542C187.51416,492.49786,188.14307,491.17755,188.84595,489.7022C191.35712,484.1906,192.94919,480.92798,193.36575,480.57373C193.5173,480.45544,193.70004,479.9518,193.84366,479.41055C194.13156,478.36612,195.2377,475.84402,195.53946,475.53043C195.65268,475.41287,196.06033,474.59708,196.46658,473.70438C196.87198,472.77322,197.31961,472.0336,197.47342,472.03067C197.58878,472.02847,197.8093,471.48563,197.95145,470.86722C198.0928,470.21036,198.35251,469.70523,198.54477,469.70157C198.73709,469.6979,198.88583,469.42593,198.87991,469.1182C198.86893,468.54117,201.0878,463.84317,201.5427,463.4883C201.65591,463.37076,201.9141,462.78848,202.01852,462.20926C202.16135,461.62943,202.42172,461.16287,202.61404,461.1592C202.80637,461.15555,202.95657,460.96024,202.95139,460.69095C202.9404,460.11404,206.26547,452.89407,206.68338,452.6166C206.83505,452.49832,207.09317,451.91617,207.19754,451.3372C207.34036,450.75723,207.60086,450.29056,207.79318,450.2869C207.9855,450.28323,208.13496,450.04947,208.12904,449.74185C208.12318,449.4341,208.34438,448.92984,208.60841,448.65543C208.9109,448.38016,209.21059,447.9512,209.28242,447.68057C210.01277,445.62747,219.93745,435.4341,221.24507,435.4091C221.4759,435.4047,221.70149,435.131,221.8495,434.82047C221.95906,434.51053,222.2231,434.23624,222.45387,434.23184C222.79994,434.22513,225.19221,432.5634,225.87148,431.85782C226.43727,431.26993,228.5655,429.8826,228.91158,429.876C229.1039,429.87234,229.29329,429.71487,229.28963,429.5225C229.28596,429.33023,229.66475,429.0153,230.16176,428.8517C230.62032,428.68912,231.07753,428.44962,231.19002,428.2935C231.30318,428.17593,232.06062,427.5458,232.89656,426.99112L234.41524,425.92337L232.03053,425.9689C230.7228,425.9938,229.57198,426.16983,229.46022,426.3643C229.34846,426.55887,228.16133,426.85074,226.85652,427.02957C225.51332,427.20914,224.28761,427.50186,224.05977,427.66006C223.87044,427.81766,222.7217,428.1088,221.57082,428.28482C220.41988,428.4606,219.23262,428.75272,218.88936,428.91312C216.41212,430.1531,214.97401,431.4119,209.46437,437.05777C206.06894,440.58536,202.40634,444.23355,201.38467,445.1381C198.96347,447.30057,160.78223,486.92902,158.18561,489.9798C157.09442,491.2702,155.17401,493.4616,153.85425,494.872C151.47888,497.41827,146.77254,502.8178,146.43733,503.4013C146.28859,503.67352,141.80928,508.87653,140.41481,510.40363C140.11372,510.7558,139.24965,511.84943,138.53651,512.78656C137.82405,513.762,136.88539,514.97284,136.39485,515.48224C135.90437,515.99176,135.53004,516.5378,135.5337,516.73004C135.53664,516.884,135.04915,517.5473,134.407,518.1751C133.80415,518.84076,133.27809,519.50494,133.28181,519.6972C133.28474,519.851,132.76094,520.63055,132.1595,521.3731C131.55806,522.11554,130.88118,522.9366,130.65553,523.21014C130.46834,523.4831,130.28261,523.8328,130.28554,523.98676C130.25002,524.1413,129.76479,524.9202,129.16328,525.66266C128.52339,526.40594,128.03883,527.2233,128.04396,527.4925C128.04909,527.76166,127.89967,527.9953,127.745804,527.9982C127.3611,528.00555,125.81477,531.65204,125.830215,532.45966C125.83534,532.72894,125.688126,533.07806,125.498,533.1971C125.30794,533.3161,125.06807,534.8598,124.98573,536.5927C124.865616,538.3649,124.65291,541.3316,124.49733,543.2585C124.34102,545.1468,124.02913,548.962,123.85115,551.73566C123.63411,554.4715,123.35921,558.2089,123.23988,560.0197C123.08205,561.831,122.77455,565.8769,122.5663,569.0744C122.31874,572.2343,122.0995,574.8548,122.02254,574.85626C121.90712,574.85846,121.54262,579.9443,120.63692,592.9665C120.40193,596.7801,120.03145,601.55835,119.87727,603.562C119.68477,605.5664,119.41939,609.80383,119.24953,613.0006C119.11745,616.1582,118.86482,619.0487,118.71687,619.3594C118.607376,619.6692,118.31258,622.3683,118.09987,625.33496C117.88722,628.30176,117.49153,633.77295,117.25436,637.47107C116.97866,641.17004,116.87887,646.0199,116.998436,648.24927C117.273705,652.5919,117.20925,653.2472,116.36306,653.2634C116.36059,653.2635,116.358116,653.2635,116.35564,653.2635C115.70227,653.2635,114.79154,651.63165,114.41012,649.7224C114.24154,648.95593,113.957664,648.192,113.76382,648.1188C113.60781,648.00635,113.32101,647.08826,113.148094,646.0912C112.97512,645.0941,112.688194,644.17615,112.493675,644.0646C111.36434,643.3551,110.930626,634.7446,108.83602,569.37506C107.58767,530.19147,107.55685,528.5761,108.21163,526.6014C108.5743,525.44025,109.01815,524.50824,109.17202,524.5053C109.32583,524.5024,109.58779,524.1125,109.73208,523.60956C109.8771,523.1452,110.32467,522.4056,110.77822,521.9737C111.23165,521.54193,111.94405,520.5662,112.391624,519.8267C112.83926,519.0871,113.51321,518.11224,113.88979,517.68195C114.26626,517.2515,114.97793,516.2375,115.46261,515.42035C115.90945,514.6423,116.47396,513.97723,116.66622,513.9736C116.85848,513.9699,117.00863,513.7747,117.004234,513.5439C116.995445,513.08246,118.981766,510.31256,120.30373,509.01776C120.756485,508.54742,121.130875,508.0014,121.127884,507.8476C121.124954,507.6938,121.61177,506.992,122.17543,506.28864C122.739944,505.62384,123.52785,504.56976,123.939835,503.9848C124.351944,503.39984,125.10133,502.34674,125.62807,501.721C126.15407,501.05682,126.67854,500.31573,126.8672,500.1198C127.01668,499.88605,127.42952,499.33954,127.805984,498.90924C128.14339,498.44086,129.38252,496.83978,130.50917,495.3946C131.63515,493.91107,133.21529,492.034,134.00685,491.17242C134.76064,490.35004,135.3998,489.56818,135.39687,489.4145C135.39467,489.299,136.14558,488.3228,137.08809,487.3045C138.0298,486.24762,138.78139,485.30988,138.77919,485.19452C138.77773,485.1175,139.22829,484.5318,139.83266,483.94318C140.39856,483.35498,141.52667,481.98694,142.35382,480.97058C143.18018,479.91605,144.61009,478.23428,145.55327,477.2543C146.49577,476.2361,147.73784,474.7886,148.30162,474.08536C153.14787,467.95206,182.50089,437.4955,187.16122,433.7128C187.76785,433.23953,188.97726,432.10074,189.92123,431.1592C190.82669,430.2184,191.85043,429.42935,192.15817,429.4235C192.46591,429.41763,192.73215,429.2587,192.72849,429.0663C192.72043,428.64322,194.19107,427.07608,196.34824,425.18802C197.14267,424.48026,198.58066,423.2217,199.48917,422.43472C201.91037,420.27237,204.9766,417.6359,205.39383,417.3201C205.62167,417.16202,206.49301,416.45267,207.32602,415.7442C208.19801,415.07343,209.07173,414.47968,209.30257,414.47528C209.53334,414.4709,209.76186,414.351,209.8351,414.1573C209.98232,413.80817,212.26875,412.64874,213.56923,412.23907C214.10469,412.0749,214.60023,411.83466,214.71272,411.67853C214.97462,411.28888,221.62306,408.85345,222.46913,408.83722C222.81532,408.83063,223.12007,408.67084,223.11568,408.44C223.11201,408.24774,223.72224,407.96674,224.45009,407.799C225.17873,407.6695,225.90431,407.3864,226.01607,407.19196C226.1277,406.99738,226.54787,406.8355,226.97102,406.82745C228.27864,406.80243,227.72627,406.08185,226.26027,405.8791C225.45045,405.779,224.25288,405.53265,223.59541,405.35272C222.97156,405.15796,221.08176,405.07275,219.06046,405.07275C216.1903,405.07275,213.055,405.24454,212.90218,405.51837C212.75197,405.71356,211.98793,405.99762,211.14467,406.16766C210.30135,406.3377,209.53725,406.62164,209.38722,406.81696C209.27547,407.0114,208.8553,407.17328,208.43214,407.18134C208.0475,407.18866,207.70438,407.34918,207.70804,407.54156C207.7117,407.73383,207.25534,408.01178,206.6813,408.1767C206.10654,408.30304,205.53482,408.5833,205.42166,408.701C205.30917,408.85712,204.28238,409.49225,203.13956,410.09113C201.99673,410.69012,199.86563,411.92352,198.38089,412.76007C194.95682,414.78766,191.87003,416.34708,191.37009,416.3566C191.13925,416.3611,190.94986,416.5186,190.95432,416.74942C190.95798,416.94168,190.69241,417.1392,190.38467,417.14505C190.07706,417.1509,189.8107,417.30984,189.81436,417.50223C189.81802,417.6945,189.43936,418.00955,188.98074,418.17203C188.48361,418.3356,188.02573,418.53665,187.9133,418.69278C187.80008,418.81033,186.8873,419.3665,185.82065,419.92545C184.79245,420.48367,183.84042,421.00223,183.7272,421.11978C183.61404,421.23734,182.85294,421.67508,182.0148,422.1143C181.17673,422.5535,180.4155,422.99136,180.3024,423.10892C180.18924,423.22647,179.27567,423.7443,178.20901,424.30313C177.18082,424.86136,176.22885,425.3799,176.11563,425.49747C176.00241,425.61514,175.24126,426.05276,174.40306,426.49197C173.56511,426.9313,172.80388,427.36905,172.69139,427.52505C172.57823,427.64273,171.66472,428.1603,170.598,428.71927C169.5692,429.2393,168.61705,429.7576,168.50389,429.87515C168.39067,429.9927,167.28716,430.62943,166.03032,431.30753C164.77428,432.0242,162.90874,433.05997,161.84276,433.65762C160.81535,434.2543,159.44542,435.04996,158.79814,435.4086C157.88853,435.92416,156.66666,436.064,152.7444,436.064C152.7273,436.064,152.71013,436.064,152.69292,436.064C152.63774,436.06393,152.58308,436.0639,152.52893,436.0639C148.84378,436.0639,147.48865,436.2085,146.62541,436.67996C145.71117,437.1591,145.60027,437.39212,145.95439,437.80862C146.58372,438.5275,146.15605,440.30582,145.42528,440.31973C145.41765,440.3199,145.40991,440.31995,145.4021,440.31995C145.05528,440.31995,144.529,440.17773,144.1486,439.95926C143.79877,439.77347,142.51776,439.18228,141.35443,438.70438C138.4447,437.4518,135.02258,435.55472,134.55005,434.98672C134.31409,434.72183,133.76904,434.38614,133.26611,434.24173C132.80164,434.0967,132.41113,433.7963,132.40747,433.6039C132.40385,433.4144,132.2141,433.2657,131.98766,433.2657C131.98436,433.2657,131.98108,433.26572,131.97778,433.26578C131.97675,433.2658,131.97571,433.2658,131.97466,433.2658C131.5038,433.2658,128.74364,431.28546,127.45155,429.9664C126.98305,429.5154,126.43957,429.1424,126.283325,429.1424C126.282715,429.1424,126.282104,429.14243,126.28151,429.14243C126.280594,429.14246,126.27966,429.14246,126.27873,429.14246C125.92669,429.14246,124.28961,427.90512,121.9861,425.83835C121.2074,425.20178,120.43009,424.64142,120.19603,424.64142C120.195114,424.64142,120.19421,424.64142,120.19331,424.64145C120.19247,424.64148,120.19161,424.64148,120.19074,424.64148C119.995834,424.64148,119.41372,424.2308,118.905716,423.70407C118.398094,423.17804,117.8546,422.76678,117.621735,422.76678C117.6205,422.76678,117.61928,422.76678,117.61806,422.7668C117.615746,422.76685,117.61343,422.76688,117.6111,422.76688C117.420135,422.76688,117.19108,422.61923,117.112206,422.4686C117.07003,422.2772,116.13149,421.4869,115.03921,420.6998C113.985985,419.9504,113.00973,419.19955,112.89138,419.04782C112.77389,418.93478,111.64156,418.07138,110.3547,417.17245C109.06704,416.2352,107.856346,415.29636,107.62124,415.07004C107.42452,414.843,106.096886,413.82944,104.69253,412.81747C103.28799,411.80527,102.07729,410.86667,101.95968,410.7534C101.842125,410.64023,100.98275,409.96396,100.007225,409.25168C99.0317,408.53915,98.210106,407.8237,98.13021,407.67148C98.05116,407.4843,97.82564,407.374,97.59942,407.374C97.59489,407.374,97.59036,407.37402,97.58584,407.3741C97.58494,407.37415,97.58404,407.37415,97.58312,407.37415C97.3487,407.37415,96.533356,406.81436,95.753876,406.13925C93.525604,404.29648,92.5101,403.5079,90.9133,402.49948C90.13382,401.97568,89.35068,401.25974,89.227936,400.8773C89.10689,400.53616,88.79751,400.23648,88.52988,400.23648C88.52762,400.23648,88.52536,400.2365,88.5231,400.23654C88.521065,400.23657,88.519005,400.2366,88.51692,400.2366C88.24446,400.2366,87.62796,399.90417,87.12381,399.49374C86.61728,399.08163,86.11239,398.74582,85.99482,398.74582C85.99444,398.74582,85.99406,398.74582,85.99368,398.74582C85.99349,398.74582,85.99331,398.74582,85.99312,398.74582C85.87535,398.74582,84.97885,398.07126,84.00278,397.24484C83.024994,396.41684,81.73447,395.3259,81.14731,394.7983C80.56205,394.27283,79.94096,393.8625,79.78434,393.8625C79.78378,393.8625,79.783226,393.86252,79.782684,393.86252C79.78226,393.86252,79.78182,393.86252,79.78139,393.86252C79.62498,393.86252,78.924286,393.3385,78.2222,392.738C77.52053,392.10025,76.783714,391.61566,76.54937,391.61566C76.54832,391.61566,76.54727,391.61566,76.546234,391.6157C76.5432,391.61575,76.54016,391.61578,76.53714,391.61578C76.349075,391.61578,76.197845,391.50388,76.194244,391.31467C76.19125,391.16074,75.214325,390.37143,74.04435,389.54733C72.874306,388.72324,71.89811,387.97226,71.89591,387.8569C71.893654,387.74155,71.38627,387.36642,70.76359,386.99362C69.63566,386.36093,68.8162,385.76096,66.31272,383.61572C65.650085,383.0531,64.98951,382.6051,64.83291,382.6051C64.832405,382.6051,64.831894,382.6051,64.8314,382.6051C64.83106,382.6051,64.83072,382.6051,64.830376,382.6051C64.71279,382.6051,64.16854,382.23148,63.62211,381.7433C63.074867,381.2921,61.94181,380.39014,61.160805,379.7893C60.340614,379.15112,59.130653,378.25085,58.466534,377.72485C57.80235,377.19885,57.022137,376.63647,56.710064,376.4115C56.12498,375.9995,54.00767,373.92383,53.25999,373.0531C52.19804,371.84216,50.858257,368.17395,50.4586,365.37292C50.28416,364.29883,50.03349,363.26477,49.875957,363.07544C49.717632,362.84753,49.424236,361.5835,49.28245,360.20093C49.102154,358.8192,48.76945,357.51746,48.61192,357.32825C48.415264,357.10107,48.11442,355.4524,47.964523,353.64685C47.77684,351.88037,47.51158,350.07727,47.311203,349.6577C46.94969,348.85657,46.77379,347.7057,45.840073,339.10486C45.516403,336.26367,45.160202,333.7312,45.00273,333.54187C44.88298,333.31323,44.609604,331.0868,44.407272,328.55115C44.20494,326.01575,43.96782,323.67322,43.80809,323.3684C43.686813,323.06287,43.28563,320.1847,42.91765,317.03687C42.58745,313.84973,42.122116,309.6261,41.891586,307.62976C41.10777,300.83432,40.450115,290.5737,40.297344,282.5735C40.166363,277.72815,39.95164,274.53857,39.717876,274.38928C39.484173,274.23975,39.283306,271.78113,39.21574,268.24255C39.148174,264.7041,39.255047,262.23962,39.48289,262.0813C39.711468,261.96155,39.841045,260.68933,39.852337,259.2655C39.80827,256.95776,39.97636,255.6847,40.70915,251.74622C40.81352,251.16724,41.035503,250.70117,41.189373,250.69824C41.381634,250.69458,41.599163,249.9978,41.73686,249.1488C41.874615,248.29956,42.130596,247.60205,42.284405,247.59912C42.476788,247.59546,42.697247,247.05273,42.839336,246.43433C42.980755,245.77771,43.2404,245.27246,43.43272,245.2688C43.62498,245.26514,43.773724,244.99304,43.767864,244.6853C43.760628,244.30717,44.21959,244.08737,44.654903,244.08737C44.972412,244.08737,45.277344,244.2043,45.379616,244.46204C45.460182,244.65295,45.39109,247.07825,45.250954,249.81287C44.920815,256.70618,46.541115,275.06702,49.13108,293.8325C49.529274,296.5566,50.072426,300.817,50.387917,303.23508C50.70335,305.65308,51.092937,307.91565,51.214153,308.2212C51.373882,308.526,51.58964,309.75317,51.727093,310.9048C52.408367,316.35535,54.26707,327.0548,54.623516,327.58667C54.781048,327.77588,55.037518,329.1178,55.21928,330.57642C55.40031,331.99658,55.693035,333.22217,55.849102,333.33472C56.005108,333.44714,56.298565,334.71118,56.48106,336.20825C56.663616,337.70544,56.957867,339.00806,57.152325,339.11975C57.346783,339.23145,57.50944,339.68994,57.51829,340.1515C57.5388,341.22864,58.749,346.1687,59.18754,346.9685C59.38645,347.31104,59.67698,348.42114,59.81211,349.45752C59.985817,350.49304,60.274208,351.48804,60.43241,351.7157C60.58988,351.90503,60.87461,352.70764,61.003944,353.43628C61.17173,354.16406,61.459328,355.12048,61.659645,355.54004C61.821632,355.95996,62.310402,357.3744,62.7584,358.67407C63.168037,360.0104,63.61089,361.078,63.803677,361.078C63.80401,361.078,63.804337,361.078,63.804665,361.078C63.8055,361.07797,63.806335,361.07797,63.80717,361.07797C63.959843,361.07797,64.07912,361.34406,64.08573,361.68835C64.10038,362.45752,69.9022,368.0797,70.985695,368.40527C71.41105,368.51257,72.11143,368.9225,72.54191,369.2992C73.2075,369.90198,76.90988,372.37073,78.50522,373.30212C78.85501,373.4879,79.20627,373.7506,79.324615,373.9021C79.44223,374.01526,80.22104,374.5006,81.07675,374.9845C81.9324,375.46826,82.71127,375.9535,82.82962,376.10522C83.37851,376.7091,85.93918,378.34695,86.33264,378.34695C86.33352,378.34695,86.33438,378.34695,86.335236,378.34692C86.33713,378.3469,86.33903,378.34686,86.34093,378.34686C86.5705,378.34686,86.841415,378.6092,86.96164,378.91223C87.119804,379.21405,87.39036,379.4758,87.6571,379.4758C87.65974,379.4758,87.66237,379.47577,87.66501,379.4757C87.66757,379.47565,87.67015,379.47565,87.67276,379.47565C88.14039,379.47565,89.380745,380.25833,90.82083,381.53186C91.290436,381.94604,92.49747,382.6925,93.50772,383.2118C94.55649,383.73047,95.76425,384.51547,96.27236,384.92905C96.78115,385.38107,97.32845,385.83212,97.52145,385.8669C98.491844,386.31027,106.05123,391.2833,106.328514,391.70114C106.48567,391.96442,106.90515,392.18512,107.17488,392.18512C107.17804,392.18512,107.181175,392.1851,107.18429,392.18503C107.19015,392.1849,107.19599,392.18488,107.20183,392.18488C107.502235,392.18488,107.764206,392.33224,107.76852,392.5587C107.77218,392.75095,108.2004,393.01205,108.741844,393.15573C109.282555,393.26083,109.709984,393.48337,109.71291,393.63718C109.71584,393.7911,110.30093,394.20322,111.001305,394.61313C111.66244,394.98532,112.44198,395.50888,112.71487,395.69614C113.96627,396.74973,114.31686,396.97372,115.09048,397.1899C115.554955,397.3348,115.9454,397.63522,115.94912,397.8276C115.95272,398.01666,116.17882,398.1644,116.44234,398.1644C116.4468,398.1644,116.45129,398.16437,116.45577,398.16428C116.45847,398.1642,116.46119,398.16418,116.46393,398.16418C116.77295,398.16418,117.312004,398.4979,117.70125,398.90988C118.0547,399.28793,119.53615,400.29855,120.975296,401.11752C122.376175,401.93723,124.051346,403.0211,124.67702,403.5477C125.29914,404.07156,126.03386,404.5171,126.30685,404.5171C126.3084,404.5171,126.30995,404.5171,126.31148,404.51706C126.317635,404.51694,126.3238,404.51688,126.329956,404.51688C126.59308,404.51688,126.85407,404.62564,126.93208,404.77438C127.13262,405.23096,129.4959,406.7557,129.96701,406.7557C129.96835,406.7557,129.9697,406.7557,129.97101,406.75568C129.97331,406.75565,129.97562,406.7556,129.97792,406.7556C130.16798,406.7556,130.35861,406.904,130.36157,407.0561C130.36523,407.24823,130.98938,407.69818,131.72827,408.10724C132.46643,408.47797,133.09058,408.9278,133.0935,409.08148C133.0971,409.2708,133.2856,409.382,133.47488,409.382C133.47795,409.382,133.481,409.38196,133.48407,409.3819C133.48541,409.38187,133.48676,409.38187,133.48813,409.38187C133.95932,409.38187,136.32248,410.90643,136.52228,411.32465C136.60155,411.5124,136.82845,411.62283,137.01894,411.62283C137.02203,411.62283,137.02512,411.6228,137.0282,411.62274C137.02853,411.62274,137.02887,411.62274,137.02922,411.62274C137.34479,411.62274,141.46712,414.30957,142.7171,415.36188C142.98732,415.54715,143.29512,415.7318,143.48785,415.7318C143.48979,415.7318,143.49173,415.73178,143.49365,415.73175C143.49416,415.73175,143.49466,415.73175,143.49516,415.73175C143.65157,415.73175,144.27356,416.18045,144.85966,416.74454C145.83891,417.6492,146.38023,417.79276,148.80559,417.86197C149.21352,417.88046,149.57298,417.8909,149.89836,417.8909C151.47745,417.8909,152.25331,417.64496,153.8657,416.88028C157.56425,415.11688,159.54515,414.07867,159.73235,413.80585C159.84557,413.68817,160.41728,413.40778,160.99205,413.28143C161.56602,413.11664,162.02238,412.83856,162.01872,412.64618C162.01506,412.45392,162.20439,412.29645,162.39671,412.2928C162.85832,412.28387,167.85136,409.80304,168.11394,409.45172C168.2271,409.33417,168.72203,409.05536,169.25755,408.8913C169.79314,408.727,170.28789,408.4483,170.40038,408.2923C170.66234,407.90253,175.42601,405.503,176.0029,405.492C176.23367,405.4876,176.50076,405.36713,176.574,405.17328C176.64804,405.018,177.56076,404.46173,178.58902,403.90363C179.65567,403.34454,180.56851,402.7884,180.68167,402.67084C181.02121,402.31805,185.86185,399.91718,186.3234,399.90826C186.59268,399.90314,186.78201,399.74554,186.77835,399.55328C186.77469,399.36102,187.30795,399.08148,187.92038,398.91595C188.57138,398.74945,189.06699,398.5091,189.06406,398.3553C189.06186,398.23993,189.8223,397.76373,190.77573,397.32245C191.72922,396.8808,192.48965,396.4046,192.486,396.21222C192.483,396.0584,192.71164,395.93866,192.98087,395.93353C193.21085,395.8907,194.12808,395.56525,194.96628,395.12616C195.80429,394.68683,196.72153,394.3615,196.99008,394.31793C197.22073,394.31354,197.44937,394.19366,197.44571,394.0014C197.44278,393.84747,197.8215,393.53253,198.31705,393.29218C198.77426,393.05267,200.33499,392.17633,201.8204,391.37848C203.49582,390.4615,204.9863,389.9328,205.90933,389.9151C206.71707,389.89972,207.36801,389.73346,207.36435,389.54108C207.36069,389.34894,208.01009,389.10553,208.81569,388.9748C209.58266,388.8448,211.69075,388.41974,213.49184,388.039C215.29298,387.65826,218.2065,387.10248,220.00832,386.7603C221.8102,386.41815,224.03365,385.9909,224.99092,385.74164C225.94795,385.4926,226.82973,385.32172,227.02132,385.2796C227.17519,385.27667,227.28462,384.96686,227.27724,384.58234C227.22414,383.81366,225.08821,382.77716,222.81233,382.47443C221.96309,382.3366,220.9203,382.1258,220.49428,381.97992C220.06746,381.79572,218.67482,381.3991,217.39821,381.0385C216.1216,380.6784,214.84279,380.20245,214.53072,379.97772C214.20021,379.72348,212.88733,379.61203,211.46887,379.61203C209.5351,379.61203,207.4051,379.81918,207.3005,380.15424C207.19034,380.42572,206.88705,380.6623,206.57938,380.66815C206.27164,380.674,205.16428,381.11823,204.05917,381.67816C202.99173,382.19867,201.5405,382.7652,200.81271,382.93292C200.12253,383.06158,199.55075,383.34174,199.55441,383.53412C199.55734,383.68793,198.94699,383.9688,198.21927,384.13666C197.49069,384.26605,196.88046,384.54706,196.88412,384.73944C196.88779,384.9317,196.62143,385.09076,196.31375,385.09662C196.00601,385.10248,195.43204,385.26727,195.05185,385.50543C193.49179,386.4201,190.74234,387.5114,190.04996,387.52472C189.58847,387.5335,189.24521,387.6939,189.24966,387.92462C189.25333,388.117,188.56686,388.43793,187.72281,388.56952C186.87973,388.73956,186.19101,388.945,186.19394,389.09894C186.20059,389.445,181.6995,391.49335,178.5654,392.59198C177.41891,392.9986,176.04446,393.56366,175.51122,393.84308C174.97789,394.12262,174.25151,394.36725,173.90532,394.37396C173.52074,394.3813,173.2152,394.5025,173.21812,394.6563C173.22179,394.8487,172.42216,395.28717,171.39183,395.73016C170.3991,396.13385,169.06322,396.69806,168.37682,397.01886C167.7288,397.33905,166.84862,397.58685,166.42546,397.5949C166.00237,397.60297,165.583,397.8034,165.50975,397.997C165.33789,398.54733,162.1383,398.91537,158.69418,398.91537C157.77765,398.91537,156.84383,398.8893,155.94511,398.83368C153.74907,398.6833,151.85857,398.41168,151.74022,398.25995C151.62193,398.10846,149.84819,397.91144,147.80681,397.79645C146.933,397.7471,146.2022,397.7174,145.59087,397.7174C142.99547,397.7174,142.55345,398.25256,142.46399,400.0916C142.41205,401.40082,142.22632,401.75067,141.57397,401.84003C141.51802,401.84912,141.46156,401.8536,141.4047,401.8536C140.91565,401.8536,140.39595,401.52103,139.90167,400.90997C139.46765,400.34125,138.9159,399.65912,138.68005,399.39423C138.4826,399.1286,138.2829,398.74774,138.2785,398.5169C138.27481,398.3266,138.08253,398.13977,137.892,398.13977C137.89015,398.13977,137.88832,398.1398,137.88647,398.13983C137.88481,398.13986,137.88315,398.1399,137.88148,398.1399C137.6512,398.1399,137.34106,397.8396,137.18103,397.46063C136.89996,396.8504,134.91815,393.81012,132.86078,390.84833C131.7937,389.36798,130.24304,386.74286,129.4444,385.21893C129.20337,384.68488,128.88605,384.19086,128.76843,384.07758C128.2597,383.62567,125.99684,379.9751,125.98952,379.59045C125.98439,379.32422,125.83037,379.1363,125.60388,379.1363C125.60127,379.1363,125.59865,379.1363,125.59602,379.13635C125.595184,379.13638,125.59435,379.13638,125.59351,379.13638C125.40135,379.13638,125.12576,378.71973,124.962296,378.18665C124.83717,377.6526,124.56175,377.23593,124.36959,377.23593C124.36875,377.23593,124.36792,377.23593,124.36708,377.23596C124.36525,377.236,124.36342,377.23602,124.361595,377.23602C124.171715,377.23602,124.01713,377.04797,124.01277,376.81958C124.00838,376.58875,123.60976,375.86523,123.13576,375.2202C122.06941,373.77856,120.95796,371.99133,120.5934,371.03638C120.47212,370.69446,120.1996,370.39365,120.007454,370.39365C120.006294,370.39365,120.005135,370.39365,120.00398,370.39368C120.00215,370.3937,120.00033,370.39374,119.998505,370.39374C119.80874,370.39374,119.654144,370.2057,119.649734,369.97717C119.64534,369.74634,119.12703,368.79443,118.45479,367.8452C117.82179,366.93384,117.26705,366.09802,117.26559,366.02112C117.26339,365.90576,116.54836,364.72668,115.675804,363.35815C114.80312,361.98962,114.08584,360.6952,114.082115,360.5028C114.07778,360.27536,113.9254,360.1254,113.69999,360.1254C113.69674,360.1254,113.69348,360.12543,113.69021,360.1255C113.68935,360.12552,113.68848,360.12552,113.687614,360.12552C113.4954,360.12552,113.219864,359.7089,113.05642,359.17566C112.931244,358.6414,112.65546,358.22446,112.50127,358.22446C112.50073,358.22446,112.50019,358.2245,112.49966,358.2245C112.49912,358.2245,112.49858,358.22452,112.49805,358.22452C112.34386,358.22452,112.06801,357.8076,111.94277,357.27307C111.779366,356.74,111.50378,356.32333,111.31156,356.32333C111.31072,356.32333,111.30988,356.32333,111.309044,356.32336C111.306854,356.3234,111.30467,356.32343,111.30249,356.32343C111.07528,356.32343,110.91995,356.09705,110.914085,355.79236C110.908226,355.48462,110.66793,354.9889,110.39358,354.72473C110.157616,354.46008,109.56313,353.54785,109.12386,352.70996C108.68459,351.8717,108.16915,351.0736,108.013084,350.96106C107.85702,350.84863,107.34243,350.089,106.86465,349.2516C106.42617,348.45203,105.94991,347.69165,105.79391,347.57922C105.67629,347.46594,105.19936,346.6671,104.7593,345.79053C104.3193,344.87698,103.88294,344.15503,103.76672,344.15503C103.76655,344.15503,103.76637,344.15503,103.7662,344.15503C103.76604,344.15503,103.76588,344.15503,103.76572,344.15503C103.649315,344.15503,103.09623,343.35834,102.57711,342.33093C102.01949,341.34106,101.50265,340.46606,101.38503,340.35278C101.071495,340.05115,100.23733,338.6819,99.83724,337.88147C99.63686,337.4619,99.0024,336.47375,98.44857,335.6764C97.894615,334.87878,97.417625,334.08008,97.41323,333.84924C97.40957,333.65686,97.05312,333.12512,96.62124,332.67163C95.60062,331.61377,94.24448,329.10034,94.2283,328.25403C94.22098,327.8694,93.97995,327.3352,93.74399,327.07043C93.0784,326.46765,92.749115,311.2373,93.34982,310.45642C93.57474,310.14417,93.84201,308.02295,93.95175,305.71216C94.061615,303.4015,94.28902,301.20395,94.47395,300.8159C94.69734,300.42685,94.831314,299.38535,94.813675,298.46225C94.7961,297.53915,95.03157,295.76474,95.31508,294.48972C95.598526,293.21432,95.798416,291.59457,95.823685,290.90146C95.81123,290.24777,95.954056,289.66782,96.14638,289.66415C96.30025,289.66122,96.58363,288.3862,96.708145,286.8446C96.794876,285.34253,97.03621,283.87585,97.18642,283.68054C97.37428,283.44617,97.58229,282.2495,97.71193,280.9773C97.803055,279.7057,98.037796,277.89282,98.2502,276.927C98.42415,275.96167,98.84462,273.79895,99.1584,272.1001C99.43379,270.40198,99.82533,268.73987,100.011,268.39C100.15828,268.0409,100.403946,266.80493,100.53505,265.60974C100.66542,264.3761,100.916275,263.4093,101.070145,263.40637C101.22395,263.40344,101.47487,262.43665,101.60664,261.2799C101.70009,260.1239,101.989395,259.15637,102.181656,259.1527C102.37404,259.14905,102.51753,258.60754,102.50435,257.9154C102.48378,256.83826,103.192764,253.6698,103.92305,251.6167C104.506966,249.95105,105.727974,245.38757,105.719185,244.9259C105.71479,244.69519,105.864204,244.46155,106.056526,244.45789C106.24891,244.45422,106.50483,243.75659,106.642525,242.90747C106.78022,242.05847,107.0348,241.28406,107.22419,241.12646C107.414314,241.00745,107.55854,240.50464,107.54829,239.9662C107.538704,239.46608,107.684456,239.04005,107.87684,239.03639C108.06916,239.03273,108.32514,238.33522,108.46284,237.48622C108.60053,236.63698,108.856514,235.93959,109.0489,235.93593C109.24116,235.93227,109.38984,235.66005,109.38325,235.31386C109.36707,234.46767,111.54975,229.88588,112.898384,227.97487C114.0561,226.31718,116.06972,224.35626,116.589325,224.35626C116.60762,224.35626,116.62407,224.3587,116.63856,224.36366C116.832405,224.43678,117.184456,224.73781,117.42182,225.0796C117.699104,225.4977,117.5207,226.23195,116.81934,227.78456C116.26447,228.94936,115.82862,230.30421,115.83668,230.72731C115.84553,231.18898,115.69898,231.57668,115.54517,231.5796C115.35279,231.58327,115.028694,232.74355,114.82508,234.17104C114.58375,235.63783,114.17213,238.26198,113.89893,240.07568C113.58735,241.89014,113.28303,244.08911,113.146065,244.97656C113.04829,245.90186,112.83149,246.63696,112.67762,246.6399C112.52381,246.64282,112.28101,248.03271,112.19788,249.72717C112.07636,251.42249,111.83509,252.88916,111.644966,253.00818C111.493355,253.12646,111.24976,254.4779,111.12452,255.98096C111.00007,257.52234,110.79652,258.94983,110.64704,259.18347C110.348885,259.68945,109.57514,265.51404,109.40388,268.63403C109.31489,270.02087,109.11201,271.48682,108.9278,271.91357C108.7436,272.34033,108.44001,274.57764,108.254036,276.92822C107.63825,284.98145,107.09528,290.80173,106.97993,290.80392C106.787605,290.8076,106.01449,302.71155,105.37228,315.42114C105.31954,316.6919,105.42147,317.99805,105.5812,318.30273C105.94277,319.10376,106.89962,320.8556,107.855064,322.5304C108.253624,323.25354,108.80752,324.05115,109.0826,324.35376C109.31844,324.61853,109.55666,324.9989,109.55886,325.114C109.56179,325.26794,109.95748,325.83752,110.46694,326.328C111.80337,327.8031,113.89248,330.4181,113.896935,330.64868C113.90133,330.87952,114.25558,331.29602,116.29891,333.5271C116.77071,334.0569,117.44075,334.89038,117.797195,335.42236C118.43092,336.3722,119.06105,337.12964,121.06593,339.36145C121.65535,340.0044,122.16786,340.64868,122.17079,340.8026C122.17372,340.9563,122.41115,341.2981,122.6855,341.56226C123.58852,342.5067,125.51729,344.7787,126.110245,345.61365C126.42757,346.1079,127.01912,346.8661,127.45032,347.2811C127.84375,347.7352,128.63208,348.72067,129.22296,349.4404C129.77539,350.16098,130.48242,350.91684,130.71613,351.06625C130.98822,351.21494,131.22638,351.5953,131.2323,351.90292C131.23743,352.17218,131.39716,352.477,131.55249,352.55096C131.70703,352.5865,132.45398,353.41864,133.20313,354.36615C133.95227,355.31378,134.81598,356.2209,135.0882,356.36957C135.32196,356.51898,135.5586,356.82208,135.56299,357.05292C135.57031,357.43756,135.64948,357.55157,137.61371,359.66864C138.2815,360.38702,139.30646,361.67572,139.93811,362.50995C141.04358,363.98956,142.65729,365.8825,144.54234,367.8858C145.01427,368.41547,145.41057,369.02338,145.4135,369.1773C145.41716,369.36957,145.89055,369.97626,146.51762,370.57977C147.5382,371.63763,148.24748,372.50922,150.21904,375.0108C150.6923,375.6175,151.28313,376.33734,151.5183,376.56354C151.71513,376.7907,152.34447,377.5097,152.89616,378.1917C153.44774,378.87384,154.11711,379.66913,154.39153,379.9333C154.6281,380.23663,154.86626,380.61652,154.87065,380.84735C154.87944,381.3078,156.29503,381.5297,157.79997,381.5297C159.43816,381.5297,161.18224,381.26678,161.33305,380.7625C161.4055,380.5302,161.71031,380.37054,162.01805,380.36456C162.32579,380.3587,162.86125,380.19476,163.2415,379.9566C163.58391,379.75775,164.76598,379.19635,165.79643,378.75348C166.86449,378.2713,168.23747,377.62958,168.92387,377.30865C169.57182,376.98846,170.45213,376.74078,170.87517,376.73273C171.29826,376.72467,171.71837,376.56256,171.7924,376.4073C171.86412,376.13654,175.36888,374.29987,178.0015,373.13385C180.74875,371.9272,182.08322,371.28595,184.29495,370.24323C185.66776,369.60138,187.11618,368.8813,187.53629,368.71942C187.95566,368.51886,189.48093,367.79718,190.8923,367.15472C192.34146,366.47296,193.75418,365.90717,194.06192,365.9013C194.36966,365.89545,194.59665,365.6988,194.59299,365.5064C194.5886,365.2757,194.77798,365.11835,195.00882,365.11395C195.2396,365.10944,196.57541,364.54523,197.9476,363.8648C199.35818,363.18402,200.96194,362.53766,201.53653,362.41132C202.14981,362.28412,202.72159,362.00385,202.83401,361.84772C202.98936,361.56943,206.38951,361.39334,209.16815,361.39334C211.049,361.39334,212.64508,361.47403,212.75728,361.65826C212.8763,361.84845,213.76607,362.10077,214.72987,362.1978C215.6559,362.33405,216.54573,362.5865,216.66481,362.77655C216.78304,362.92816,217.74971,363.17914,218.79115,363.31305C219.87105,363.44623,220.7217,363.66095,220.72536,363.8532C220.72829,364.00714,221.50185,364.2232,222.46565,364.32025C223.39162,364.45648,224.51228,364.70428,224.86201,364.88995C225.67024,365.29388,230.53162,366.3381,231.63153,366.3381C231.64185,366.3381,231.65181,366.338,231.66145,366.33783C231.6689,366.33768,231.67632,366.33762,231.68372,366.33762C232.02086,366.33762,232.31839,366.4833,232.32204,366.67157C232.32817,366.99384,234.83766,367.3355,236.45422,367.3355C236.95882,367.3355,237.3764,367.30225,237.60371,367.22467C237.98622,367.102,239.1144,365.7337,240.16345,364.25177C241.17322,362.73187,242.15045,361.52032,242.30432,361.5174C242.45819,361.51447,242.60034,360.89618,242.58636,360.16547C242.5725,359.4368,242.40779,358.8257,242.21619,358.8257C242.21562,358.8257,242.21504,358.82574,242.21448,358.82574C242.21397,358.82574,242.21346,358.82574,242.21295,358.82574C242.02066,358.82574,241.73923,358.14017,241.56964,357.299C241.40012,356.45798,241.15706,355.77155,240.96497,355.77155C240.96446,355.77155,240.96394,355.77155,240.96344,355.77155C240.96294,355.77155,240.96242,355.77155,240.96191,355.77155C240.76982,355.77155,240.5267,355.085,240.35712,354.2442C240.18759,353.40317,239.90611,352.71735,239.71382,352.71735C239.71332,352.71735,239.7128,352.71735,239.7123,352.71735C239.71146,352.71738,239.71063,352.71738,239.70981,352.71738C239.51857,352.71738,239.358,352.29855,239.34846,351.801C239.33821,351.26242,239.17476,350.76535,238.97963,350.61533C238.78511,350.5035,238.50423,349.89328,238.33858,349.28073C238.17287,348.6321,237.89543,348.13873,237.70319,348.13873C237.70248,348.13873,237.70177,348.13876,237.70107,348.13876C237.69975,348.1388,237.69846,348.1388,237.69714,348.1388C237.50659,348.1388,237.3497,347.87396,237.34389,347.56833C237.33797,347.2606,237.0489,346.2274,236.68373,345.23386C236.23573,343.9343,236.14485,343.20493,236.40309,342.6229C236.62495,342.15695,236.8788,341.3441,236.98384,340.8033C237.19331,339.68356,238.39919,338.3524,242.52106,334.5798C246.03784,331.35776,248.60773,328.92307,250.60883,326.92258C253.66693,323.863,255.78638,322.01437,256.32477,322.00412C256.6325,321.99814,256.86023,321.8398,256.8573,321.686C256.84674,321.13187,259.13242,320.0371,260.16727,320.0371C260.21,320.0371,260.2506,320.03897,260.28882,320.04282C261.21484,320.17917,261.2555,320.2938,261.30396,322.83237C261.3385,324.6401,261.20233,325.56613,260.85834,325.6882C260.6291,325.7695,260.40338,326.04318,260.40778,326.27377C260.41882,326.8508,258.12677,331.74265,257.74506,331.90366C257.59265,331.9835,257.44464,332.29416,257.44977,332.56332C257.4557,332.87106,257.2337,333.33713,257.008,333.6108C256.32977,334.3547,255.6972,335.48264,255.07117,336.95663C254.7768,337.65488,254.2508,338.31918,253.9068,338.441C253.60126,338.56223,253.33868,338.91354,253.34381,339.18283C253.34894,339.45212,252.86438,340.26913,252.22375,340.9741C251.1363,342.26016,250.71509,344.41193,251.51125,344.41193C251.51407,344.41193,251.51692,344.4119,251.51978,344.41183C251.52197,344.4118,251.52415,344.41177,251.52632,344.41177C251.7536,344.41177,251.90894,344.63828,251.9148,344.94308C251.91992,345.21237,252.15948,345.66953,252.47168,345.89438C252.78442,346.1578,253.18292,346.88107,253.35004,347.57053C253.47784,348.22202,253.83875,348.98483,254.15161,349.24826C254.44753,349.5534,255.25392,349.71494,255.93361,349.71494C256.51608,349.71494,257.0055,349.59628,257.00073,349.34775C256.99707,349.15536,257.9912,348.82858,259.219,348.6512C260.4093,348.51303,261.63342,348.1434,261.93665,347.9066C262.42053,347.50955,273.00507,347.16296,280.0135,347.16296C283.43185,347.16296,285.99945,347.24542,286.1294,347.44467C286.28772,347.67258,287.4474,347.95834,288.71964,348.08786C289.9918,348.21762,291.07382,348.46616,291.15445,348.65707C291.2467,348.90054,291.9106,349.0135,292.60556,349.0135C293.43716,349.0135,294.31326,348.85178,294.30765,348.55844C294.2952,347.9045,296.06863,344.0615,296.48587,343.7457C297.36014,343.19028,296.75473,341.7014,294.50284,338.6279C293.19968,336.88278,292.12894,335.21017,292.1238,334.94113C292.118,334.63632,291.96268,334.40982,291.7354,334.40982C291.73322,334.40982,291.73105,334.40985,291.72885,334.40988C291.72803,334.4099,291.72717,334.4099,291.72635,334.4099C291.53418,334.4099,291.25848,333.99326,291.09512,333.46017C290.96988,332.92566,290.6941,332.50873,290.54004,332.50873C290.5395,332.50873,290.53897,332.50876,290.53842,332.50876C290.53787,332.50876,290.53735,332.5088,290.5368,332.5088C290.38263,332.5088,290.10678,332.09198,289.98148,331.55746C289.8181,331.02438,289.58054,330.607,289.38864,330.607C289.38782,330.607,289.38696,330.607,289.38614,330.60703C289.38547,330.60703,289.38483,330.60706,289.38416,330.60706C289.19193,330.60706,288.91382,330.07526,288.74875,329.46494C288.5828,328.81537,288.3432,328.32053,288.22754,328.32053C288.2273,328.32053,288.22702,328.32053,288.22678,328.32053C288.22638,328.32053,288.22595,328.32053,288.22556,328.32053C287.8775,328.32053,286.55624,325.46597,286.54156,324.69748C286.53574,324.39185,286.37888,324.12714,286.18835,324.12714C286.18707,324.12714,286.18576,324.12714,286.18445,324.12717C286.18335,324.1272,286.18228,324.1272,286.18118,324.1272C285.606,324.1272,285.20636,321.2201,285.68866,320.32748C285.95032,319.79993,286.37582,319.53043,287.00854,319.53043C287.54065,319.53043,288.21927,319.721,289.07028,320.10898C290.73886,320.84665,290.7004,320.84738,293.04703,322.8419C294.02216,323.66733,294.91763,324.34143,295.11328,324.34143C295.11383,324.34143,295.11435,324.3414,295.1149,324.3414C295.11572,324.34137,295.11658,324.34137,295.1174,324.34137C295.27008,324.34137,295.38928,324.60724,295.39517,324.91318C295.40097,325.218,295.6325,325.48074,295.89853,325.48074C295.9011,325.48074,295.90366,325.48074,295.90622,325.48068C295.90656,325.48068,295.9069,325.48068,295.90723,325.48068C296.14243,325.48068,297.97696,326.9827,299.93246,328.78964C301.89084,330.5992,304.55112,332.89548,305.8024,333.94882C308.93008,336.54404,310.10742,337.7526,310.86462,339.1232C311.62402,340.60953,311.68134,343.6094,310.97772,345.04666C310.68182,345.66776,310.42798,346.48062,310.43457,346.8268C310.44116,347.17288,310.29468,347.56046,310.1053,347.71793C309.91516,347.83707,309.65765,348.45767,309.5155,349.07608C309.37427,349.7327,309.1146,350.238,308.92233,350.24167C308.73,350.24533,308.58273,350.59445,308.59158,351.05588C308.60037,351.51743,308.34872,352.44574,308.05496,353.18243C307.7612,353.91888,307.2455,355.12152,306.91415,355.89752C306.03055,357.992,306.43112,360.83173,307.7971,361.8443C308.34366,362.25726,308.8148,362.74847,308.8185,362.94086C308.82217,363.133,309.45218,363.89056,310.19836,364.68436L311.57172,366.0817L313.95117,365.76688C315.29456,365.5873,316.52014,365.2947,316.74805,365.1365C316.93738,364.97903,318.5055,364.4872,320.19122,364.10867C321.8761,363.6918,323.52197,363.2371,323.86444,363.03812C324.20697,362.83926,325.1635,362.55167,325.96808,362.38248C326.81213,362.251,327.6532,361.96548,327.84247,361.8079C328.0703,361.6497,328.9884,361.36282,329.94684,361.19058C330.90558,361.0186,331.86188,360.73087,332.05133,360.5734C332.27917,360.41507,333.15872,360.12894,334.04037,359.95828C334.96048,359.78665,335.7631,359.5021,335.91324,359.3068C336.0685,359.0285,339.46866,358.85242,342.24734,358.85242C344.1282,358.85242,345.72433,358.9331,345.83658,359.11734C345.95474,359.26907,346.7676,359.52274,347.61673,359.66055C348.46518,359.75967,349.1627,360.01578,349.16635,360.20816C349.17,360.40042,349.7136,360.65945,350.33188,360.80142C350.9888,360.94266,351.49307,361.16397,351.49673,361.35623C351.49966,361.51016,352.12015,361.76773,352.85318,361.86917C353.587,362.00894,354.2075,362.2664,354.21042,362.4202C354.21408,362.61258,354.60312,362.83597,355.10532,362.94193C356.80582,363.33267,358.85965,364.10147,358.86484,364.37076C358.86703,364.4861,359.41,364.70657,360.0283,364.84866C360.68503,364.9899,361.18942,365.2112,361.19315,365.4036C361.19608,365.5574,361.81656,365.81497,362.5496,365.9164C363.28336,366.05606,363.90384,366.31363,363.9075,366.5059C363.9119,366.73343,364.10162,366.8827,364.328,366.8827C364.3313,366.8827,364.33456,366.88266,364.33786,366.8826C364.33984,366.88257,364.34186,366.88254,364.3439,366.88254C364.58258,366.88254,365.38812,367.1347,366.15738,367.4634C366.9717,367.79422,367.9413,368.199,368.36734,368.34476C368.7941,368.52884,369.95755,369.007,370.96573,369.41092C371.96893,369.85086,372.96994,370.1767,373.17023,370.1767C373.17133,370.1767,373.17242,370.1767,373.1735,370.17667C373.1768,370.1766,373.18005,370.17657,373.18335,370.17657C373.40973,370.17657,373.59958,370.3257,373.6039,370.55325C373.6075,370.74258,373.87213,370.92703,374.17404,370.92703C374.17874,370.92703,374.18344,370.927,374.18814,370.9269C374.192,370.92685,374.1959,370.9268,374.19986,370.9268C374.91092,370.9268,377.6358,372.09442,377.79593,372.4739C377.8742,372.6594,378.16895,372.768,378.5031,372.768C378.5129,372.768,378.52277,372.7679,378.53262,372.76773C378.53613,372.76767,378.5397,372.76764,378.54337,372.76764C378.8605,372.76764,379.73895,373.0181,380.5059,373.34573C384.53894,375.00015,385.4702,375.40555,386.09216,375.74002C386.47253,375.92136,387.00006,376.0627,387.3107,376.0627C387.31708,376.0627,387.3234,376.06265,387.3296,376.06253C387.33432,376.06244,387.33902,376.0624,387.34375,376.0624C387.64682,376.0624,387.94986,376.24658,388.03003,376.47244C388.11133,376.7018,389.38647,376.98538,390.8495,377.03433L393.54553,377.17532L394.6714,375.69168C395.30994,374.87137,396.25012,373.73758,396.7776,373.15042C397.3058,372.6016,398.13074,371.47025,398.5775,370.69217C399.06287,369.91312,399.58972,369.28738,399.78198,369.28372C399.97424,369.28006,400.1244,369.085,400.12,368.85428C400.11548,368.62344,400.33887,368.2344,400.60303,367.96C401.95984,366.47208,403.12354,364.94937,403.11768,364.64163C403.11328,364.4108,403.33826,364.09866,403.6045,363.93973C403.83215,363.78128,404.5099,362.99905,405.03442,362.25784C405.5974,361.51602,406.34753,360.50137,406.7234,360.0325C407.1377,359.56302,407.77527,358.70425,408.18738,358.1193C408.86145,357.14432,409.5746,356.20743,411.4536,353.86295C412.2052,352.9252,414.64502,349.72354,415.05786,349.1769C415.20728,348.94315,415.5808,348.35892,415.91675,347.81387C416.2527,347.26895,417.00354,346.29263,417.6057,345.58853C418.20862,344.92276,418.88623,344.1404,419.07263,343.829C419.29834,343.55545,420.31116,342.18936,421.32324,340.78482C422.37354,339.37967,423.27405,338.16983,423.3871,338.05228C423.50037,337.9346,424.4391,336.7239,425.45117,335.31937C426.46313,333.91507,427.6654,332.39154,428.1565,331.92047C428.6477,331.44928,429.02136,330.86517,429.0177,330.6729C429.0133,330.44208,429.53845,329.73932,430.14136,329.07367C430.78284,328.40753,431.26965,327.70563,431.266,327.51324C431.26147,327.2824,431.3739,327.1264,431.56628,327.12274C431.71997,327.1198,432.2461,326.45575,432.7693,325.63763C433.29285,324.8581,433.77893,324.11786,433.8921,324.0003C434.00537,323.88275,434.83032,322.75116,435.72897,321.46417C436.66635,320.17657,437.60434,318.9273,437.79306,318.73163C438.0195,318.4964,438.54245,317.67828,438.9117,316.8631C439.32016,316.08588,439.76913,315.42316,439.92307,315.42023C440.07687,315.4173,440.29733,314.87445,440.43942,314.2563C440.5809,313.59943,440.84067,313.09418,441.0328,313.0905C441.76364,313.07648,440.12872,287.9059,439.3322,286.49747C439.09406,286.11722,438.91388,284.73538,438.88812,283.3893C438.8625,282.04312,438.72357,280.81448,438.56683,280.66348C438.37152,280.51334,438.02423,278.4424,437.71014,276.10126C436.48663,266.42877,435.99677,262.9367,435.75934,262.5948C435.601,262.36713,435.3321,260.3714,435.13422,258.06683C434.93723,255.80228,434.633,253.96234,434.47894,253.96234C434.47882,253.96234,434.4787,253.96234,434.47858,253.96234C434.47827,253.96234,434.47797,253.96236,434.47766,253.96236C434.3239,253.96236,434.07986,253.23698,433.94708,252.31781C433.41583,248.67279,432.73566,245.29988,432.37848,244.72957C432.2188,244.42476,431.9217,242.96846,431.7414,241.58675C431.5605,240.16646,431.26776,238.94087,431.11163,238.82845C430.91705,238.71663,430.65912,237.29805,430.4737,235.64705C430.28888,234.03462,429.99042,232.50117,429.83295,232.31184C429.67474,232.08394,429.4262,231.16536,429.29254,230.20613C429.06573,228.40193,428.31903,225.56905,427.75543,224.27144C427.5551,223.85214,427.2713,223.0881,427.10724,222.55246C426.94366,222.05551,426.58502,221.40817,426.31,221.10568C425.8011,220.65353,425.49518,218.73557,425.87982,218.72824C425.95673,218.72678,426.30072,218.60483,426.6447,218.48276C426.69757,218.46179,426.75638,218.45158,426.82062,218.45158 Z"/> </g> </g> </svg>