<?xml version="1.0" encoding="UTF-8" standalone="no"?>
<!-- Created with Inkscape (http://www.inkscape.org/) -->

<svg
   width="210mm"
   height="297mm"
   viewBox="0 0 210 297"
   version="1.1"
   id="svg11685"
   xmlns="http://www.w3.org/2000/svg"
   xmlns:svg="http://www.w3.org/2000/svg">
  <defs
     id="defs11682" />
  <g
     id="layer1">
    <path
       style="fill:none;fill-rule:evenodd;stroke:#000000;stroke-width:0.264583"
       id="path11796"
       d="m 50.1875,107.59374 c 1.499451,1.29263 -1.002666,2.65897 -2.14844,2.49219 -3.104975,-0.45197 -3.885871,-4.32833 -2.835931,-6.78907 1.878097,-4.401671 7.533759,-5.319962 11.42969,-3.17967 5.717436,3.14095 6.792641,10.78125 3.523423,16.07031 -4.357355,7.04949 -14.043495,8.28152 -20.710941,3.86717 -8.3903,-5.55501 -9.778738,-17.31272 -4.210913,-25.351566 6.743381,-9.73612 20.585869,-11.280771 29.99219,-4.554659 11.085025,7.926489 12.785827,23.861465 4.898405,34.632815 -9.10634,12.43595 -27.13869,14.2929 -39.273441,5.24215 C 17.063266,119.73938 15.05016,99.606348 25.265646,86.109345 36.725878,70.967747 58.961919,68.798454 73.820337,80.179703 90.315998,92.815047 92.641504,117.15582 80.093725,133.37502" />
  </g>
</svg>
